<svg xmlns="http://www.w3.org/2000/svg" width="135" height="48" fill="none"><path fill="#fff" d="M97.496 5.25c.013.289.04.577.04.866v35.371h-5.86V15.704h-.069l-2.581 25.78h-4.635l-2.776-25.548h-.021v25.539H75.97a3 3 0 0 1-.066-.473q0-17.875.008-35.753h7.64c1.11 6.795 2.803 13.499 3.149 20.42.134-.821.143-1.644.258-2.454.62-4.34 1.264-8.677 1.9-13.016l.728-4.95zM19.755 5.651c2.681.008 5.362-.016 8.043.04 1.045.014 2.087.131 3.11.349 2.152.47 3.631 1.819 4.324 3.887a16.1 16.1 0 0 1 .415 8.972c-.453 1.908-1.55 3.302-3.828 3.678.46.125.743.19 1.02.28 1.475.484 2.495 1.516 3.076 2.897 1.642 3.899 1.647 7.881.119 11.795-1.054 2.691-3.321 4.021-6.108 4.218-2.846.201-5.711.12-8.568.164l-1.608.02zm6.319 25.653v4.948c0 1.52 0 1.52 1.528 1.486 1.506-.035 2.085-.437 2.366-1.907.494-2.678.543-5.419.144-8.112-.333-2.38-1.044-2.914-3.387-2.88-.488.009-.66.143-.655.648.018 1.938.004 3.878.004 5.817m0-21.326v9.13c0 1.29 0 1.29 1.262 1.287 1.475 0 2.212-.477 2.3-1.929.134-2.081.168-4.192-.042-6.263-.207-2.039-1.353-2.665-3.52-2.225M63.317 42.75c-.718-.141-1.446-.247-2.154-.43-2.85-.738-4.664-2.884-4.922-5.818a30 30 0 0 1-.115-2.539q-.012-13.657 0-27.315v-.92h6.505v.848q0 13.992.007 27.984a11 11 0 0 0 .143 1.862c.174 1.008.75 1.432 1.788 1.419 1.037-.013 1.563-.464 1.709-1.496q.135-.927.134-1.864.012-13.925 0-27.851v-.91h6.257v.722q0 14.094-.01 28.186 0 1.373-.237 2.725c-.513 2.863-2.319 4.607-5.195 5.107q-.816.143-1.631.29zM101.182 41.869V5.725h13.103v5.31h-6.222c-.331 0-.623 0-.622.467.013 3.057.012 6.113.019 9.17q.024.132.078.254h5.957v4.991c-.231.014-.469.038-.706.038-1.564 0-3.127.019-4.691-.008-.481-.008-.67.114-.67.63q.03 4.684 0 9.37c0 .515.189.641.67.637 2.097-.02 4.196-.01 6.3-.01h.852v5.296zM53.616 41.892H39.614V5.722h6.413v29.93c0 .92 0 .921.899.921h6.688z"/></svg>