<svg xmlns:xlink="http://www.w3.org/1999/xlink" xmlns="http://www.w3.org/2000/svg" width="135" height="48" viewBox="0 0 135 48" fill="none">
<path d="M30.9733 12.518H29.2554V23.4197H30.9726V12.518H30.9733ZM45.0452 17.4944H40.8826V19.2123H44.923C44.7554 19.9174 44.3549 20.5463 43.7867 20.9955C43.2173 21.4452 42.5135 21.6903 41.7892 21.6903C41.3657 21.6903 40.9473 21.6071 40.5563 21.4452C40.166 21.2834 39.8103 21.046 39.5115 20.7472C39.2127 20.4478 38.9754 20.0927 38.8135 19.7024C38.6516 19.3115 38.5684 18.8924 38.5684 18.4695V17.2718C38.5684 16.8488 38.6516 16.4298 38.8135 16.0388C38.9754 15.6486 39.2127 15.2928 39.5115 14.994C39.8103 14.6952 40.166 14.4579 40.5563 14.296C40.9473 14.1341 41.3663 14.051 41.7892 14.051C42.47 14.051 43.1335 14.2666 43.6844 14.6671C44.2346 15.0683 44.6441 15.6332 44.8539 16.2807H46.6243C46.3965 15.1661 45.7906 14.1648 44.909 13.4457C44.0279 12.7253 42.9255 12.3324 41.7873 12.3324C40.4783 12.3324 39.223 12.8526 38.2978 13.7784C37.372 14.7036 36.8518 15.9589 36.8518 17.2673V18.4829C36.8518 19.131 36.9792 19.7728 37.2268 20.3716C37.475 20.9705 37.8384 21.515 38.2972 21.9737C38.7553 22.4318 39.2991 22.7952 39.898 23.0435C40.4968 23.2917 41.1392 23.4197 41.7873 23.4197H41.788C42.9876 23.421 44.1463 22.984 45.0452 22.1906V23.4191H46.7631V17.4944H45.0452V17.4951V17.4944ZM60.0936 16.7075H55.2086V12.518H53.4907V23.4197H55.2086V18.4247H60.0936V23.4197H61.8108V12.518H60.0936V16.7075ZM73.0548 12.518H71.3369V12.5205H67.6983V14.2378H71.3369V23.4191H73.0548V14.2384H76.6934V12.5205H73.0548V12.518ZM117.447 19.767L112.401 12.518H110.683V23.4197H112.401V16.2909L117.447 23.4197H119.165V12.518H117.447V19.767ZM130.143 12.5353L127.914 12.5436V12.518H126.197V23.4197H127.914V23.3941L130.143 23.4018C130.78 23.4043 131.411 23.2809 132.001 23.039C132.59 22.7965 133.125 22.4401 133.576 21.991C134.027 21.5412 134.386 21.007 134.63 20.4183C134.874 19.8297 135 19.1995 135 18.5629V17.3741C135 16.7375 134.874 16.1067 134.63 15.5187C134.386 14.9301 134.027 14.3958 133.576 13.946C133.125 13.4962 132.59 13.1399 132.001 12.898C131.411 12.6562 130.78 12.5327 130.143 12.5346V12.5353ZM133.282 17.9685C133.282 18.4548 133.187 18.9365 133.001 19.3863C132.814 19.8355 132.541 20.2437 132.198 20.5879C131.853 20.9315 131.445 21.2047 130.996 21.3909C130.546 21.5764 130.064 21.6724 129.578 21.6724H127.914V14.2653H129.578C130.064 14.2653 130.546 14.3613 130.996 14.5468C131.445 14.733 131.853 15.0056 132.198 15.3498C132.541 15.694 132.814 16.1022 133.001 16.5513C133.186 17.0005 133.282 17.4823 133.282 17.9685ZM84.3807 12.518H82.6629V23.4197H84.3807V23.4171H89.8716V21.6992H84.3807V12.518ZM23.0179 15.4675C23.0179 15.0798 22.9411 14.6959 22.7933 14.3376C22.6449 13.9793 22.4273 13.6536 22.1535 13.3798C21.879 13.1053 21.554 12.8878 21.1957 12.74C20.8374 12.5916 20.4535 12.5148 20.0658 12.5148H15.6959V12.518H14.6005V23.4197H16.3184V18.4196H18.5507L21.2034 23.4376H23.3909L20.7158 18.3466C21.3691 18.1995 21.9532 17.8335 22.3717 17.3102C22.7901 16.7874 23.0179 16.1374 23.0179 15.4675ZM16.3184 14.2327H20.0658C20.3927 14.2327 20.7069 14.3625 20.9385 14.5942C21.1701 14.8258 21.3 15.1399 21.3 15.4675C21.3 15.7944 21.1701 16.1086 20.9385 16.3402C20.7069 16.5718 20.3927 16.7017 20.0658 16.7017H16.3184V14.2327ZM7.13395 17.5066C7.65988 16.9583 7.95291 16.227 7.95291 15.4675C7.95291 14.6844 7.64132 13.9332 7.08789 13.3798C6.53381 12.8251 5.78268 12.5148 5.00019 12.5148H0.630289V12.518H7.62939e-05V23.4197H1.71797V23.4133L4.96564 23.4159C5.40583 23.4165 5.84218 23.3301 6.2491 23.1619C6.65602 22.9936 7.02583 22.7473 7.33741 22.4357C7.649 22.1247 7.89597 21.7549 8.06488 21.348C8.23379 20.9411 8.3208 20.5054 8.3208 20.0645C8.3208 19.5776 8.21459 19.0965 8.00985 18.6544C7.80512 18.2129 7.50568 17.8207 7.13332 17.5066H7.13395ZM6.23374 15.4675C6.23374 15.7944 6.10386 16.1086 5.87225 16.3402C5.64064 16.5718 5.32713 16.7017 4.99955 16.7017H1.71733V14.2327H4.99955C5.32713 14.2327 5.64064 14.3625 5.87225 14.5942C6.10386 14.8258 6.23374 15.1399 6.23374 15.4675ZM6.60163 20.0569C6.60163 20.4906 6.42888 20.9078 6.12242 21.2149C5.81531 21.522 5.39943 21.6941 4.96436 21.6941H1.71861V18.4196H4.965C5.17998 18.4196 5.39239 18.4618 5.59137 18.5443C5.78971 18.6262 5.97014 18.7472 6.12242 18.8994C6.27469 19.0511 6.39497 19.2321 6.47751 19.4305C6.55941 19.6288 6.60163 19.8419 6.60163 20.0569ZM98.0017 20.4113H102.23L103.439 23.3659H105.478L100.916 12.4694H99.4668L94.9043 23.3659H96.7828L98.0017 20.4113ZM99.9499 15.6895H100.299L101.528 18.6934H98.7106L99.9499 15.6902V15.6895ZM103.244 29.8453L101.507 33.9938H102.222L102.686 32.869H104.296L104.756 33.9938H105.532L103.795 29.8453H103.244ZM102.956 32.2152L103.427 31.0718H103.56L104.028 32.2152H102.956ZM97.5237 35.0162C97.2019 35.0162 96.8929 34.8883 96.6651 34.6605C96.4373 34.4327 96.3094 34.1237 96.3094 33.8019V33.3502C96.3094 33.061 96.413 32.7807 96.6005 32.5613C96.7886 32.3412 97.049 32.196 97.3343 32.1512C97.6203 32.1064 97.9127 32.164 98.159 32.3156C98.4054 32.4672 98.5896 32.7014 98.6786 32.9765H99.3465C99.2602 32.5568 99.0318 32.1793 98.6997 31.908C98.3676 31.6368 97.9518 31.489 97.5231 31.4883C97.0298 31.4883 96.5563 31.6848 96.2076 32.0335C95.8583 32.3821 95.6625 32.8556 95.6625 33.3489V33.807C95.6625 34.0514 95.7105 34.2933 95.8039 34.5191C95.8973 34.745 96.0342 34.9497 96.207 35.1231C96.3797 35.2958 96.5851 35.4328 96.811 35.5262C97.0368 35.6196 97.2787 35.6676 97.5231 35.6676H97.5237C97.9537 35.6676 98.3708 35.5185 98.7035 35.2453C99.0362 34.9727 99.264 34.5927 99.3484 34.1704H98.6805C98.6024 34.4161 98.4482 34.6304 98.2403 34.7821C98.0324 34.9343 97.7809 35.0162 97.5237 35.0162Z" fill="white"/>
</svg>