<svg xmlns:xlink="http://www.w3.org/1999/xlink" xmlns="http://www.w3.org/2000/svg" width="135" height="48" viewBox="0 0 135 48" fill="none">
<path d="M53.5436 28.2591C53.5436 30.6773 53.9012 34.219 51.6912 34.2669C49.5197 34.3367 49.7016 30.5822 49.7479 28.0953C49.7925 25.7713 49.5871 22.3943 51.6912 22.3699C53.6118 22.3464 53.5445 25.8899 53.5445 28.2591H53.5436ZM58.8709 28.1659C58.7774 24.3156 55.2981 21.5008 51.7594 21.5008C47.9864 21.5008 44.5351 24.2938 44.4215 28.1659C44.328 32.1548 47.8719 35.299 51.7821 35.2511C55.2588 35.2058 58.9618 32.3893 58.87 28.1659H58.8709ZM37.8695 28.2591C37.8695 30.6773 38.2358 34.219 36.0162 34.2669C33.8447 34.3367 34.0292 30.5822 34.0755 28.0953C34.1192 25.7713 33.9147 22.3943 36.0162 22.3699C37.9368 22.3464 37.8695 25.8899 37.8695 28.2591ZM43.1959 28.1659C43.105 24.3156 39.6231 21.5008 36.0861 21.5008C32.314 21.5008 28.861 24.2938 28.7465 28.1659C28.6556 32.1548 32.1995 35.299 36.1098 35.2511C39.5838 35.2058 43.2868 32.3893 43.1959 28.1659ZM81.3436 35.0706V12.6678C81.0009 12.8309 79.4912 13.7479 78.3477 14.2866C77.7358 14.5873 77.0583 14.916 76.3835 15.2158V35.0706H81.3436ZM86.2215 14.413C82.6741 14.413 82.6741 19.9004 86.2215 19.9004C89.769 19.9004 89.7716 14.413 86.2215 14.413ZM88.7392 35.0663V21.6534C88.3956 21.8164 86.9331 22.3464 85.767 22.8154C85.1594 23.0743 84.4513 23.3436 83.8018 23.5798V26.5558C83.8105 26.7572 83.8018 26.9629 83.8018 27.1512V34.973H83.7843V35.0663H88.7392ZM113.909 26.5105H110.228C110.228 26.5105 110.003 22.5111 112.104 22.5111C113.802 22.5111 113.889 24.2929 113.909 25.162V26.5096V26.5105ZM117.521 26.6291C117.521 23.3837 114.891 21.6185 112.104 21.6185C108.947 21.595 105.862 24.6215 105.769 28.7281C105.701 32.3631 108.788 35.2973 112.309 35.2973C113.319 35.3086 114.317 35.0715 115.22 34.606C116.122 34.1414 116.904 33.4606 117.498 32.622V31.3554C117.498 31.3554 116.913 32.4119 115.097 32.4119C110.192 32.4119 110.192 27.3665 110.192 27.3665H117.498L117.521 26.6291ZM104.769 34.1004C104.158 33.8529 104.002 33.0003 104.002 31.3502V25.6318C104.002 23.4316 102.082 21.8295 99.9331 21.69C98.3779 21.5941 97.3036 22.2287 96.182 23.3785L95.9075 23.6365V21.5985C95.5639 21.7815 92.0401 23.2634 91.3757 23.5633V27.1041C91.3932 27.3369 91.3757 27.5513 91.3757 27.7196V35.068H96.3358V25.9361C96.3358 24.9275 96.6558 23.6844 97.7984 23.6844C99.378 23.6844 99.149 25.8846 99.149 26.3118V31.3572C99.149 34.3436 100.221 35.0619 102.273 35.0619H105.737V34.2172C105.411 34.2286 105.084 34.1894 104.769 34.1004ZM132.529 34.1004C131.92 33.8529 131.763 33.0003 131.763 31.3502V25.6318C131.763 23.4316 129.842 21.8295 127.694 21.69C126.139 21.5941 125.064 22.2287 123.943 23.3785L123.669 23.6365V21.5985C123.325 21.7815 119.8 23.2634 119.137 23.5633V27.1041C119.156 27.3369 119.137 27.5513 119.137 27.7196V35.068H124.1V25.9361C124.1 24.9275 124.42 23.6844 125.562 23.6844C127.14 23.6844 126.911 25.8846 126.911 26.3118V31.3572C126.911 34.3436 127.983 35.0619 130.036 35.0619H133.501V34.2172C133.173 34.2286 132.845 34.1894 132.529 34.1004ZM75.3257 35.0706L70.6811 28.3524C73.3282 27.0083 73.6202 25.9143 73.6202 24.5997C73.6202 21.3343 70.14 21.235 68.7326 21.4938C67.4825 21.7231 66.0016 22.4614 65.3836 22.7918V12.6914C65.04 12.8744 63.5539 13.7915 62.3878 14.3563C61.7715 14.6701 61.0336 15.0058 60.3588 15.3065V35.0698H65.3888V28.9678L65.4832 29.1204L69.1609 35.0863L75.3257 35.0698V35.0706ZM68.7343 25.0766C68.5875 27.676 65.3853 27.9636 65.3853 27.9636V24.0523C65.9544 23.7402 66.2385 23.5023 66.791 23.3959C67.9948 23.1579 68.8165 23.599 68.7343 25.0774V25.0766ZM24.2777 35.1578L24.2541 25.8742C24.2541 24.8412 24.6649 24.1133 25.0548 24.1133C25.6493 24.0898 26.3355 25.3808 27.2717 25.311C27.7351 25.277 28.1695 25.0652 28.4869 24.7174C28.8051 24.3687 28.9834 23.9102 28.986 23.4334C28.986 22.3063 27.9571 21.4633 26.8609 21.4843C25.672 21.5087 24.7803 22.3063 24.1168 23.3401L23.9918 23.5232C23.6185 21.9715 22.622 21.5819 21.0336 21.5819H17.57V22.4274H17.7484C17.9538 22.4274 18.3428 22.5207 18.5491 22.5443C18.9722 22.6523 19.1978 23.212 19.2799 24.2144C19.2799 24.8159 19.2668 25.6039 19.2668 26.4495V35.1561L24.2777 35.1578ZM13.8067 21.6787C12.8119 21.4755 11.7838 21.5278 10.8135 21.8321C9.84399 22.1363 8.96281 22.6829 8.24948 23.4229V15.6299L8.2049 15.147C7.83686 13.5953 6.55181 13.2048 4.96429 13.2048H1.49902V14.0504H1.67736C1.88279 14.0504 2.27093 14.1436 2.47811 14.1672C2.88198 14.2718 3.10315 14.7887 3.19232 15.7075C3.19232 17.1231 3.12413 27.1774 3.12413 29.245C3.12501 33.3682 4.92845 35.3322 9.41564 35.3322C15.4108 35.3322 17.1775 31.9473 17.4826 28.8624C17.9127 24.5867 16.1818 22.1537 13.8067 21.6795V21.6787ZM9.65692 34.0769C8.13584 34.1301 8.25647 33.1729 8.25647 33.1729V24.5108C10.6657 22.872 12.6117 24.0471 12.6886 28.2068C12.7402 30.4323 12.1361 33.9984 9.65692 34.0769Z" fill="white"/>
</svg>