<svg xmlns:xlink="http://www.w3.org/1999/xlink" xmlns="http://www.w3.org/2000/svg" width="135" height="45" viewBox="0 0 135 45" fill="none">
<path d="M9.8125 31.1875L12.875 31.3125L13.125 33.5625L10.5625 32.5L10.4375 34.25L6.5625 31.4375L9.5625 32.25L9.8125 31.1875ZM122.25 31.3125L122 33.5625L124.625 32.4375L124.75 34.1875L128.625 31.375L125.625 32.1875L125.312 31.125L122.25 31.3125ZM13.5 29.125L13.375 29.9375C13.375 29.9375 13.5625 29.75 14 29.75H14.4375V32.9375C14.4375 33.375 14.1875 33.5625 14.1875 33.5625H15.9375C15.9375 33.5625 15.6875 33.375 15.6875 32.9375V29.75H16.125C16.5625 29.75 16.6875 29.9375 16.6875 29.9375L16.8125 29.125H13.5ZM18.75 31.6875V33C18.75 33.4375 19 33.625 19 33.625H17.25C17.25 33.625 17.5 33.4375 17.5 33V29.8125C17.5 29.375 17.25 29.1875 17.25 29.1875H19C19 29.1875 18.75 29.375 18.75 29.8125V31.0625H20V29.8125C20 29.375 19.75 29.1875 19.75 29.1875H21.5C21.5 29.1875 21.25 29.375 21.25 29.8125V33C21.25 33.4375 21.5 33.625 21.5 33.625H19.75C19.75 33.625 20 33.4375 20 33V31.6875H18.75ZM25.125 30.125C25.125 30.125 24.75 29.8125 24.1875 29.8125H23.4375V31H24.875L24.75 31.8125C24.75 31.8125 24.4375 31.625 23.875 31.625H23.4375V33H24.25C25 33 25.375 32.6875 25.375 32.6875L25.1875 33.625H22C22 33.625 22.25 33.4375 22.25 33V29.8125C22.25 29.375 22 29.1875 22 29.1875H25.1875V30.125H25.125ZM30.0625 33.625C29.375 33.625 28.75 33.1875 28.5625 32.5625L27.6875 29.8125C27.5625 29.375 27.25 29.1875 27.25 29.1875H29C29 29.1875 28.8125 29.375 28.9375 29.8125L29.6875 32.1875C29.6875 32.1875 30.1875 30.75 30.375 30.0625C30.5 29.75 30.375 29.4375 30.125 29.25H30.0625H31.5625L32.5625 32.25L33.3125 29.875C33.4375 29.4375 33.25 29.25 33.25 29.25H34.6875C34.6875 29.25 34.375 29.4375 34.25 29.875L33.1875 33.0625C33.0625 33.5 33.25 33.75 33.25 33.75H32.875C32.1875 33.75 31.5625 33.3125 31.375 32.6875L30.875 31.25L30.25 33.125C30.125 33.5625 30.3125 33.8125 30.3125 33.8125H30.0625V33.625ZM36.8125 33.625C35.75 33.625 34.5625 33.0625 34.5625 31.375C34.5625 29.6875 35.75 29.125 36.8125 29.125C37.875 29.125 39.0625 29.6875 39.0625 31.375C39.0625 33.0625 37.875 33.625 36.8125 33.625ZM35.8125 31.4375C35.875 32.5 36.3125 33 36.875 33H36.9375C37.5 32.9375 37.875 32.375 37.8125 31.25C37.75 30.1875 37.3125 29.6875 36.75 29.6875H36.6875C36.0625 29.75 35.6875 30.3125 35.8125 31.4375ZM40.9375 32.9375C40.9375 33.375 41.1875 33.5625 41.1875 33.5625H39.4375C39.4375 33.5625 39.6875 33.375 39.6875 32.9375V29.75C39.6875 29.3125 39.4375 29.125 39.4375 29.125H42C42.625 29.125 43.1875 29.625 43.1875 30.3125C43.1875 31.3125 42.1875 31.4375 42.1875 31.4375L43.125 32.9375C43.4375 33.375 43.75 33.5625 43.75 33.5625C43.75 33.5625 43.375 33.625 42.75 33.625C42.125 33.625 41.8125 33.375 41.625 32.9375L41 31.75L40.9375 32.9375ZM40.9375 29.75V31.3125L41.25 31.25C41.6875 31.125 41.9375 30.75 41.9375 30.3125C41.9375 30 41.6875 29.75 41.375 29.75H40.9375ZM47.25 32.625L47.0625 33.5625H44C44 33.5625 44.25 33.375 44.25 32.9375V29.75C44.25 29.3125 44 29.125 44 29.125H45.75C45.75 29.125 45.5 29.3125 45.5 29.75V32.9375H46.125C46.875 32.9375 47.25 32.625 47.25 32.625ZM47.5625 33.5625C47.5625 33.5625 47.8125 33.375 47.8125 32.9375V29.75C47.8125 29.3125 47.5625 29.125 47.5625 29.125H49.4375C50.625 29.125 51.625 30.125 51.625 31.3125C51.625 32.5 50.625 33.5 49.4375 33.5H47.5625V33.5625ZM49.3125 29.75H49.125V32.875H49.3125C49.9375 32.875 50.375 32.5625 50.375 31.3125C50.375 30.0625 49.875 29.75 49.3125 29.75ZM52.625 28.9375C53.5 29.8125 52.9375 30.75 52.4375 31.0625L52.1875 30.8125C52.5 30.5625 52.4375 30 51.9375 29.5L52.625 28.9375ZM55.625 32.5C55.625 31.625 53.5 31.6875 53.5 30.25C53.5 29.5 54.25 29.0625 55.1875 29.0625C55.9375 29.0625 56.5625 29.25 56.5625 29.25V30.375C56.5625 30.375 56.125 29.6875 55.3125 29.6875C55 29.6875 54.6875 29.875 54.6875 30.125C54.6875 30.8125 56.8125 30.625 56.8125 32.3125C56.8125 33.0625 56.125 33.5625 54.8125 33.5625C54.0625 33.5625 53.5625 33.375 53.5625 33.375L53.5 32.25C53.5 32.25 54.125 32.9375 55 32.9375C55.375 33 55.625 32.75 55.625 32.5ZM61.25 32.5C61.25 31.625 59.125 31.6875 59.125 30.25C59.125 29.5 59.875 29.0625 60.8125 29.0625C61.5625 29.0625 62.1875 29.25 62.1875 29.25V30.375C62.1875 30.375 61.75 29.6875 60.9375 29.6875C60.625 29.6875 60.3125 29.875 60.3125 30.125C60.3125 30.8125 62.4375 30.625 62.4375 32.3125C62.4375 33.0625 61.75 33.5625 60.4375 33.5625C59.6875 33.5625 59.1875 33.375 59.1875 33.375L59.125 32.25C59.125 32.25 59.75 32.9375 60.625 32.9375C61 33 61.25 32.75 61.25 32.5ZM66.1875 29.125L66.0625 29.9375C66.0625 29.9375 65.9375 29.75 65.5 29.75H65.0625V32.9375C65.0625 33.375 65.3125 33.5625 65.3125 33.5625H63.5625C63.5625 33.5625 63.8125 33.375 63.8125 32.9375V29.75H63.375C62.9375 29.75 62.75 29.9375 62.75 29.9375L62.875 29.125H66.1875ZM68 32.9375C68 33.375 68.25 33.5625 68.25 33.5625H66.5C66.5 33.5625 66.75 33.375 66.75 32.9375V29.75C66.75 29.3125 66.5 29.125 66.5 29.125H69.0625C69.6875 29.125 70.25 29.625 70.25 30.3125C70.25 31.3125 69.25 31.4375 69.25 31.4375L70.1875 32.9375C70.5 33.375 70.8125 33.5625 70.8125 33.5625C70.8125 33.5625 70.4375 33.625 69.8125 33.625C69.1875 33.625 68.875 33.375 68.6875 32.9375L68.0625 31.75L68 32.9375ZM68 29.75V31.3125L68.3125 31.1875C68.75 31.0625 69 30.6875 69 30.25C69 29.9375 68.75 29.6875 68.4375 29.6875L68 29.75ZM72.9375 33.625C71.875 33.625 70.6875 33.0625 70.6875 31.375C70.6875 29.6875 71.875 29.125 72.9375 29.125C74 29.125 75.1875 29.6875 75.1875 31.375C75.1875 33.0625 74 33.625 72.9375 33.625ZM71.9375 31.4375C72 32.5 72.4375 33 73 33H73.0625C73.625 32.9375 74 32.375 73.9375 31.25C73.875 30.1875 73.4375 29.6875 72.875 29.6875H72.8125C72.25 29.75 71.875 30.3125 71.9375 31.4375ZM78.8125 32.0625V29.75C78.8125 29.3125 78.5625 29.125 78.5625 29.125H79.875C79.875 29.125 79.625 29.3125 79.625 29.75V33.625H79.375C78.625 33.625 77.9375 33.1875 77.625 32.5625L76.625 30.6875V32.9375C76.625 33.375 76.875 33.5625 76.875 33.5625H75.5625C75.5625 33.5625 75.8125 33.375 75.8125 32.9375V29.75C75.8125 29.3125 75.5625 29.125 75.5625 29.125H77.25L78.8125 32.0625ZM84.3125 31.25V32.5625C84.3125 33.25 84.4375 33.5 84.4375 33.5C84.4375 33.5 83.4375 33.6875 82.625 33.6875C81.5625 33.6875 80.25 33.125 80.25 31.4375C80.25 29.75 81.625 29.1875 82.5625 29.1875C83.375 29.1875 84.0625 29.375 84.0625 29.375V30.5C84.0625 30.5 83.375 29.8125 82.625 29.8125C82.1875 29.8125 81.5 30.0625 81.5 31.4375C81.5 32.8125 82.375 33.0625 82.75 33.0625C82.875 33.0625 82.9375 33.0625 83.0625 33.0625V31.9375C83.0625 31.5 82.8125 31.3125 82.8125 31.3125L84.3125 31.25ZM88.1875 30.125C88.1875 30.125 87.8125 29.8125 87.25 29.8125H86.5V31H87.9375L87.8125 31.8125C87.8125 31.8125 87.5 31.625 86.9375 31.625H86.5V33H87.3125C88.0625 33 88.4375 32.6875 88.4375 32.6875L88.25 33.625H85C85 33.625 85.25 33.4375 85.25 33V29.8125C85.25 29.375 85 29.1875 85 29.1875H88.1875V30.125ZM91.0625 32.5C91.0625 31.625 88.9375 31.6875 88.9375 30.25C88.9375 29.5 89.6875 29.0625 90.625 29.0625C91.375 29.0625 92 29.25 92 29.25V30.375C92 30.375 91.5625 29.6875 90.75 29.6875C90.4375 29.6875 90.125 29.875 90.125 30.125C90.125 30.8125 92.25 30.625 92.25 32.3125C92.25 33.0625 91.5625 33.5625 90.25 33.5625C89.5 33.5625 89 33.375 89 33.375L88.9375 32.25C88.9375 32.25 89.5625 32.9375 90.4375 32.9375C90.8125 33 91.0625 32.75 91.0625 32.5ZM96 29.125L95.875 29.9375C95.875 29.9375 95.75 29.75 95.3125 29.75H94.875V32.9375C94.875 33.375 95.125 33.5625 95.125 33.5625H93.375C93.375 33.5625 93.625 33.375 93.625 32.9375V29.75H93.1875C92.75 29.75 92.5625 29.9375 92.5625 29.9375L92.6875 29.125H96ZM101.25 30.375C101.25 30.375 100.75 29.6875 100 29.6875C99.5625 29.6875 98.875 29.9375 98.875 31.3125C98.875 32.6875 99.6875 32.9375 100 32.9375C101 32.9375 101.562 32.25 101.562 32.25L101.5 33.375C101.5 33.375 100.75 33.5625 100 33.5625C98.9375 33.5625 97.625 33 97.625 31.3125C97.625 29.625 99 29.0625 99.875 29.0625C100.688 29.0625 101.187 29.25 101.187 29.25L101.25 30.375ZM104.187 33.625C103.125 33.625 101.938 33.0625 101.938 31.375C101.938 29.6875 103.125 29.125 104.187 29.125C105.25 29.125 106.438 29.6875 106.438 31.375C106.438 33.0625 105.25 33.625 104.187 33.625ZM103.188 31.4375C103.25 32.5 103.688 33 104.25 33H104.312C104.875 32.9375 105.25 32.375 105.188 31.25C105.125 30.1875 104.688 29.6875 104.125 29.6875H104.062C103.5 29.75 103.062 30.3125 103.188 31.4375ZM110 30.125C110 30.125 109.625 29.8125 109.062 29.8125H108.312V31H109.75L109.625 31.8125C109.625 31.8125 109.312 31.625 108.75 31.625H108.312V33C108.312 33.4375 108.562 33.625 108.562 33.625H106.812C106.812 33.625 107.062 33.4375 107.062 33V29.8125C107.062 29.375 106.812 29.1875 106.812 29.1875H110V30.125ZM113.562 30.125C113.562 30.125 113.187 29.8125 112.625 29.8125H111.875V31H113.312L113.188 31.8125C113.188 31.8125 112.875 31.625 112.312 31.625H111.875V33C111.875 33.4375 112.125 33.625 112.125 33.625H110.375C110.375 33.625 110.625 33.4375 110.625 33V29.8125C110.625 29.375 110.375 29.1875 110.375 29.1875H113.562V30.125ZM117.188 30.125C117.188 30.125 116.812 29.8125 116.25 29.8125H115.5V31H116.938L116.812 31.8125C116.812 31.8125 116.5 31.625 115.938 31.625H115.5V33H116.312C117.062 33 117.437 32.6875 117.437 32.6875L117.25 33.625H114C114 33.625 114.25 33.4375 114.25 33V29.8125C114.25 29.375 114 29.1875 114 29.1875H117.188V30.125ZM120.875 30.125C120.875 30.125 120.5 29.8125 119.937 29.8125H119.187V31H120.625L120.5 31.8125C120.5 31.8125 120.187 31.625 119.625 31.625H119.187V33H120C120.75 33 121.125 32.6875 121.125 32.6875L120.938 33.625H117.688C117.688 33.625 117.937 33.4375 117.937 33V29.8125C117.937 29.375 117.688 29.1875 117.688 29.1875H120.875V30.125ZM122.375 29C122.875 29 123.25 29.375 123.25 29.875C123.25 30.375 122.875 30.75 122.375 30.75C121.875 30.75 121.5 30.375 121.5 29.875C121.5 29.375 121.875 29 122.375 29ZM122.375 30.5625C122.75 30.5625 123.062 30.25 123.062 29.875C123.062 29.5 122.75 29.1875 122.375 29.1875C122 29.1875 121.687 29.5 121.687 29.875C121.687 30.25 122 30.5625 122.375 30.5625ZM121.938 29.375H122.5C122.625 29.375 122.75 29.5 122.75 29.625C122.75 29.75 122.688 29.8125 122.562 29.875L122.75 30.1875C122.812 30.25 122.875 30.3125 122.875 30.3125H122.688C122.562 30.3125 122.5 30.25 122.437 30.1875L122.312 29.9375V30.1875C122.312 30.25 122.375 30.3125 122.375 30.3125H122C122 30.3125 122.062 30.25 122.062 30.1875V29.5C122 29.4375 121.938 29.375 121.938 29.375ZM122.312 29.875H122.375C122.438 29.875 122.5 29.75 122.5 29.6875C122.5 29.625 122.438 29.5625 122.375 29.5625H122.25V29.875H122.312ZM72.875 21.625C72.875 21.5625 72.875 21.4375 72.8125 21.375C72.6875 21.125 72.6875 20.9375 72.8125 20.6875C72.875 20.5625 72.875 20.375 72.75 20.1875C72.6875 20.125 72.5625 20.0625 72.375 20.0625C72.1875 20.0625 71.9375 20.125 71.8125 20.1875C71.6875 20.25 71.625 20.4375 71.5625 20.625C71.5 20.75 71.5 20.875 71.4375 20.9375C71.3125 21.125 70.875 21.3125 70.875 21.3125C70.875 21.3125 68.625 22.3125 68.125 22.5625C68.0625 22.625 67.75 22.75 67.4375 22.9375C66.875 22.6875 66.375 22.4375 66.0625 22.3125C65.5 22 65 21.75 64.6875 21.5625C64.4375 21.375 64.125 21.1875 64.125 21.1875C64.125 21.1875 63.9375 20.75 63.8125 20.5625C63.75 20.4375 63.375 20.375 63.125 20.375C62.875 20.375 62.4375 20.5 62.4375 20.6875C62.4375 20.8125 62.5 21 62.5 21.125C62.5625 21.25 62.625 21.4375 62.5625 21.5625C62.5 21.8125 62.625 22.0625 62.75 22.1875C62.8125 22.1875 62.875 22.1875 62.9375 22.1875C63.0625 22.1875 63.1875 22.1875 63.375 22.125C63.5 22.125 63.625 22.0625 63.75 22.0625C64 22.0625 64.5625 22.3125 65.1875 22.625C65.25 22.6875 65.3125 22.6875 65.375 22.75L65.625 22.875C65.9375 23 66.3125 23.1875 66.6875 23.375C65.75 23.8125 64.75 24.375 64.5 24.375C64.375 24.375 64.3125 24.375 64.1875 24.375C64.125 24.375 64.0625 24.375 64.0625 24.375C64.0625 24.375 64 24.375 63.9375 24.375C63.75 24.375 63.625 24.375 63.4375 24.4375C63.25 24.5 63.25 24.625 63.25 24.875C63.25 24.9375 63.25 24.9375 63.25 25C63.25 25.0625 63.3125 25.0625 63.5 25.125C63.5625 25.125 63.6875 25.1875 63.75 25.25C63.875 25.375 63.75 25.5625 63.75 25.625V25.6875C63.8125 25.75 64 25.8125 64.1875 25.9375H64.25C64.375 25.9375 64.5 25.8125 64.5625 25.75C64.625 25.6875 64.6875 25.5625 64.75 25.4375C64.8125 25.3125 64.875 25.1875 65 25.125C65.125 24.9375 65.5 24.8125 65.8125 24.6875C65.9375 24.625 66.0625 24.5625 66.1875 24.5625C66.375 24.5 67 24.1875 67.625 23.875C67.75 23.9375 68 24.0625 68.1875 24.125C69.3125 24.625 70.3125 25.125 70.5625 25.3125C70.75 25.4375 70.875 25.625 70.9375 25.8125C71 25.9375 71.0625 26.0625 71.125 26.125C71.1875 26.1875 71.3125 26.1875 71.4375 26.1875C71.625 26.1875 71.8125 26.125 71.875 26.125C71.875 26.125 71.875 26.0625 71.875 25.9375C71.875 25.8125 71.875 25.6875 71.9375 25.625C72 25.5625 72.125 25.5625 72.1875 25.5C72.375 25.4375 72.5 25.4375 72.5 25.375C72.5 25.125 72.3125 24.9375 72.125 24.875C72.0625 24.875 72 24.875 71.9375 24.875C71.875 24.875 71.75 24.875 71.625 24.875C71.5 24.875 71.375 24.875 71.25 24.875C70.9375 24.875 70.1875 24.5 69.125 23.9375C69 23.875 68.875 23.8125 68.75 23.75C68.625 23.6875 68.5 23.625 68.3125 23.5625C68.75 23.375 69 23.25 69 23.1875C69.25 23.0625 71.4375 22.125 71.8125 22.0625C71.875 22.0625 71.875 22.0625 71.9375 22.0625C72.0625 22.0625 72.1875 22.0625 72.25 22.0625C72.3125 22.0625 72.4375 22.0625 72.5 22.0625C72.625 22.0625 72.6875 22.0625 72.8125 22C72.8125 21.75 72.875 21.6875 72.875 21.625ZM70.8125 18.1875C70.875 18.125 71.25 17.5 71.0625 17.3125C71 17.1875 70.6875 16.875 70.6875 16.875C70.6875 16.875 70.9375 14.8125 70.9375 14.375C70.9375 14.0625 70.8125 13.625 70.625 13.25C70.3125 12.5625 69.5625 11.8125 68.8125 11.5C68.5 11.375 68.125 11.375 67.4375 11.3125C66.625 11.3125 66 11.5 65.625 11.6875C65.0625 11.9375 64.6875 12.3125 64.375 12.875C64 13.4375 63.875 13.875 63.875 14.4375C63.875 15 64.1875 17 64.1875 17C64.1875 17 63.8125 17.3125 63.75 17.5C63.6875 17.6875 64 18.25 64.0625 18.375C64.125 18.4375 64.5 18.875 64.6875 18.875C64.8125 18.875 65.3125 18.625 65.4375 18.625C65.5625 18.625 65.6875 19.0625 65.6875 19.3125C65.6875 19.5 65.8125 20.5 65.8125 20.5625C65.8125 20.5625 65.9375 20.625 66 20.625V20.375L66.0625 19.875L66.125 20.3125L66.1875 20.625H66.25C66.25 20.625 66.3125 20.625 66.375 20.625V20.375L66.4375 19.8125L66.5 20.4375V20.625H66.5625C66.625 20.625 66.625 20.625 66.75 20.625V20.25L66.8125 19.8125L66.875 20.3125L66.9375 20.625C67 20.625 67.0625 20.625 67.125 20.625H67.1875V20.3125L67.25 19.8125L67.3125 20.375L67.375 20.625C67.4375 20.625 67.5 20.625 67.5625 20.625C67.625 20.625 67.625 20.625 67.625 20.625V20.3125L67.6875 19.8125L67.8125 20.4375V20.625C67.9375 20.625 68 20.625 68.0625 20.625H68.125V20.375L68.1875 19.8125L68.25 20.375L68.3125 20.5625C68.375 20.5625 68.4375 20.5625 68.5 20.5625V20.3125L68.5625 19.8125L68.625 20.25V20.5C68.75 20.5 68.8125 20.4375 68.8125 20.4375C68.8125 20.375 68.875 20.0625 68.875 20.0625C68.875 20.0625 69 18.5625 69.1875 18.5625C69.3125 18.5 69.8125 18.8125 69.9375 18.8125C70.375 18.75 70.8125 18.25 70.8125 18.1875ZM67.0625 16.125C67.1875 16.5 66.4375 17.125 65.9375 17.3125C65.5625 17.4375 65.0625 17.25 64.8125 17.0625C64.5625 16.8125 64.375 16.3125 64.4375 16.0625C64.5 15.875 64.5625 15.6875 64.75 15.6875C65.0625 15.625 67 15.875 67.0625 16.125ZM68 17.875C68 17.9375 68.125 18.3125 68.125 18.4375C68.125 18.5625 67.875 18.6875 67.8125 18.6875C67.75 18.6875 67.625 18.5625 67.625 18.5C67.5625 18.25 67.5625 17.875 67.5 17.9375C67.4375 18 67.4375 18.3125 67.4375 18.5C67.4375 18.625 67.3125 18.75 67.25 18.6875C67.1875 18.6875 66.9375 18.5 66.875 18.3125C66.875 18.1875 67 17.9375 67 17.875C67 17.8125 67.25 17.375 67.25 17.3125C67.3125 17.25 67.375 17.1875 67.375 17.1875L67.5 17.25C67.5 17.25 67.625 17.1875 67.625 17.125C67.6875 17.125 67.6875 17.125 67.75 17.1875C67.8125 17.375 67.9375 17.75 68 17.875ZM70.4375 16.125C70.5 16.375 70.3125 16.875 70.0625 17.125C69.875 17.3125 69.3125 17.5 68.9375 17.375C68.4375 17.1875 67.6875 16.5625 67.8125 16.1875C67.875 15.9375 69.8125 15.6875 70.0625 15.8125C70.3125 15.75 70.375 15.875 70.4375 16.125ZM81.375 17.5625C81.375 17.5625 80.5625 16.5 79.4375 16.5C78.75 16.5 77.625 16.875 77.625 19.0625C77.625 21.25 78.875 21.625 79.5 21.625C81.0625 21.625 82 20.5625 82 20.5625L81.875 22.3125C81.875 22.3125 80.6875 22.625 79.4375 22.625C77.8125 22.625 75.6875 21.75 75.6875 19.125C75.6875 16.4375 77.9375 15.5625 79.25 15.5625C80.5 15.5625 81.375 15.875 81.375 15.875V17.5625ZM86.1875 22.5625C87.875 22.5625 89.75 21.6875 89.75 19.0625C89.75 16.375 87.875 15.5 86.1875 15.5C84.5 15.5 82.625 16.375 82.625 19.0625C82.625 21.6875 84.5 22.5625 86.1875 22.5625ZM84.5625 19.1875C84.4375 17.4375 85 16.5625 85.9375 16.5C86 16.5 86 16.5 86.0625 16.5C86.9375 16.5 87.625 17.25 87.75 18.9375C87.875 20.6875 87.3125 21.5625 86.375 21.625C86.3125 21.625 86.3125 21.625 86.25 21.625C85.4375 21.625 84.75 20.875 84.5625 19.1875ZM95.625 17.125C95.625 17.125 95 16.625 94.125 16.625H92.9375V18.4375H95.1875L95.0625 19.6875C95.0625 19.6875 94.5625 19.4375 93.6875 19.4375H92.9375V21.5625C92.9375 22.25 93.3125 22.5 93.3125 22.5H90.5625C90.5625 22.5 90.9375 22.25 90.9375 21.5625V16.625C90.9375 15.9375 90.5625 15.6875 90.5625 15.6875H95.625V17.125ZM101.687 17.125C101.687 17.125 101.062 16.625 100.188 16.625H99V18.4375H101.25L101.125 19.6875C101.125 19.6875 100.625 19.4375 99.75 19.4375H99V21.5625C99 22.25 99.375 22.5 99.375 22.5H96.625C96.625 22.5 97 22.25 97 21.5625V16.625C97 15.9375 96.625 15.6875 96.625 15.6875H101.687V17.125ZM107.688 17.125C107.688 17.125 107.062 16.625 106.187 16.625H105V18.4375H107.25L107.125 19.6875C107.125 19.6875 106.625 19.4375 105.75 19.4375H105V21.5625H106.312C107.5 21.5625 108.062 21.0625 108.062 21.0625L107.812 22.5625H102.625C102.625 22.5625 103.062 22.3125 103.062 21.625V16.6875C103.062 16 102.625 15.75 102.625 15.75H107.688V17.125ZM113.812 17.125C113.812 17.125 113.187 16.625 112.312 16.625H111.125V18.4375H113.375L113.25 19.6875C113.25 19.6875 112.75 19.4375 111.875 19.4375H111.125V21.5625H112.437C113.625 21.5625 114.187 21.0625 114.187 21.0625L113.938 22.5625H108.75C108.75 22.5625 109.187 22.3125 109.187 21.625V16.6875C109.187 16 108.75 15.75 108.75 15.75H113.812V17.125ZM122.75 17.5625C122.75 17.5625 121.938 16.5 120.812 16.5C120.125 16.5 119 16.875 119 19.0625C119 21.25 120.25 21.625 120.875 21.625C122.437 21.625 123.375 20.5625 123.375 20.5625L123.25 22.3125C123.25 22.3125 122.062 22.625 120.812 22.625C119.188 22.625 117.062 21.75 117.062 19.125C117.062 16.4375 119.312 15.5625 120.625 15.5625C121.875 15.5625 122.75 15.875 122.75 15.875V17.5625ZM127.75 22.5625C129.438 22.5625 131.312 21.6875 131.312 19.0625C131.312 16.375 129.438 15.5 127.75 15.5C126.062 15.5 124.187 16.375 124.187 19.0625C124.187 21.6875 126.062 22.5625 127.75 22.5625ZM126.125 19.1875C126 17.4375 126.562 16.5625 127.5 16.5C127.562 16.5 127.562 16.5 127.625 16.5C128.5 16.5 129.187 17.25 129.312 18.9375C129.438 20.6875 128.875 21.5625 127.937 21.625C127.875 21.625 127.875 21.625 127.812 21.625C126.938 21.625 126.25 20.875 126.125 19.1875ZM133.438 20.6875C134 20.6875 134.438 21.125 134.438 21.625C134.438 22.1875 134 22.5625 133.438 22.5625C132.875 22.5625 132.438 22.125 132.438 21.625C132.438 21.0625 132.875 20.6875 133.438 20.6875ZM3.5625 22.5C5.375 22.5 6.875 20.9375 6.875 19.0625C6.875 17.1875 5.375 15.625 3.5625 15.625H0.6875C0.6875 15.625 1.0625 15.875 1.0625 16.5625V21.5C1.0625 22.1875 0.6875 22.4375 0.6875 22.4375L3.5625 22.5ZM3.3125 16.5625C4.1875 16.5625 4.9375 17.0625 4.9375 19C4.9375 20.9375 4.1875 21.4375 3.3125 21.4375H2.9375V16.5625H3.3125ZM12.125 17.125C12.125 17.125 11.5625 16.625 10.6875 16.625H9.5625V18.4375H11.75L11.625 19.6875C11.625 19.6875 11.1875 19.4375 10.3125 19.4375H9.625V21.5625H10.875C12 21.5625 12.5625 21.0625 12.5625 21.0625L12.1875 22.5H7.3125C7.3125 22.5 7.6875 22.25 7.6875 21.5625V16.625C7.6875 15.9375 7.3125 15.6875 7.3125 15.6875H12.125V17.125ZM17.3125 16.625C17.125 16.0625 16.625 15.625 16 15.625H14.9375C14.9375 15.625 15.25 15.875 15 16.5625L13.4375 21.5C13.25 22.1875 12.75 22.4375 12.75 22.4375H14.75C14.75 22.4375 14.4375 22.1875 14.6875 21.5L14.8125 21H16.875L17 21.5C17.25 22.1875 16.9375 22.4375 16.9375 22.4375H19.5625C19.5625 22.4375 19.125 22.1875 18.875 21.5L17.3125 16.625ZM15.8125 17.375L16.5625 20H15.0625L15.8125 17.375ZM24 15.625L23.8125 16.875C23.8125 16.875 23.625 16.5625 22.9375 16.5625H22.3125V21.5C22.3125 22.1875 22.6875 22.4375 22.6875 22.4375H20.0625C20.0625 22.4375 20.4375 22.1875 20.4375 21.5V16.5625H19.75C19.0625 16.5625 18.75 16.875 18.75 16.875L18.9375 15.625H24ZM26.6875 19.5V21.5C26.6875 22.1875 27.0625 22.4375 27.0625 22.4375H24.4375C24.4375 22.4375 24.8125 22.1875 24.8125 21.5V16.5625C24.8125 15.875 24.4375 15.625 24.4375 15.625H27.0625C27.0625 15.625 26.6875 15.875 26.6875 16.5625V18.5625H28.625V16.5625C28.625 15.875 28.25 15.625 28.25 15.625H30.875C30.875 15.625 30.5 15.875 30.5 16.5625V21.5C30.5 22.1875 30.875 22.4375 30.875 22.4375H28.25C28.25 22.4375 28.625 22.1875 28.625 21.5V19.5C28.6875 19.5 26.6875 19.5 26.6875 19.5ZM36.9375 22.5625C35.9375 22.5625 35.0625 21.875 34.75 20.875L33.4375 16.5625C33.25 15.875 32.75 15.625 32.75 15.625H35.3125C35.3125 15.625 35 15.875 35.25 16.5625L36.375 20.25C36.375 20.25 37.0625 18 37.375 16.9375C37.5 16.4375 37.375 15.9375 37 15.6875C36.9375 15.6875 36.9375 15.625 36.9375 15.625H39.125L40.5625 20.25L41.6875 16.5625C41.875 15.875 41.625 15.625 41.625 15.625H43.75C43.75 15.625 43.3125 15.875 43.0625 16.5625L41.5 21.5C41.3125 22.1875 41.625 22.5625 41.625 22.5625H41.125C40.125 22.5625 39.25 21.875 38.9375 20.875L38.25 18.625L37.375 21.5C37.1875 22.1875 37.5 22.5625 37.5 22.5625H36.9375ZM46.625 15.625C46.625 15.625 46.25 15.875 46.25 16.5625V21.5C46.25 22.1875 46.625 22.4375 46.625 22.4375H44C44 22.4375 44.375 22.1875 44.375 21.5V16.5625C44.375 15.875 44 15.625 44 15.625H46.625ZM50.375 20.875C50.375 19.5 47.1875 19.625 47.1875 17.3125C47.1875 16.1875 48.3125 15.5 49.75 15.5C50.875 15.5 51.8125 15.8125 51.8125 15.8125V17.5625C51.8125 17.5625 51.125 16.5 49.9375 16.5C49.4375 16.5 49.0625 16.8125 49.0625 17.1875C49.0625 18.25 52.25 18 52.25 20.625C52.25 21.8125 51.1875 22.5625 49.1875 22.5625C48 22.5625 47.25 22.25 47.25 22.25L47.1875 20.5C47.1875 20.5 48.125 21.5625 49.4375 21.5625C49.9375 21.5625 50.375 21.25 50.375 20.875ZM55 19.5V21.5C55 22.1875 55.375 22.4375 55.375 22.4375H52.75C52.75 22.4375 53.125 22.1875 53.125 21.5V16.5625C53.125 15.875 52.75 15.625 52.75 15.625H55.375C55.375 15.625 55 15.875 55 16.5625V18.5625H56.9375V16.5625C56.9375 15.875 56.5625 15.625 56.5625 15.625H59.1875C59.1875 15.625 58.8125 15.875 58.8125 16.5625V21.5C58.8125 22.1875 59.1875 22.4375 59.1875 22.4375H56.5625C56.5625 22.4375 56.9375 22.1875 56.9375 21.5V19.5H55Z" fill="white"/>
</svg>