<svg width="164" height="28" viewBox="0 0 164 28" fill="none" xmlns="http://www.w3.org/2000/svg">
<path d="M11.1434 24.2648L14.8832 24.4176L15.1888 27.1655L12.0584 25.868L11.9065 28.0046L7.17394 24.5704L10.8378 25.5623L11.1434 24.2657V24.2648ZM148.446 24.4176L148.14 27.1655L151.345 25.792L151.498 27.9286L156.23 24.4936L152.567 25.4864L152.185 24.1889L148.446 24.4176ZM15.6454 21.7466L15.4935 22.7385C15.4935 22.7385 15.7223 22.5098 16.2567 22.5098H16.791V26.4023C16.791 26.9367 16.4854 27.1655 16.4854 27.1655H18.623C18.623 27.1655 18.3173 26.9367 18.3173 26.4023V22.5098H18.8517C19.3861 22.5098 19.5389 22.7385 19.5389 22.7385L19.6908 21.7466H15.6454ZM22.0571 24.8761V26.4783C22.0571 27.0127 22.3627 27.2414 22.3627 27.2414H20.2252C20.2252 27.2414 20.5308 27.0127 20.5308 26.4783V22.5857C20.5308 22.0513 20.2252 21.8226 20.2252 21.8226H22.3627C22.3627 21.8226 22.0571 22.0513 22.0571 22.5857V24.112H23.5834V22.5857C23.5834 22.0513 23.2778 21.8226 23.2778 21.8226H25.4153C25.4153 21.8226 25.1097 22.0513 25.1097 22.5857V26.4783C25.1097 27.0127 25.4153 27.2414 25.4153 27.2414H23.2778C23.2778 27.2414 23.5834 27.0127 23.5834 26.4783V24.8761H22.0571ZM29.8414 22.9682C29.8414 22.9682 29.3839 22.5857 28.6967 22.5857H27.7816V24.036H29.5367L29.3839 25.0279C29.3839 25.0279 29.0023 24.7992 28.3151 24.7992H27.7816V26.4783H28.7726C29.6895 26.4783 30.147 26.0967 30.147 26.0967L29.9183 27.2414H26.0257C26.0257 27.2414 26.3313 27.0127 26.3313 26.4783V22.5857C26.3313 22.0513 26.0257 21.8226 26.0257 21.8226H29.9183V22.9673L29.8414 22.9682ZM35.8706 27.2414C35.0315 27.2414 34.2684 26.7071 34.0396 25.9448L32.9708 22.5857C32.818 22.0513 32.4365 21.8226 32.4365 21.8226H34.574C34.574 21.8226 34.3452 22.0513 34.4971 22.5857L35.414 25.4864C35.414 25.4864 36.0243 23.7313 36.2531 22.8913C36.4059 22.5098 36.2531 22.1282 35.9475 21.8994H35.8715H37.7025L38.9241 25.5623L39.8401 22.6626C39.9929 22.1282 39.7632 21.8994 39.7632 21.8994H41.5192C41.5192 21.8994 41.1376 22.1282 40.9848 22.6626L39.6882 26.5552C39.5344 27.0886 39.7632 27.3943 39.7632 27.3943H39.3057C38.4666 27.3943 37.7035 26.8599 37.4738 26.0976L36.8634 24.3417L36.1003 26.6311C35.9475 27.1655 36.1762 27.4702 36.1762 27.4702H35.8706V27.2414ZM44.1133 27.2414C42.8167 27.2414 41.3664 26.5542 41.3664 24.4936C41.3664 22.4338 42.8167 21.7466 44.1142 21.7466C45.4108 21.7466 46.8612 22.4338 46.8612 24.4936C46.8612 26.5542 45.4108 27.2414 44.1133 27.2414ZM42.8927 24.5704C42.9695 25.867 43.5039 26.4783 44.1902 26.4783H44.2671C44.9533 26.4023 45.4118 25.7151 45.3349 24.3417C45.259 23.0441 44.7246 22.4338 44.0383 22.4338H43.9614C43.1983 22.5098 42.7398 23.197 42.8927 24.5704ZM49.1516 26.4023C49.1516 26.9367 49.4572 27.1655 49.4572 27.1655H47.3196C47.3196 27.1655 47.6253 26.9367 47.6253 26.4023V22.5098C47.6253 21.9754 47.3196 21.7466 47.3196 21.7466H50.4482C51.2122 21.7466 51.8985 22.3579 51.8985 23.197C51.8985 24.4176 50.6778 24.5704 50.6778 24.5704L51.8226 26.4023C52.2041 26.9367 52.5857 27.1655 52.5857 27.1655C52.5857 27.1655 52.1273 27.2414 51.3641 27.2414C50.601 27.2414 50.2194 26.9358 49.9906 26.4023L49.2275 24.952L49.1516 26.4023ZM49.1516 22.5098V24.4176L49.5331 24.3417C50.0666 24.1889 50.3722 23.7304 50.3722 23.197C50.3726 23.1066 50.3551 23.0171 50.3207 22.9335C50.2862 22.85 50.2356 22.7741 50.1718 22.7102C50.1079 22.6463 50.032 22.5957 49.9484 22.5613C49.8649 22.5269 49.7754 22.5094 49.685 22.5098H49.1516ZM56.8599 26.0198L56.6311 27.1655H52.8913C52.8913 27.1655 53.197 26.9367 53.197 26.4023V22.5098C53.197 21.9754 52.8913 21.7466 52.8913 21.7466H55.028C55.028 21.7466 54.7223 21.9754 54.7223 22.5098V26.4023H55.4855C56.4024 26.4023 56.8599 26.0198 56.8599 26.0198ZM57.2415 27.1655C57.2415 27.1655 57.5471 26.9367 57.5471 26.4023V22.5098C57.5471 21.9754 57.2415 21.7466 57.2415 21.7466H59.5309C60.9812 21.7466 62.2019 22.9673 62.2019 24.4176C62.2019 25.868 60.9812 27.0886 59.5309 27.0886H57.2415V27.1655ZM59.3781 22.5098H59.1493V26.3255H59.3781C60.1412 26.3255 60.6756 25.9439 60.6756 24.4176C60.6756 22.8913 60.0634 22.5098 59.3781 22.5098ZM63.4235 21.5178C64.4913 22.5857 63.8051 23.7313 63.1947 24.112L62.8891 23.8064C63.2707 23.5017 63.1947 22.8154 62.5835 22.2041L63.4235 21.5178ZM67.0864 25.868C67.0864 24.7992 64.4913 24.8761 64.4913 23.1201C64.4913 22.2041 65.4082 21.6697 66.552 21.6697C67.1196 21.6728 67.6844 21.7501 68.232 21.8994V23.2729C68.232 23.2729 67.6977 22.4338 66.7048 22.4338C66.3232 22.4338 65.9417 22.6626 65.9417 22.9673C65.9417 23.8073 68.5367 23.5785 68.5367 25.6392C68.5367 26.5552 67.6977 27.1655 66.0945 27.1655C65.1785 27.1655 64.5682 26.9367 64.5682 26.9367L64.4913 25.5623C64.4913 25.5623 65.2554 26.4023 66.3232 26.4023C66.7817 26.4783 67.0864 26.1727 67.0864 25.868ZM73.9556 25.868C73.9556 24.7992 71.3606 24.8761 71.3606 23.1201C71.3606 22.2041 72.2774 21.6697 73.4212 21.6697C74.3381 21.6697 75.1003 21.8994 75.1003 21.8994V23.2729C75.1003 23.2729 74.566 22.4338 73.5741 22.4338C73.1925 22.4338 72.8109 22.6626 72.8109 22.9673C72.8109 23.8073 75.406 23.5785 75.406 25.6392C75.406 26.5552 74.566 27.1655 72.9637 27.1655C72.0468 27.1655 71.4374 26.9367 71.4374 26.9367L71.3606 25.5623C71.3606 25.5623 72.1237 26.4023 73.1925 26.4023C73.65 26.4783 73.9556 26.1727 73.9556 25.868ZM79.9848 21.7466L79.832 22.7385C79.832 22.7385 79.6801 22.5098 79.1458 22.5098H78.6114V26.4023C78.6114 26.9367 78.917 27.1655 78.917 27.1655H76.7794C76.7794 27.1655 77.0851 26.9367 77.0851 26.4023V22.5098H76.5507C76.0163 22.5098 75.7875 22.7385 75.7875 22.7385L75.9404 21.7466H79.9848ZM82.1983 26.4023C82.1983 26.9367 82.504 27.1655 82.504 27.1655H80.3655C80.3655 27.1655 80.6711 26.9367 80.6711 26.4023V22.5098C80.6711 21.9754 80.3655 21.7466 80.3655 21.7466H83.4949C84.2581 21.7466 84.9453 22.3579 84.9453 23.197C84.9453 24.4176 83.7237 24.5704 83.7237 24.5704L84.8684 26.4023C85.25 26.9367 85.6316 27.1655 85.6316 27.1655C85.6316 27.1655 85.174 27.2414 84.4109 27.2414C83.6478 27.2414 83.2662 26.9358 83.0365 26.4023L82.2734 24.952L82.1983 26.4023ZM82.1983 22.5098V24.4176L82.5799 24.2648C83.1143 24.112 83.4199 23.6545 83.4199 23.1201C83.4202 23.0298 83.4026 22.9404 83.3681 22.857C83.3336 22.7735 83.283 22.6977 83.2191 22.6339C83.1553 22.5701 83.0794 22.5196 82.9959 22.4853C82.9124 22.4509 82.823 22.4334 82.7327 22.4338L82.1983 22.5098ZM88.2276 27.2424C86.9309 27.2424 85.4806 26.5552 85.4806 24.4936C85.4806 22.4338 86.93 21.7466 88.2276 21.7466C89.5251 21.7466 90.9754 22.4338 90.9754 24.4936C90.9754 26.5542 89.5251 27.2424 88.2276 27.2424ZM87.0069 24.5704C87.0828 25.867 87.6172 26.4783 88.3035 26.4783H88.3804C89.0676 26.4023 89.5251 25.7151 89.4491 24.3417C89.3723 23.0441 88.8379 22.4338 88.1516 22.4338H88.0747C87.3885 22.5098 86.93 23.197 87.0069 24.5704ZM95.4024 25.3336V22.5098C95.4024 21.9754 95.0968 21.7466 95.0968 21.7466H96.699C96.699 21.7466 96.3943 21.9754 96.3943 22.5098V27.2424H96.0887C95.1727 27.2424 94.3336 26.707 93.9521 25.9439L92.7305 23.6545V26.4023C92.7305 26.9367 93.0361 27.1655 93.0361 27.1655H91.4339C91.4339 27.1655 91.7386 26.9367 91.7386 26.4023V22.5098C91.7386 21.9754 91.4329 21.7466 91.4329 21.7466H93.4936L95.4024 25.3336ZM102.118 24.3417V25.9439C102.118 26.7839 102.271 27.0886 102.271 27.0886C102.271 27.0886 101.05 27.3183 100.057 27.3183C98.7597 27.3183 97.1575 26.6311 97.1575 24.5704C97.1575 22.5098 98.8366 21.8226 99.9813 21.8226C100.973 21.8226 101.813 22.0513 101.813 22.0513V23.4257C101.813 23.4257 100.973 22.5857 100.057 22.5857C99.5238 22.5857 98.6838 22.8913 98.6838 24.5704C98.6838 26.2495 99.7525 26.5552 100.21 26.5552H100.592V25.1808C100.592 24.6464 100.287 24.4176 100.287 24.4176L102.118 24.3417ZM106.851 22.9673C106.851 22.9673 106.392 22.5857 105.706 22.5857H104.79V24.036H106.545L106.392 25.0279C106.392 25.0279 106.011 24.7992 105.323 24.7992H104.79V26.4783H105.782C106.698 26.4783 107.155 26.0967 107.155 26.0967L106.926 27.2414H102.958C102.958 27.2414 103.263 27.0127 103.263 26.4783V22.5857C103.263 22.0513 102.958 21.8226 102.958 21.8226H106.851V22.9673ZM110.361 25.868C110.361 24.7992 107.766 24.8761 107.766 23.1201C107.766 22.2041 108.682 21.6697 109.827 21.6697C110.742 21.6697 111.505 21.8994 111.505 21.8994V23.2729C111.505 23.2729 110.972 22.4338 109.979 22.4338C109.597 22.4338 109.216 22.6626 109.216 22.9673C109.216 23.8073 111.811 23.5785 111.811 25.6392C111.811 26.5552 110.972 27.1655 109.369 27.1655C108.453 27.1655 107.842 26.9367 107.842 26.9367L107.766 25.5623C107.766 25.5623 108.53 26.4023 109.597 26.4023C110.056 26.4783 110.361 26.1727 110.361 25.868ZM116.391 21.7466L116.238 22.7385C116.238 22.7385 116.085 22.5098 115.551 22.5098H115.016V26.4023C115.016 26.9367 115.322 27.1655 115.322 27.1655H113.184C113.184 27.1655 113.49 26.9367 113.49 26.4023V22.5098H112.956C112.421 22.5098 112.193 22.7385 112.193 22.7385L112.345 21.7466H116.391ZM122.802 23.2729C122.802 23.2729 122.191 22.4338 121.275 22.4338C120.741 22.4338 119.901 22.7394 119.901 24.4176C119.901 26.0967 120.894 26.4023 121.275 26.4023C122.496 26.4023 123.183 25.5623 123.183 25.5623L123.106 26.9367C123.106 26.9367 122.191 27.1655 121.275 27.1655C119.978 27.1655 118.375 26.4783 118.375 24.4176C118.375 22.3569 120.054 21.6697 121.122 21.6697C122.114 21.6697 122.725 21.8994 122.725 21.8994L122.802 23.2729ZM126.389 27.2414C125.091 27.2414 123.641 26.5542 123.641 24.4936C123.641 22.4338 125.091 21.7466 126.389 21.7466C127.686 21.7466 129.136 22.4338 129.136 24.4936C129.136 26.5542 127.686 27.2414 126.389 27.2414ZM125.167 24.5704C125.244 25.867 125.778 26.4783 126.464 26.4783H126.541C127.228 26.4023 127.686 25.7151 127.609 24.3417C127.533 23.0441 126.999 22.4338 126.313 22.4338H126.236C125.548 22.5098 125.015 23.197 125.167 24.5704ZM133.487 22.9682C133.487 22.9682 133.028 22.5857 132.342 22.5857H131.426V24.036H133.181L133.028 25.0279C133.028 25.0279 132.646 24.7992 131.96 24.7992H131.426V26.4783C131.426 27.0127 131.731 27.2414 131.731 27.2414H129.594C129.594 27.2414 129.9 27.0127 129.9 26.4783V22.5857C129.9 22.0513 129.594 21.8226 129.594 21.8226H133.487V22.9682ZM137.837 22.9682C137.837 22.9682 137.379 22.5857 136.692 22.5857H135.776V24.036H137.531L137.379 25.0279C137.379 25.0279 136.998 24.7992 136.31 24.7992H135.776V26.4783C135.776 27.0127 136.082 27.2414 136.082 27.2414H133.944C133.944 27.2414 134.25 27.0127 134.25 26.4783V22.5857C134.25 22.0513 133.944 21.8226 133.944 21.8226H137.837V22.9682ZM142.264 22.9682C142.264 22.9682 141.805 22.5857 141.119 22.5857H140.203V24.036H141.958L141.805 25.0279C141.805 25.0279 141.424 24.7992 140.737 24.7992H140.203V26.4783H141.195C142.111 26.4783 142.568 26.0967 142.568 26.0967L142.34 27.2414H138.371C138.371 27.2414 138.677 27.0127 138.677 26.4783V22.5857C138.677 22.0513 138.371 21.8226 138.371 21.8226H142.264V22.9682ZM146.767 22.9682C146.767 22.9682 146.308 22.5857 145.622 22.5857H144.706V24.036H146.461L146.308 25.0279C146.308 25.0279 145.927 24.7992 145.24 24.7992H144.706V26.4783H145.698C146.614 26.4783 147.071 26.0967 147.071 26.0967L146.842 27.2414H142.874C142.874 27.2414 143.18 27.0127 143.18 26.4783V22.5857C143.18 22.0513 142.874 21.8226 142.874 21.8226H146.767V22.9682ZM148.598 21.5938C149.209 21.5938 149.666 22.0513 149.666 22.6626C149.666 23.2729 149.209 23.7313 148.598 23.7313C148.456 23.7348 148.316 23.7095 148.185 23.657C148.053 23.6045 147.934 23.5258 147.834 23.4259C147.735 23.3259 147.656 23.2067 147.604 23.0755C147.551 22.9443 147.526 22.8038 147.53 22.6626C147.53 22.0513 147.987 21.5938 148.598 21.5938ZM148.598 23.5017C148.82 23.4997 149.032 23.4107 149.189 23.2538C149.346 23.0969 149.435 22.8846 149.438 22.6626C149.436 22.4404 149.346 22.2278 149.189 22.0707C149.032 21.9136 148.82 21.8245 148.598 21.8226C148.375 21.8245 148.163 21.9136 148.006 22.0708C147.849 22.2279 147.76 22.4405 147.758 22.6626C147.758 23.1201 148.14 23.5017 148.598 23.5017ZM148.064 22.0513H148.75C148.903 22.0513 149.056 22.2041 149.056 22.3569C149.056 22.5098 148.98 22.5857 148.827 22.6626L149.056 23.0441L149.209 23.197H148.98C148.827 23.197 148.75 23.1201 148.674 23.0441L148.522 22.7385V23.0441C148.522 23.1201 148.598 23.197 148.598 23.197H148.14C148.14 23.197 148.216 23.1201 148.216 23.0441V22.2041L148.064 22.0513ZM148.522 22.6626H148.598C148.674 22.6626 148.75 22.5098 148.75 22.4338C148.748 22.3941 148.731 22.3568 148.703 22.3287C148.675 22.3005 148.637 22.2836 148.598 22.281H148.446V22.6626H148.522ZM88.1516 12.5879C88.1516 12.512 88.1516 12.3592 88.0747 12.2823C87.9228 11.9767 87.9228 11.7488 88.0747 11.4432C88.1516 11.2904 88.1516 11.0616 87.9988 10.832C87.9228 10.756 87.77 10.6801 87.5413 10.6801C87.3116 10.6801 87.0069 10.756 86.8541 10.8329C86.7013 10.9088 86.6253 11.1385 86.5485 11.3673C86.4725 11.5192 86.4725 11.6729 86.3956 11.7488C86.2437 11.9776 85.7094 12.2064 85.7094 12.2064C85.7094 12.2064 82.9615 13.428 82.3511 13.7327C82.2743 13.8086 81.8927 13.9614 81.5111 14.1902C80.8249 13.8845 80.2145 13.5798 79.832 13.427C79.1458 13.0455 78.5354 12.7408 78.1529 12.512C77.8473 12.2823 77.4667 12.0536 77.4667 12.0536C77.4667 12.0536 77.237 11.5192 77.0851 11.2904C77.0082 11.1376 76.5507 11.0616 76.2451 11.0616C75.9394 11.0616 75.406 11.2145 75.406 11.4432C75.406 11.596 75.4819 11.8248 75.4819 11.9776C75.5588 12.1304 75.6347 12.3592 75.5588 12.512C75.4819 12.8176 75.6347 13.1223 75.7875 13.2751H76.0163C76.1691 13.2751 76.3219 13.2751 76.5507 13.1983C76.7035 13.1983 76.8563 13.1223 77.0082 13.1223C77.3138 13.1223 78.001 13.428 78.7642 13.8086C78.8401 13.8855 78.917 13.8855 78.9929 13.9614L79.2986 14.1142C79.6801 14.267 80.1377 14.4958 80.5952 14.7255C79.4505 15.2589 78.2298 15.9461 77.9242 15.9461H77.3898H77.2379C77.0082 15.9461 76.8563 15.9461 76.6266 16.0221C76.3979 16.099 76.3979 16.2518 76.3979 16.5565V16.7093C76.3979 16.7852 76.4738 16.7852 76.7035 16.8621C76.7794 16.8621 76.9323 16.9381 77.0091 17.0149C77.161 17.1668 77.0091 17.3965 77.0091 17.4724V17.5493C77.0851 17.6253 77.3138 17.7012 77.5426 17.8549H77.6195C77.7713 17.8549 77.9251 17.7012 78.001 17.6253C78.077 17.5493 78.1529 17.3965 78.2298 17.2437C78.3057 17.0909 78.3826 16.938 78.5354 16.8621C78.6873 16.6333 79.1458 16.4805 79.5264 16.3277C79.6801 16.2508 79.832 16.1749 79.9848 16.1749C80.2136 16.099 80.9777 15.7174 81.7408 15.3358C81.8927 15.4118 82.1983 15.5646 82.4271 15.6414C83.8015 16.2509 85.0222 16.8621 85.3278 17.0909C85.5565 17.2437 85.7094 17.4724 85.7853 17.7021C85.8622 17.854 85.9381 18.0068 86.0141 18.0828C86.0909 18.1596 86.2437 18.1596 86.3956 18.1596C86.6253 18.1596 86.8541 18.0828 86.93 18.0828V17.8549C86.93 17.7021 86.93 17.5493 87.0069 17.4734C87.0828 17.3974 87.2356 17.3974 87.3125 17.3206C87.5404 17.2446 87.6932 17.2446 87.6932 17.1677C87.6932 16.8621 87.4644 16.6343 87.2356 16.5574H86.1669C85.7853 16.5574 84.8703 16.0999 83.5718 15.4127L83.1143 15.1839C82.9615 15.1071 82.8087 15.0311 82.5799 14.9552C83.1143 14.7255 83.4199 14.5736 83.4199 14.4967C83.7255 14.3439 86.3956 13.2001 86.8541 13.1233H87.6941C87.846 13.1233 87.9228 13.1233 88.0747 13.0464C88.0747 12.7408 88.1516 12.6639 88.1516 12.5879ZM85.6325 8.39064C85.7094 8.31377 86.1669 7.55062 85.9381 7.32187C85.8622 7.16905 85.4797 6.78748 85.4797 6.78748C85.4797 6.78748 85.7853 4.26836 85.7853 3.7349C85.7853 3.35333 85.6325 2.81801 85.4037 2.3605C85.0222 1.52141 84.1071 0.605448 83.1902 0.223875C82.8087 0.071061 82.3511 0.0710612 81.5111 -0.00488281C80.5202 -0.00488281 79.7561 0.223875 79.2976 0.452633C78.6114 0.758262 78.1529 1.21578 77.7714 1.90298C77.3138 2.59018 77.161 3.12457 77.161 3.81084C77.161 4.49804 77.5426 6.94029 77.5426 6.94029C77.5426 6.94029 77.0851 7.32187 77.0082 7.55155C76.9323 7.77938 77.3138 8.46658 77.3898 8.6194C77.4667 8.69534 77.9242 9.23066 78.1529 9.23066C78.3057 9.23066 78.917 8.92503 79.0698 8.92503C79.2217 8.92503 79.3745 9.45849 79.3745 9.76412C79.3745 9.99287 79.5273 11.2145 79.5273 11.2904C79.5273 11.2904 79.6801 11.3673 79.7561 11.3673V11.0616L79.832 10.4504L79.9089 10.9848L79.9848 11.3673H80.2136V11.0616L80.2905 10.3744L80.3664 11.1376V11.3673H80.672V10.9088L80.748 10.3744L80.8249 10.9857L80.9008 11.3673H81.2064V10.9848L81.2824 10.3744L81.3583 11.0616L81.4352 11.3673H81.7408V10.9848L81.8168 10.3744L81.9696 11.1376V11.3673H82.3511V11.0616L82.4271 10.3744L82.504 11.0616L82.5799 11.2904H82.8087V10.9848L82.8855 10.3744L82.9615 10.9088V11.2145C83.1143 11.2145 83.1902 11.1376 83.1902 11.1376C83.1902 11.0616 83.2671 10.6801 83.2671 10.6801C83.2671 10.6801 83.4199 8.84816 83.6487 8.84816C83.8015 8.77221 84.4118 9.15379 84.5646 9.15379C85.0981 9.07692 85.6325 8.46658 85.6325 8.39064ZM81.0536 5.87152C81.2064 6.32996 80.2905 7.09311 79.6801 7.32187C79.2217 7.47468 78.6114 7.245 78.3057 7.01624C78.0001 6.71061 77.7714 6.10028 77.8482 5.79558C77.9242 5.56682 78.001 5.33713 78.2298 5.33713C78.6114 5.26119 80.9777 5.56589 81.0536 5.87152ZM82.1983 8.00907C82.1983 8.08501 82.3511 8.54253 82.3511 8.69534C82.3511 8.84816 82.0455 9.00097 81.9696 9.00097C81.8927 9.00097 81.7408 8.84816 81.7408 8.77221C81.6639 8.46658 81.6639 8.00814 81.588 8.08501C81.5111 8.16095 81.5111 8.54253 81.5111 8.77221C81.5111 8.9241 81.3583 9.07784 81.2824 9.00097C81.2064 9.00097 80.9008 8.77221 80.8249 8.54253C80.8249 8.39064 80.9777 8.08501 80.9777 8.00907C80.9777 7.9322 81.2833 7.39781 81.2833 7.32187C81.3583 7.245 81.4352 7.16905 81.4352 7.16905L81.588 7.245C81.588 7.245 81.7408 7.16905 81.7408 7.09311C81.8168 7.09311 81.8168 7.09311 81.8927 7.16905C81.9696 7.39781 82.1224 7.85625 82.1983 8.00907ZM85.175 5.87152C85.2509 6.17715 85.0222 6.78748 84.7165 7.09311C84.4878 7.32187 83.8015 7.55062 83.3431 7.39874C82.7318 7.16905 81.8168 6.40591 81.9696 5.94746C82.0455 5.64184 84.4118 5.33713 84.7165 5.48995C85.0222 5.414 85.0981 5.56589 85.175 5.87152ZM98.5309 7.62749C98.5309 7.62749 97.539 6.32996 96.1656 6.32996C95.3255 6.32996 93.9521 6.78748 93.9521 9.45849C93.9521 12.1295 95.4784 12.5879 96.2415 12.5879C98.1494 12.5879 99.2941 11.2913 99.2941 11.2913L99.1413 13.427C99.1413 13.427 97.6918 13.8086 96.1656 13.8086C94.1808 13.8086 91.5858 12.7408 91.5858 9.53536C91.5858 6.25309 94.3336 5.18525 95.9359 5.18525C97.4631 5.18525 98.5309 5.56682 98.5309 5.56682V7.62749ZM104.408 13.7327C106.469 13.7327 108.758 12.6639 108.758 9.45849C108.758 6.17715 106.469 5.10837 104.408 5.10837C102.348 5.10837 100.057 6.17715 100.057 9.45849C100.057 12.6639 102.348 13.7327 104.408 13.7327ZM102.424 9.6113C102.271 7.47468 102.958 6.40591 104.103 6.32996H104.255C105.323 6.32996 106.163 7.245 106.316 9.30567C106.469 11.4432 105.782 12.512 104.637 12.5879H104.484C103.492 12.5879 102.652 11.672 102.424 9.6113ZM115.932 7.09218C115.932 7.09218 115.169 6.48185 114.1 6.48185H112.651V8.69534H115.398L115.245 10.2216C115.245 10.2216 114.635 9.916 113.566 9.916H112.651V12.512C112.651 13.3511 113.108 13.6567 113.108 13.6567H109.75C109.75 13.6567 110.209 13.3511 110.209 12.512V6.48278C110.209 5.64276 109.75 5.33713 109.75 5.33713H115.932V7.09218ZM123.336 7.09218C123.336 7.09218 122.573 6.48185 121.504 6.48185H120.054V8.69534H122.802L122.649 10.2216C122.649 10.2216 122.038 9.916 120.97 9.916H120.054V12.512C120.054 13.3511 120.512 13.6567 120.512 13.6567H117.154C117.154 13.6567 117.611 13.3511 117.611 12.512V6.48278C117.611 5.64276 117.154 5.33713 117.154 5.33713H123.336V7.09218ZM130.663 7.09218C130.663 7.09218 129.9 6.48185 128.831 6.48185H127.38V8.69534H130.128L129.975 10.2216C129.975 10.2216 129.365 9.916 128.296 9.916H127.38V12.512H128.984C130.434 12.512 131.12 11.9007 131.12 11.9007L130.815 13.7327H124.481C124.481 13.7327 125.015 13.427 125.015 12.5879V6.55872C125.015 5.71871 124.481 5.414 124.481 5.414H130.663V7.09218ZM138.142 7.09218C138.142 7.09218 137.379 6.48185 136.31 6.48185H134.86V8.69534H137.608L137.455 10.2216C137.455 10.2216 136.845 9.916 135.776 9.916H134.86V12.512H136.463C137.913 12.512 138.6 11.9007 138.6 11.9007L138.294 13.7327H131.96C131.96 13.7327 132.495 13.427 132.495 12.5879V6.55872C132.495 5.71871 131.96 5.414 131.96 5.414H138.142V7.09218ZM149.056 7.62749C149.056 7.62749 148.064 6.32996 146.69 6.32996C145.851 6.32996 144.476 6.78748 144.476 9.45849C144.476 12.1295 146.003 12.5879 146.767 12.5879C148.674 12.5879 149.819 11.2913 149.819 11.2913L149.666 13.427C149.666 13.427 148.216 13.8086 146.69 13.8086C144.706 13.8086 142.111 12.7408 142.111 9.53536C142.111 6.25309 144.859 5.18525 146.461 5.18525C147.987 5.18525 149.056 5.56682 149.056 5.56682V7.62749ZM155.162 13.7327C157.223 13.7327 159.512 12.6639 159.512 9.45849C159.512 6.17715 157.223 5.10837 155.162 5.10837C153.101 5.10837 150.811 6.17715 150.811 9.45849C150.811 12.6639 153.101 13.7327 155.162 13.7327ZM153.177 9.6113C153.025 7.47468 153.712 6.40591 154.856 6.32996H155.009C156.077 6.32996 156.917 7.245 157.07 9.30567C157.223 11.4432 156.536 12.512 155.391 12.5879H155.238C154.169 12.5879 153.33 11.672 153.177 9.6113ZM162.107 11.4432C162.794 11.4432 163.328 11.9776 163.328 12.5879C163.328 13.2751 162.794 13.7327 162.107 13.7327C161.42 13.7327 160.886 13.1983 160.886 12.5879C160.886 11.9007 161.42 11.4432 162.107 11.4432ZM3.51102 13.6567C5.72452 13.6567 7.55643 11.7488 7.55643 9.45849C7.55643 7.16905 5.72452 5.26119 3.51102 5.26119H0.000926135C0.000926135 5.26119 0.458443 5.56682 0.458443 6.40591V12.4351C0.458443 13.2751 0 13.5798 0 13.5798L3.51102 13.6567ZM3.2054 6.40591C4.27417 6.40591 5.19013 7.01716 5.19013 9.38254C5.19013 11.7488 4.27417 12.3592 3.2054 12.3592H2.74788V6.40591H3.2054ZM13.9672 7.09311C13.9672 7.09311 13.28 6.48185 12.2112 6.48185H10.8378V8.69534H13.5088L13.356 10.2216C13.356 10.2216 12.8225 9.916 11.7537 9.916H10.9146V12.512H12.4409C13.8144 12.512 14.5016 11.9007 14.5016 11.9007L14.0432 13.6567H8.08989C8.08989 13.6567 8.54834 13.3511 8.54834 12.512V6.48278C8.54834 5.64276 8.08989 5.33713 8.08989 5.33713H13.9672V7.09311ZM20.3021 6.48185C20.0724 5.79558 19.4621 5.26119 18.6998 5.26119H17.4014C17.4014 5.26119 17.783 5.56682 17.4773 6.40591L15.5695 12.4351C15.3407 13.2751 14.7304 13.5798 14.7304 13.5798H17.1726C17.1726 13.5798 16.791 13.2742 17.0967 12.4351L17.2486 11.8239H19.7677L19.9205 12.4351C20.2261 13.2751 19.8436 13.5798 19.8436 13.5798H23.049C23.049 13.5798 22.5146 13.2742 22.2099 12.4351L20.3021 6.48185ZM18.4702 7.39874L19.3861 10.6032H17.5542L18.4702 7.39874ZM28.4679 5.26119L28.2392 6.78748C28.2392 6.78748 28.0104 6.40591 27.1704 6.40591H26.4072V12.4351C26.4072 13.2751 26.8657 13.5798 26.8657 13.5798H23.6594C23.6594 13.5798 24.1178 13.2742 24.1178 12.4351V6.40591H23.2787C22.4387 6.40591 22.0571 6.78748 22.0571 6.78748L22.2859 5.26119H28.4679ZM31.7502 9.9938V12.4351C31.7502 13.2751 32.2077 13.5798 32.2077 13.5798H29.0032C29.0032 13.5798 29.4598 13.2742 29.4598 12.4351V6.40591C29.4598 5.56589 29.0023 5.26119 29.0023 5.26119H32.2077C32.2077 5.26119 31.7502 5.56682 31.7502 6.40591V8.84816H34.1156V6.40591C34.1156 5.56589 33.658 5.26119 33.658 5.26119H36.8634C36.8634 5.26119 36.4059 5.56682 36.4059 6.40591V12.4351C36.4059 13.2751 36.8634 13.5798 36.8634 13.5798H33.658C33.658 13.5798 34.1156 13.2742 34.1156 12.4351V9.99287L31.7502 9.9938ZM44.2661 13.7327C43.0455 13.7327 41.9767 12.8936 41.5951 11.672L39.9929 6.40591C39.7632 5.56589 39.1529 5.26119 39.1529 5.26119H42.2823C42.2823 5.26119 41.9007 5.56682 42.2055 6.40591L43.5799 10.9088C43.5799 10.9088 44.4189 8.16096 44.8005 6.86342C44.9533 6.25309 44.8005 5.64276 44.343 5.33713C44.2671 5.33713 44.2671 5.26119 44.2671 5.26119H46.9381L48.6931 10.9088L50.0666 6.40591C50.2963 5.56589 49.9906 5.26119 49.9906 5.26119H52.5857C52.5857 5.26119 52.0513 5.56682 51.7457 6.40591L49.8378 12.4351C49.6091 13.2751 49.9906 13.7327 49.9906 13.7327H49.3794C48.1587 13.7327 47.0909 12.8936 46.7093 11.672L45.8693 8.9241L44.8005 12.4351C44.5718 13.2751 44.9533 13.7327 44.9533 13.7327H44.2661ZM56.0967 5.26119C56.0967 5.26119 55.6383 5.56682 55.6383 6.40591V12.4351C55.6383 13.2751 56.0967 13.5798 56.0967 13.5798H52.8913C52.8913 13.5798 53.3489 13.2742 53.3489 12.4351V6.40591C53.3489 5.56589 52.8913 5.26119 52.8913 5.26119H56.0958H56.0967ZM60.6756 11.672C60.6756 9.99287 56.783 10.1457 56.783 7.32187C56.783 5.94746 58.1574 5.10837 59.9134 5.10837C61.2859 5.10837 62.4316 5.48995 62.4316 5.48995V7.62749C62.4316 7.62749 61.5916 6.32996 60.1412 6.32996C59.5309 6.32996 59.0734 6.71154 59.0734 7.16905C59.0734 8.46658 62.965 8.16096 62.965 11.3673C62.965 12.8167 61.6684 13.7327 59.2253 13.7327C57.7758 13.7327 56.8599 13.3511 56.8599 13.3511L56.783 11.2145C56.783 11.2145 57.9277 12.5111 59.5309 12.5111C60.1421 12.5111 60.6756 12.1295 60.6756 11.672ZM66.3232 9.99287V12.4351C66.3232 13.2751 66.7817 13.5798 66.7817 13.5798H63.5763C63.5763 13.5798 64.0338 13.2742 64.0338 12.4351V6.40591C64.0338 5.56589 63.5763 5.26119 63.5763 5.26119H66.7808C66.7808 5.26119 66.3232 5.56682 66.3232 6.40591V8.84816H68.6896V6.40591C68.6896 5.56589 68.232 5.26119 68.232 5.26119H71.4365C71.4365 5.26119 70.979 5.56682 70.979 6.40591V12.4351C70.979 13.2751 71.4374 13.5798 71.4374 13.5798H68.2311C68.2311 13.5798 68.6896 13.2742 68.6896 12.4351V9.99287H66.3232Z" fill="black"/>
</svg>
