<svg xmlns:xlink="http://www.w3.org/1999/xlink" xmlns="http://www.w3.org/2000/svg" width="135" height="48" viewBox="0 0 135 48" fill="none">
<g clip-path="url(#clip0_3_88)">
<path d="M87.5417 4.28199C87.6149 4.42832 87.6149 4.57465 87.6881 4.72098C87.6149 4.50149 87.6149 4.35516 87.5417 4.28199Z" fill="white"/>
<path d="M19.8683 25.6462L20.3804 23.5976L20.6731 23.5244L22.2095 25.2072L24.3311 24.9146L24.4774 24.6219C24.4043 24.4756 24.258 24.4024 24.1116 24.2561C23.7458 23.8171 23.2337 23.3781 22.8679 23.0123C23.3506 22.8482 23.7911 22.5795 24.1579 22.2253C24.5247 21.8712 24.8087 21.4404 24.9896 20.9637C25.0639 20.6757 25.0639 20.3736 24.9896 20.0857V20.0125C24.9896 20.0029 24.9877 19.9934 24.984 19.9845C24.9803 19.9757 24.9749 19.9676 24.9681 19.9608C24.9613 19.954 24.9533 19.9486 24.9444 19.9449C24.9355 19.9413 24.926 19.9394 24.9164 19.9394C24.9164 19.8662 24.8433 19.8662 24.7701 19.793L24.6969 19.7199C24.668 19.6922 24.6333 19.6713 24.5954 19.6587C24.5574 19.646 24.5172 19.6419 24.4774 19.6467C24.458 19.6467 24.4394 19.639 24.4257 19.6253C24.412 19.6116 24.4043 19.5929 24.4043 19.5735C24.2946 19.5072 24.1652 19.4813 24.0385 19.5004H23.5995C23.4016 19.4885 23.2031 19.5133 23.0142 19.5735L19.2098 20.1589L17.6735 26.0121L19.8683 25.6462ZM21.0389 21.1832L22.3558 20.9637H22.6484C22.7216 20.9637 22.7216 20.9637 22.7216 21.0368C22.741 21.0368 22.7596 21.0445 22.7733 21.0583C22.787 21.072 22.7947 21.0906 22.7947 21.11L22.8679 21.1832V21.4027C22.7582 21.6251 22.5782 21.8051 22.3558 21.9148C22.2699 21.973 22.1663 21.9989 22.0631 21.988L20.8194 22.2075L21.0389 21.1832Z" fill="white"/>
<path d="M25.5026 24.7684H25.8684C26.21 24.7006 26.5191 24.5203 26.7463 24.2563C26.8367 24.1729 26.9111 24.0737 26.9658 23.9636L27.1853 23.5246V23.1588C27.1853 23.1394 27.1776 23.1208 27.1639 23.1071C27.1501 23.0933 27.1315 23.0856 27.1121 23.0856C27.1044 23.0302 27.0787 22.9788 27.039 22.9393L26.9658 22.8661C26.8926 22.8661 26.8926 22.793 26.8195 22.793H26.3805C26.0821 22.8467 25.8058 22.9859 25.585 23.1938C25.3642 23.4016 25.2085 23.669 25.1368 23.9636C25.0829 24.036 25.0493 24.1216 25.0397 24.2113C25.0301 24.3011 25.0448 24.3918 25.0821 24.474C25.1195 24.5562 25.1782 24.6269 25.2521 24.6786C25.3261 24.7304 25.4126 24.7614 25.5026 24.7684Z" fill="white"/>
<path d="M13.5039 26.5972C13.956 26.5288 14.3982 26.4059 14.8208 26.2314C15.5228 25.9977 16.1567 25.5954 16.6669 25.0596C17.1771 24.5238 17.5481 23.871 17.7473 23.1585C18.1131 21.8415 17.6009 20.744 16.0646 20.6709H15.9914C15.7453 20.6623 15.4993 20.6869 15.2598 20.744L11.7481 21.2562L10.2117 27.1094L13.5039 26.5972ZM13.5039 22.4268L14.3087 22.2805C14.5282 22.2805 14.6745 22.2073 14.8208 22.2073H15.1135C15.1866 22.2073 15.3329 22.2805 15.4061 22.2805C15.4255 22.2805 15.4441 22.2882 15.4578 22.3019C15.4716 22.3156 15.4793 22.3342 15.4793 22.3536C15.5524 22.3536 15.5524 22.4268 15.6256 22.4268C15.7279 22.5744 15.7943 22.7439 15.8197 22.9217C15.8451 23.0995 15.8288 23.2808 15.7719 23.4511C15.6766 23.8382 15.4422 24.1768 15.1135 24.4023C14.682 24.7883 14.1487 25.0423 13.5771 25.1339L12.7723 25.2803C12.9186 24.6949 12.9918 24.4754 13.5039 22.4268Z" fill="white"/>
<path d="M110.223 20.5247L111.027 15.8421L111.393 13.7203C111.449 13.3573 111.474 12.9901 111.466 12.6228C111.478 12.3283 111.454 12.0333 111.393 11.7448C111.393 11.5985 111.32 11.4522 111.32 11.3059C111.32 11.1595 111.32 11.2327 111.247 11.1595C111.229 11.0495 111.178 10.9475 111.101 10.8669C111.101 10.7937 111.027 10.7937 111.027 10.7205C111.027 10.6474 110.954 10.5742 110.881 10.501C110.808 10.4279 110.808 10.4279 110.808 10.3547C110.808 10.2815 110.735 10.2084 110.662 10.2084C110.588 10.2084 110.588 10.1352 110.515 10.1352C110.442 10.1352 110.369 10.062 110.296 9.98888C110.223 9.91571 110.223 9.91571 110.149 9.91571C110.076 9.91571 110.003 9.84255 109.93 9.84255C109.857 9.84255 109.857 9.84255 109.784 9.76938C109.681 9.78033 109.577 9.75441 109.491 9.69622H109.345C109.171 9.68444 108.996 9.70937 108.833 9.76938C106.784 10.062 105.321 12.1107 105.321 12.1107L106.857 2.67237L102.98 3.25769L100.419 18.1834C99.4679 21.0368 97.7852 22.7928 95.883 23.4513L95.0783 23.6708C94.9751 23.6598 94.8715 23.6857 94.7856 23.7439H93.9077C93.8046 23.7549 93.7009 23.7289 93.615 23.6708H93.4687C93.3587 23.6524 93.2567 23.6014 93.1761 23.5244H93.1029C92.9722 23.4669 92.8678 23.3625 92.8103 23.2318L92.7371 23.1586C92.664 23.0854 92.5908 22.9391 92.5176 22.8659C92.4445 22.7928 92.4445 22.7928 92.4445 22.7196C92.3623 22.5603 92.3125 22.3862 92.2982 22.2075C92.0055 20.5247 92.8103 16.1347 94.6393 15.8421H94.7856C94.8588 15.8421 94.9319 15.8421 94.9319 15.9153C94.9319 15.9884 95.0051 15.9884 95.0783 16.0616C95.1514 16.1347 95.1514 16.2079 95.1514 16.2811V16.7201C95.163 16.8702 95.1379 17.0208 95.0783 17.1591V17.2322C95.0783 17.3786 95.0051 17.598 95.0051 17.8175V17.8907C94.9319 18.1102 94.9319 18.4029 94.8588 18.6224V18.6955C94.7856 18.9882 94.7125 19.2808 94.6393 19.6467L98.5168 19.0613L98.7363 18.1834C98.7333 18.0809 98.7586 17.9797 98.8095 17.8907C98.8095 17.6712 98.8826 17.5249 98.8826 17.3786V15.6226C98.894 15.4961 98.8686 15.3691 98.8095 15.2568C98.8125 15.1543 98.7872 15.0531 98.7363 14.9641C98.7363 14.8178 98.6632 14.7446 98.6632 14.6714C98.6632 14.5983 98.59 14.5251 98.59 14.452C98.5717 14.3419 98.5207 14.24 98.4437 14.1593C98.4437 14.0861 98.3705 14.013 98.3705 13.9398C98.3705 13.8666 98.2974 13.7203 98.2242 13.6471C98.2165 13.5917 98.1908 13.5403 98.151 13.5008C98.0607 13.4174 97.9863 13.3182 97.9316 13.2081C97.9316 13.135 97.8584 13.135 97.8584 13.0618C97.7718 12.9268 97.6433 12.824 97.4926 12.7692C97.3569 12.6901 97.2336 12.5915 97.1268 12.4765C97.0536 12.4765 97.0536 12.4033 96.9805 12.4033C96.9073 12.4033 96.761 12.3302 96.6878 12.257C96.6147 12.1838 96.5415 12.1838 96.4683 12.1838C96.3952 12.1838 96.2488 12.1107 96.1757 12.1107C96.136 12.1154 96.0957 12.1114 96.0577 12.0987C96.0198 12.0861 95.9851 12.0652 95.9562 12.0375C95.8531 12.0485 95.7494 12.0225 95.6636 11.9643H95.1514C94.8812 11.9554 94.6109 11.98 94.3467 12.0375C93.6853 12.1683 93.0452 12.3899 92.4445 12.696C92.2466 12.7745 92.0708 12.9001 91.9323 13.0618C89.8838 14.5251 88.9327 17.3054 88.6401 19.793C88.3475 20.671 88.128 21.4026 87.8353 22.0611C87.5427 22.7196 87.25 23.3049 87.0306 23.7439C86.5184 24.6951 85.9331 25.2072 85.421 25.2804H85.1284C85.109 25.2804 85.0904 25.2727 85.0766 25.259C85.0629 25.2452 85.0552 25.2266 85.0552 25.2072C85.0552 25.1976 85.0533 25.1881 85.0496 25.1792C85.046 25.1703 85.0406 25.1623 85.0338 25.1555C85.027 25.1487 85.0189 25.1433 85.01 25.1396C85.0012 25.1359 84.9916 25.1341 84.982 25.1341V25.0609C84.982 25.0415 84.9743 25.0229 84.9606 25.0092C84.9469 24.9954 84.9283 24.9877 84.9089 24.9877V23.0854C84.8979 22.9823 84.9239 22.8786 84.982 22.7928V22.6464C84.982 22.5001 85.0552 22.2806 85.0552 22.1343L86.4453 13.9398L89.5912 13.4276L90.0302 10.94L86.8111 11.4522L87.3964 8.59874L83.5188 9.18406L82.9335 12.0375L81.1777 12.3302L80.7387 14.8178L82.4946 14.5251L81.324 21.4026C80.2266 24.7682 79.1292 26.451 78.3244 26.5974H78.1049L78.0317 26.5242V24.4024C78.0208 24.2993 78.0467 24.1956 78.1049 24.1097V23.9634C78.1049 23.8171 78.1781 23.5976 78.1781 23.3781L79.5681 15.1836L75.6906 15.7689L75.3248 17.6712V17.598C75.3248 17.5249 75.2516 17.5249 75.2516 17.4517C75.2516 17.3786 75.1785 17.3054 75.1053 17.2322V17.1591C75.0149 17.0757 74.9405 16.9765 74.8858 16.8664L74.8127 16.7932L74.52 16.5006H74.4468C74.2847 16.4292 74.1361 16.3302 74.0079 16.2079C73.8524 16.1164 73.6761 16.066 73.4958 16.0616H73.4226C73.2345 15.9977 73.0353 15.9728 72.8373 15.9884H72.7641C72.6141 15.9769 72.4634 16.002 72.3252 16.0616C71.4324 16.2052 70.6244 16.6743 70.0572 17.3786C69.8207 17.6835 69.6009 18.001 69.3987 18.3297C69.1845 18.6736 69.0126 19.0421 68.8866 19.4272C68.323 20.8041 67.9774 22.2605 67.8624 23.7439C67.4234 25.0609 67.0576 26.0852 66.6918 26.89C66.0333 28.207 65.448 28.9386 64.9359 29.0118H64.7164C64.697 29.0118 64.6784 29.0041 64.6647 28.9904C64.651 28.9767 64.6433 28.958 64.6433 28.9386L64.5701 28.8655V26.6705C64.5592 26.5674 64.5851 26.4637 64.6433 26.3779V26.2315C64.6433 26.0852 64.7164 25.8657 64.7164 25.7194L66.1065 17.5249L62.229 18.1102L60.9852 25.4267C60.7312 26.3262 60.4134 27.2064 60.0341 28.0607C59.5952 29.085 59.2293 29.524 58.7904 29.5971H58.5709C58.4977 29.5971 58.4977 29.524 58.4246 29.524C58.3514 29.524 58.3514 29.4508 58.3514 29.3776C58.3514 29.3045 58.2783 29.2313 58.2783 29.1581V28.1338C58.2707 27.936 58.2954 27.7383 58.3514 27.5485V27.4753C58.3709 27.2026 58.42 26.9327 58.4977 26.6705L59.8878 18.476L56.0103 19.0613L54.8397 26.012C54.7665 26.2315 54.6934 26.3779 54.6202 26.5974C54.6125 26.6528 54.5868 26.7042 54.547 26.7437C54.4739 26.89 54.4739 27.0363 54.4007 27.1095C54.3276 27.1827 54.3276 27.2558 54.3276 27.329C54.3276 27.4022 54.2544 27.5485 54.1812 27.6948C54.1081 27.8412 54.1081 27.8412 54.1081 27.9143C54.1081 27.9875 54.0349 28.1338 53.9618 28.207C53.8886 28.2802 53.8886 28.3533 53.8886 28.4265C53.8886 28.4996 53.8154 28.646 53.7423 28.7191C53.6691 28.7923 53.6691 28.8655 53.5959 28.9386C53.5228 29.0118 53.5228 29.085 53.4496 29.2313C53.3765 29.3776 53.3765 29.3776 53.3033 29.4508C53.2301 29.524 53.2301 29.5971 53.157 29.6703C53.0838 29.7435 53.0838 29.8166 53.0107 29.8898C52.9375 29.9629 52.9375 30.0361 52.8643 30.1093C52.7912 30.1824 52.7912 30.2556 52.718 30.2556C52.6449 30.2556 52.6449 30.4019 52.5717 30.4751C52.4985 30.5483 52.4985 30.6214 52.4254 30.6214C52.3522 30.6214 52.3522 30.7678 52.279 30.7678L52.1327 30.9141L51.9864 31.0604L51.8401 31.2068L51.6938 31.3531C51.6206 31.3531 51.6206 31.4263 51.5474 31.4263C51.492 31.434 51.4406 31.4597 51.4011 31.4994C51.328 31.4994 51.328 31.5726 51.2548 31.5726C51.1993 31.5803 51.1479 31.606 51.1085 31.6457C51.0353 31.6457 51.0353 31.6457 50.9622 31.7189H50.3769L52.4985 19.6467L48.5478 20.3052L48.2552 22.2075L48.182 22.1343C48.182 22.0611 48.1089 22.0611 48.1089 21.988V21.9148C48.0357 21.8416 48.0357 21.7685 47.9625 21.6953C47.8894 21.6221 47.8162 21.4758 47.7431 21.4026L47.4504 21.11C47.431 21.11 47.4124 21.1023 47.3987 21.0885C47.385 21.0748 47.3773 21.0562 47.3773 21.0368C47.2309 20.9636 47.1578 20.8905 47.0115 20.8173H46.9383C46.7828 20.7258 46.6065 20.6754 46.4262 20.671C46.2381 20.6071 46.0389 20.5822 45.8409 20.5978H45.7677C45.594 20.5916 45.4206 20.6164 45.2556 20.671C44.5693 20.8265 43.9283 21.1385 43.3826 21.5828C42.8369 22.027 42.4012 22.5913 42.1097 23.2318C41.6808 24.0986 41.3377 25.0053 41.0854 25.9389C40.8167 27.1919 40.6455 28.4639 40.5733 29.7435C40.4976 30.7212 40.5467 31.7047 40.7196 32.6701C40.7928 32.8896 40.7928 33.109 40.8659 33.2554C40.9391 33.4017 40.9391 33.4017 40.9391 33.4749C40.9391 33.548 41.0122 33.6944 41.0854 33.8407C41.1586 33.987 41.1586 33.987 41.2317 34.0602C41.3087 34.1409 41.3597 34.2428 41.3781 34.3529C41.4512 34.426 41.4512 34.4992 41.5244 34.5723L41.7439 34.7918C41.817 34.865 41.8902 34.865 41.8902 34.9382L42.1097 35.1577C42.1828 35.2308 42.256 35.2308 42.3291 35.304C42.4023 35.3772 42.4755 35.3772 42.6218 35.4503C42.7681 35.5235 42.7681 35.5235 42.8413 35.5235C42.9144 35.5235 43.0608 35.5967 43.1339 35.5967H43.8655C44.8249 35.3818 45.6789 34.8383 46.2798 34.0602L45.4019 39.5476C45.3416 39.7616 45.3169 39.984 45.3287 40.2061V42.1815C45.3178 42.2847 45.3437 42.3883 45.4019 42.4742C45.3971 42.5139 45.4012 42.5542 45.4139 42.5921C45.4265 42.6301 45.4474 42.6648 45.4751 42.6937C45.4751 42.7668 45.5482 42.9132 45.5482 42.9863C45.5482 43.0595 45.6214 43.1327 45.6214 43.2058C45.6214 43.279 45.6946 43.3522 45.6946 43.4253C45.6946 43.4985 45.7677 43.5717 45.7677 43.6448C45.7677 43.718 45.8409 43.7911 45.8409 43.8643C45.8486 43.9198 45.8743 43.9712 45.914 44.0106C45.9872 44.0838 45.9872 44.157 46.0604 44.2301C46.1335 44.3033 46.1335 44.3033 46.1335 44.3765C46.1335 44.4496 46.2067 44.5228 46.2798 44.5228L46.4262 44.6691C46.4993 44.7423 46.5725 44.7423 46.5725 44.8155C46.5725 44.8886 46.6456 44.8886 46.7188 44.8886C46.792 44.8886 46.8651 44.9618 46.9383 45.035C47.0115 45.1081 47.0115 45.1081 47.0846 45.1081C47.1135 45.1358 47.1482 45.1567 47.1861 45.1693C47.2241 45.182 47.2644 45.1861 47.3041 45.1813C47.3773 45.1813 47.3773 45.1813 47.4504 45.2545C47.5628 45.3136 47.6898 45.339 47.8162 45.3276H48.2552C48.4289 45.3338 48.6023 45.3091 48.7673 45.2545C50.5963 44.9618 51.7669 42.6205 52.4254 40.1329C52.558 39.6528 52.6558 39.1638 52.718 38.6696C52.8759 37.7994 52.9737 36.9193 53.0107 36.0357C53.0491 35.3402 52.9497 34.6439 52.718 33.987C52.6487 33.8017 52.5499 33.6287 52.4254 33.4749C52.9045 33.2204 53.3275 32.8721 53.6691 32.4506C54.0516 31.9929 54.3943 31.5034 54.6934 30.9873C54.7543 31.1867 54.8276 31.3822 54.9128 31.5726C54.9206 31.628 54.9463 31.6794 54.986 31.7189C55.0592 31.8652 55.1323 31.9384 55.1323 32.0847C55.1323 32.2311 55.2055 32.2311 55.2787 32.2311L55.4981 32.4506L55.6445 32.5969C55.7176 32.6701 55.7908 32.7432 55.8639 32.7432C55.9371 32.7432 55.9371 32.8164 56.0103 32.8164C56.0834 32.8164 56.1566 32.8896 56.2297 32.9627C56.3029 33.0359 56.3029 33.0359 56.3761 33.0359C56.4492 33.0359 56.5224 33.109 56.6687 33.109C56.815 33.109 56.7419 33.109 56.815 33.1822H57.254C57.4277 33.1884 57.6011 33.1637 57.7661 33.109C59.2293 32.8896 60.2536 31.7921 61.0584 30.1093C61.1181 30.2855 61.1915 30.4567 61.2779 30.6214C61.2779 30.6946 61.351 30.6946 61.351 30.7678C61.351 30.8409 61.4973 30.9873 61.5705 31.0604L61.7168 31.2068L61.9363 31.4263L62.0826 31.5726C62.1558 31.6457 62.229 31.7189 62.3021 31.7189C62.3753 31.7189 62.3753 31.7921 62.4484 31.7921C62.5216 31.7921 62.5948 31.8652 62.6679 31.9384C62.7411 32.0116 62.7411 32.0116 62.8142 32.0116C62.8874 32.0116 63.0337 32.0847 63.1069 32.0847H63.619C63.7927 32.091 63.9661 32.0662 64.1311 32.0116C64.7847 31.9285 65.3974 31.6477 65.887 31.2068C66.2811 30.9224 66.6269 30.5765 66.9113 30.1824C67.4336 29.5569 67.876 28.8687 68.2282 28.1338C68.3013 28.3533 68.3013 28.4996 68.3745 28.7191C68.3745 28.7923 68.4476 28.8655 68.4476 28.9386C68.4476 29.0118 68.5208 29.1581 68.594 29.3045C68.6671 29.4508 68.6671 29.4508 68.7403 29.524C68.8173 29.6046 68.8683 29.7066 68.8866 29.8166C68.9598 29.8898 68.9598 29.9629 69.0329 29.9629L69.2524 30.1824L69.3987 30.3288C69.4719 30.4019 69.5451 30.4751 69.6182 30.4751C69.6914 30.4751 69.7645 30.5483 69.8377 30.6214C69.9109 30.6946 69.984 30.6946 70.1303 30.7678C70.2767 30.8409 70.2767 30.8409 70.3498 30.8409C70.423 30.8409 70.5693 30.9141 70.6425 30.9141H71.3741C73.3494 30.6214 74.5932 28.1338 74.5932 28.1338V28.207C74.5932 28.2802 74.6663 28.2802 74.6663 28.3533C74.6663 28.4265 74.7395 28.4996 74.8127 28.5728V28.646C74.8858 28.7191 74.959 28.8655 75.0321 28.9386L75.1053 29.0118L75.3979 29.3045H75.4711C75.6174 29.3776 75.7637 29.524 75.9101 29.5971C76.0748 29.6835 76.246 29.7569 76.4222 29.8166H76.4954C76.6835 29.8805 76.8826 29.9054 77.0806 29.8898H77.227C77.4007 29.896 77.5741 29.8712 77.7391 29.8166C79.4218 29.524 80.7387 28.207 81.763 26.3779C81.8239 26.5773 81.8972 26.7728 81.9824 26.9632C81.9902 27.0186 82.0159 27.07 82.0556 27.1095C82.1288 27.2558 82.2019 27.329 82.2019 27.4753C82.2019 27.6217 82.2751 27.6217 82.3482 27.6217L82.5677 27.8412L82.7141 27.9875L82.9335 28.207C83.0067 28.2802 83.0067 28.2802 83.0799 28.2802C83.153 28.2802 83.2262 28.3533 83.3725 28.4265C83.5188 28.4996 83.4457 28.4996 83.5188 28.4996C83.592 28.4996 83.7383 28.5728 83.8115 28.5728H83.9578C84.1041 28.5728 84.2504 28.646 84.4699 28.646C84.6439 28.6578 84.8183 28.6328 84.982 28.5728C87.0306 28.2802 88.4938 26.3779 89.5912 24.1097C89.6644 24.3292 89.8107 24.6219 89.8838 24.8414C89.957 24.9146 89.957 24.9877 90.0302 25.0609C90.1015 25.2231 90.2006 25.3716 90.3228 25.4999C90.396 25.573 90.4691 25.6462 90.4691 25.7194C90.4691 25.7925 90.6886 25.9389 90.7618 26.012L90.9813 26.2315C91.1201 26.3059 91.244 26.4051 91.3471 26.5242C91.4202 26.5974 91.4934 26.5974 91.5665 26.6705L92.0055 26.89C92.0787 26.89 92.1518 26.9632 92.225 26.9632C92.484 27.0537 92.7555 27.1031 93.0298 27.1095H93.1029C93.3956 27.1095 93.6151 27.1827 93.9077 27.1827C94.275 27.1948 94.6426 27.1703 95.0051 27.1095C95.5266 27.0307 96.0405 26.9083 96.5415 26.7437C97.02 26.6142 97.4677 26.3903 97.8584 26.0852C98.6538 25.5564 99.3897 24.9432 100.053 24.2561L99.7606 26.0852L103.638 25.4999L105.174 16.6469C105.906 15.2568 106.784 14.5251 107.296 14.452H107.589C107.662 14.452 107.662 14.452 107.735 14.5251C107.755 14.5251 107.773 14.5328 107.787 14.5465C107.801 14.5603 107.808 14.5789 107.808 14.5983L107.881 14.6714L107.955 14.7446C107.955 14.8178 108.028 14.8909 108.028 14.9641V15.2568L106.93 22.4269V23.0854C106.919 23.2119 106.944 23.3389 107.004 23.4513C107.004 23.5244 107.077 23.5976 107.077 23.6708C107.077 23.7439 107.15 23.8902 107.223 23.9634C107.226 24.0011 107.243 24.0364 107.27 24.0632C107.296 24.09 107.332 24.1064 107.369 24.1097C107.442 24.1829 107.516 24.2561 107.516 24.3292L107.662 24.4756C107.735 24.5487 107.808 24.6219 107.881 24.6219C107.955 24.6219 108.028 24.6951 108.101 24.7682C108.174 24.8414 108.247 24.8414 108.32 24.9146C108.394 24.9877 108.467 24.9877 108.54 24.9877C108.613 24.9877 108.759 25.0609 108.833 25.0609H109.491L110.223 24.9146H110.296L119.587 23.3781L119.734 23.0123L120.538 18.3297L110.223 20.5247ZM47.2309 24.6951L46.4993 28.7191V28.7923C46.4993 28.8655 46.4262 28.9386 46.4262 29.0118C46.4262 29.085 46.353 29.1581 46.2798 29.3045V29.3776C46.2028 29.4583 46.1518 29.5603 46.1335 29.6703V29.7435C46.0604 29.8166 45.9872 29.9629 45.914 30.0361L45.8409 30.1093C45.7677 30.1824 45.6946 30.3288 45.5482 30.4019H45.4751C45.3635 30.4911 45.2404 30.5649 45.1093 30.6214C44.9758 30.7026 44.8258 30.7526 44.6703 30.7678H44.3777C44.3045 30.7678 44.3045 30.7678 44.2313 30.6946C44.2217 30.6946 44.2122 30.6927 44.2033 30.689C44.1945 30.6854 44.1864 30.68 44.1796 30.6732C44.1728 30.6664 44.1674 30.6583 44.1637 30.6494C44.1601 30.6406 44.1582 30.631 44.1582 30.6214C44.085 30.6214 44.085 30.5483 44.0119 30.4751L43.9387 30.4019C43.8655 30.3288 43.8655 30.2556 43.7924 30.1093C43.7182 29.5753 43.7182 29.0336 43.7924 28.4996C43.8655 27.9875 43.9387 27.4753 44.0119 26.89C44.085 26.7437 44.085 26.5242 44.1582 26.3779C44.2355 26.0221 44.3585 25.6778 44.524 25.3535C44.7178 24.7747 45.0434 24.2487 45.4751 23.8171C45.6946 23.6708 45.8409 23.5244 46.0604 23.5244H46.4262C46.4993 23.5244 46.5725 23.5976 46.6456 23.5976H46.7188L46.9383 23.8171C46.9383 23.8365 46.946 23.8551 46.9597 23.8688C46.9734 23.8825 46.992 23.8902 47.0115 23.8902C47.0192 23.9457 47.0449 23.9971 47.0846 24.0366C47.0846 24.056 47.0923 24.0746 47.106 24.0883C47.1198 24.102 47.1384 24.1097 47.1578 24.1097C47.1578 24.1829 47.2309 24.1829 47.2309 24.2561V24.3292C47.2309 24.4024 47.2309 24.4024 47.3041 24.4756V24.5487L47.2309 24.6951ZM50.5963 35.3772C50.4415 36.8298 50.1971 38.2714 49.8647 39.6939C49.812 39.9764 49.7131 40.2483 49.5721 40.4987C49.4557 40.8054 49.3086 41.0996 49.1331 41.3767C48.9868 41.523 48.9136 41.5962 48.7673 41.5962H48.4747L48.4015 41.523V40.6451C48.3901 40.5186 48.4155 40.3916 48.4747 40.2792L49.5721 33.4017C50.0842 33.4749 50.7427 34.0602 50.5963 35.3772ZM73.9347 24.4024C73.8732 24.6135 73.774 24.8118 73.6421 24.9877C73.4797 25.2216 73.3331 25.466 73.2031 25.7194C73.13 25.8657 72.9836 25.9389 72.9105 26.012C72.6999 26.2338 72.4113 26.365 72.1057 26.3779H71.8131C71.7399 26.3779 71.7399 26.3047 71.6667 26.3047C71.6473 26.3047 71.6287 26.297 71.615 26.2833C71.6013 26.2695 71.5936 26.2509 71.5936 26.2315L71.4472 26.0852L71.3741 26.012C71.3009 25.9389 71.3009 25.7925 71.2278 25.6462C71.1531 25.2596 71.1531 24.8622 71.2278 24.4756C71.3149 23.6129 71.4615 22.7572 71.6667 21.9148C71.7437 21.5822 71.8668 21.2621 72.0325 20.9636L72.252 20.5247C72.5447 19.9393 72.8373 19.5003 73.2763 19.354C73.3621 19.2958 73.4658 19.2699 73.5689 19.2808H73.9347C74.0079 19.2808 74.0079 19.354 74.081 19.354L74.1542 19.4272C74.2274 19.4272 74.2274 19.5003 74.3005 19.5003L74.3737 19.5735C74.3737 19.6467 74.4468 19.6467 74.4468 19.7198L74.52 19.793C74.52 19.8662 74.5932 19.8662 74.5932 19.9393C74.5932 19.9587 74.6009 19.9773 74.6146 19.9911C74.6283 20.0048 74.6469 20.0125 74.6663 20.0125C74.6663 20.0857 74.6663 20.0857 74.7395 20.1588V20.3783L73.9347 24.4024Z" fill="white"/>
<path d="M39.0367 15.7689C39.622 15.2568 43.4995 14.5251 44.2312 14.3788C44.3043 14.1593 44.3043 13.7935 44.3775 13.4277C44.4506 13.0618 44.5238 12.6228 44.597 12.1839C44.9628 9.40358 44.9628 5.52583 41.1584 4.50152C40.7926 4.42836 40.4999 4.35519 40.2073 4.28203H39.9147C39.6952 4.28203 39.4757 4.20886 39.2562 4.20886H38.5246C38.3051 4.20886 38.1588 4.28203 37.9393 4.28203H37.793C37.5735 4.35519 37.354 4.35519 37.1345 4.42836C37.0791 4.43609 37.0277 4.46179 36.9882 4.50152C36.8419 4.57469 36.6956 4.57469 36.5492 4.64785C36.4029 4.72102 36.4029 4.72102 36.3298 4.72102C36.2164 4.78903 36.0929 4.83844 35.964 4.86735C35.8908 4.86735 35.8176 4.94051 35.7445 5.01368C35.6713 5.08684 35.525 5.16001 35.3787 5.23317C35.2323 5.30634 35.2323 5.30634 35.1592 5.3795C35.086 5.45267 34.9397 5.52583 34.7934 5.599C34.6471 5.67216 34.6471 5.67216 34.6471 5.74533C34.5114 5.82435 34.3881 5.92296 34.2813 6.03799C34.2618 6.03799 34.2432 6.0457 34.2295 6.05942C34.2158 6.07314 34.2081 6.09175 34.2081 6.11116C34.0618 6.25749 33.9154 6.33065 33.7691 6.47698L33.6228 6.62331C33.5394 6.71369 33.4403 6.78807 33.3302 6.84281L33.1838 6.98914L32.9644 7.20863L32.818 7.35496L32.5985 7.57446C32.5985 7.64762 32.5254 7.64762 32.5254 7.72079C32.5254 7.79395 32.3791 7.86712 32.3791 7.94028L32.3059 8.01345C32.2155 8.09682 32.1412 8.196 32.0864 8.30611C31.0622 9.69625 30.4769 11.8912 30.2574 14.2325C30.0379 16.5738 30.4769 19.6467 31.5743 23.305C31.7938 23.8171 31.9401 24.4756 32.1596 25.1341C32.6274 26.5008 32.8743 27.9332 32.8912 29.3777C32.8912 29.6703 32.818 29.963 32.818 30.1825C32.818 30.2556 32.7449 30.3288 32.7449 30.402C32.7449 30.4751 32.6717 30.7678 32.5985 30.9141C32.5254 31.0605 32.5254 31.0605 32.4522 31.2068C32.3842 31.3201 32.3348 31.4436 32.3059 31.5726C32.2327 31.6458 32.2327 31.7189 32.1596 31.7921C32.0864 31.8653 32.0133 32.0116 31.9401 32.0848L31.7206 32.3043C31.6372 32.3946 31.5381 32.469 31.428 32.5238C31.3548 32.5969 31.2817 32.5969 31.1353 32.6701C31.0353 32.7619 30.9052 32.8139 30.7695 32.8164C30.6837 32.8746 30.58 32.9005 30.4769 32.8896C30.3306 32.8896 30.2574 32.9628 30.1111 32.9628H29.16C28.1252 32.9552 27.1308 32.5605 26.3725 31.8563C25.6142 31.1522 25.147 30.1896 25.063 29.1582C25.063 28.9387 24.9898 28.7192 24.9898 28.4997V27.1095C24.9742 26.9115 24.9991 26.7123 25.063 26.5242L23.3071 26.8169L19.1369 27.4754L15.6983 27.9875L9.99178 28.8655L9.7723 29.8898L8.96753 33.4017L17.82 31.0605C17.8932 31.3531 17.9663 31.6458 18.0395 31.8653C18.0395 31.9384 18.1127 32.0116 18.1127 32.1579C18.1724 32.3341 18.2458 32.5054 18.3321 32.6701C18.4053 32.7433 18.4053 32.8896 18.4785 32.9628C18.5649 33.1275 18.6382 33.2987 18.6979 33.4749C18.7711 33.6212 18.8443 33.6944 18.8443 33.8407L19.0638 34.2797C19.1369 34.4261 19.2101 34.4992 19.2832 34.6455C19.3546 34.8077 19.4536 34.9563 19.5759 35.0845C19.649 35.1577 19.7222 35.304 19.7954 35.3772C19.8744 35.5129 19.973 35.6362 20.088 35.743C20.1612 35.8162 20.2343 35.9625 20.3807 36.0357L20.7465 36.4015L21.0391 36.6942L21.4049 37.06C21.4781 37.1332 21.6244 37.2063 21.6976 37.3527C21.8258 37.4749 21.9743 37.5739 22.1365 37.6453C22.2097 37.7185 22.356 37.7916 22.4292 37.8648C22.5904 37.978 22.7619 38.076 22.9413 38.1575C23.0876 38.2306 23.1608 38.3038 23.3071 38.377C23.5093 38.4596 23.705 38.5574 23.8924 38.6696C23.9655 38.7428 24.1119 38.7428 24.185 38.816C24.4405 38.9455 24.7108 39.0438 24.9898 39.1086H25.063L26.0141 39.3281C26.1172 39.3172 26.2209 39.3431 26.3067 39.4013C26.5262 39.4013 26.7457 39.4744 26.9651 39.4744H27.9894C28.4054 39.4888 28.8217 39.4643 29.2331 39.4013C30.2113 39.279 31.1701 39.0331 32.0864 38.6696C32.9523 38.3037 33.7846 37.8631 34.5739 37.3527L35.6713 36.4747C36.3305 35.8788 36.8976 35.1884 37.354 34.4261C37.5735 34.0602 37.793 33.6212 38.0125 33.2554C38.0856 33.1091 38.0856 33.0359 38.1588 32.8896C38.8245 31.2185 39.0756 29.411 38.8904 27.6217C38.8025 26.6686 38.5809 25.7327 38.232 24.8414C38.1588 24.6951 38.1588 24.5488 38.0856 24.4756C37.6285 23.3048 37.0652 22.1782 36.4029 21.11L35.7445 20.0125C35.3815 19.3519 35.0637 18.6675 34.7934 17.9639C34.6727 17.6544 34.5749 17.3365 34.5007 17.0128C34.209 15.8412 34.0859 14.634 34.1349 13.4277C34.2036 12.664 34.3258 11.9061 34.5007 11.1595C34.6863 10.575 34.9315 10.0112 35.2323 9.47675C35.3615 9.24626 35.5082 9.02611 35.6713 8.81826C36.0779 8.27503 36.6388 7.86705 37.2809 7.64762C37.4431 7.58221 37.6189 7.55711 37.793 7.57446H38.3783C38.5337 7.58961 38.6838 7.63963 38.8172 7.72079C38.8366 7.72079 38.8553 7.7285 38.869 7.74222C38.8827 7.75594 38.8904 7.77455 38.8904 7.79395C39.0411 7.84877 39.1696 7.9516 39.2562 8.08661C39.7461 8.52025 40.0588 9.11948 40.1341 9.76941C40.2014 10.0569 40.226 10.3527 40.2073 10.6474C40.1633 11.8442 39.9414 13.0278 39.5488 14.1593C39.4222 14.7089 39.251 15.2472 39.0367 15.7689Z" fill="white"/>
<path d="M126.025 19.5003C126.045 19.7887 126.008 20.0781 125.915 20.3521C125.823 20.626 125.678 20.879 125.487 21.0965C125.297 21.3141 125.066 21.4919 124.806 21.6197C124.547 21.7476 124.265 21.823 123.977 21.8416C123.682 21.8717 123.385 21.8421 123.103 21.7544C122.82 21.6668 122.559 21.523 122.333 21.3317C122.108 21.1404 121.923 20.9054 121.791 20.641C121.658 20.3766 121.581 20.0881 121.562 19.7929C121.543 19.4987 121.582 19.2035 121.679 18.9249C121.776 18.6463 121.928 18.3901 122.126 18.1716C122.324 17.9531 122.564 17.7767 122.832 17.653C123.099 17.5293 123.389 17.4608 123.684 17.4517C124.259 17.4406 124.818 17.6445 125.251 18.0233C125.684 18.4021 125.96 18.9287 126.025 19.5003ZM122.074 19.7929C122.088 20.0189 122.147 20.2399 122.246 20.4432C122.346 20.6465 122.485 20.8281 122.655 20.9777C122.825 21.1272 123.022 21.2417 123.237 21.3147C123.451 21.3876 123.678 21.4175 123.903 21.4026C124.245 21.3816 124.572 21.2597 124.844 21.0526C125.116 20.8454 125.32 20.5621 125.431 20.2388C125.542 19.9154 125.554 19.5664 125.466 19.236C125.378 18.9056 125.195 18.6087 124.938 18.3829C124.681 18.1571 124.363 18.0125 124.025 17.9675C123.686 17.9225 123.341 17.9791 123.035 18.1301C122.728 18.2811 122.473 18.5197 122.302 18.8157C122.131 19.1118 122.052 19.4519 122.074 19.7929ZM123.538 20.8904H123.026L122.879 18.6955C123.099 18.6223 123.318 18.6223 123.684 18.5491C123.954 18.5253 124.227 18.5501 124.489 18.6223C124.565 18.6653 124.626 18.73 124.666 18.8083C124.705 18.8865 124.72 18.9746 124.708 19.0613C124.705 19.1841 124.66 19.3021 124.58 19.3954C124.5 19.4887 124.39 19.5516 124.269 19.5734C124.383 19.6099 124.484 19.677 124.561 19.7674C124.639 19.8579 124.69 19.968 124.708 20.0856C124.737 20.272 124.813 20.4481 124.928 20.5978L124.416 20.6709C124.316 20.513 124.241 20.3401 124.196 20.1588C124.186 20.1037 124.163 20.0515 124.131 20.0059C124.098 19.9602 124.056 19.9222 124.008 19.8943C123.959 19.8665 123.905 19.8496 123.849 19.8447C123.793 19.8398 123.737 19.8471 123.684 19.8661H123.465L123.538 20.8904ZM123.465 19.6466H123.684C123.977 19.6466 124.196 19.5003 124.196 19.2808C124.196 19.0613 124.05 18.9881 123.684 18.9881C123.538 18.9881 123.465 18.9881 123.391 19.0613L123.465 19.6466Z" fill="white"/>
</g>
<defs>
<clipPath id="clip0_3_88">
<rect width="117.065" height="42.6553" fill="white" transform="translate(8.96753 2.67237)"/>
</clipPath>
</defs>
</svg>