<svg xmlns:xlink="http://www.w3.org/1999/xlink" xmlns="http://www.w3.org/2000/svg" width="135" height="48" viewBox="0 0 135 48" fill="none">
<path d="M126.661 0.159468L107.764 4.54485C107.445 4.62458 107.205 4.38538 107.205 3.98671V0.797342C107.205 0.478405 106.966 0.239203 106.647 0.239203L88.3084 4.46512C87.9894 4.54485 87.7503 4.30565 87.7503 3.90698V0.717608C87.7503 0.398671 87.511 0.159468 87.1921 0.159468L68.8532 4.38538C68.5343 4.46512 68.2951 4.22591 68.2951 3.82724V0.637874C68.2951 0.318937 68.0559 0.0797342 67.737 0.0797342L49.3981 4.30565C49.0792 4.38538 48.84 4.14618 48.84 3.74751V0.55814C48.84 0.239203 48.6007 0 48.2818 0L29.9429 4.22591C29.624 4.30565 29.3848 4.06644 29.3848 3.66777V0.956811C29.3848 0.55814 29.0659 0.318937 28.7469 0.478405L8.33497 9.64784L27.232 5.26246C27.5509 5.18272 27.7901 5.42193 27.7901 5.8206V9.00997C27.7901 9.3289 28.0293 9.56811 28.3483 9.56811L46.6871 5.34219C47.0061 5.26246 47.2453 5.50166 47.2453 5.90033V9.0897C47.2453 9.40864 47.4845 9.64784 47.8034 9.64784L66.1423 5.42193C66.4612 5.34219 66.7004 5.5814 66.7004 5.98007V9.16944C66.7004 9.48837 66.9396 9.72757 67.2586 9.72757L85.5974 5.50166C85.9164 5.42193 86.1556 5.66113 86.1556 6.0598V9.24917C86.1556 9.56811 86.3948 9.80731 86.7137 9.80731L105.053 5.5814C105.372 5.50166 105.611 5.74086 105.611 6.13953V9.16944C105.611 9.56811 105.93 9.80731 106.249 9.64784L126.661 0.159468ZM3.71039 27.3488H13.7569V32.1329H8.57417V34.7641H13.5177V39.2292H8.57417V47.3621H3.71039V27.3488ZM16.3084 27.3488H21.0924V42.4983H26.036V47.3621H16.3084V27.3488ZM34.4878 39.7874V47.3621H29.624V39.7874L24.84 27.3488H29.9429L32.0958 34.0465H32.2552L34.4081 27.3488H39.2718L34.4878 39.7874ZM46.9263 47.3621V27.3488H52.7469C56.9728 27.3488 58.8067 29.8206 58.8067 32.4518C58.8067 35.0831 57.1323 36.5183 56.1755 36.9967V37.1561C57.8499 37.7143 59.1257 39.5482 59.1257 41.6213C59.1257 44.8904 57.212 47.3621 53.1456 47.3621H46.9263ZM51.7104 35.3223H52.3483C53.5443 35.3223 54.1024 34.6844 54.1024 33.5681C54.1024 32.4518 53.624 31.814 52.5077 31.814H51.7104V35.3223ZM51.7104 39.309V43.0565H52.6672C53.7835 43.0565 54.3416 42.3389 54.3416 41.2226C54.3416 40.1063 53.7835 39.309 52.5875 39.309H51.7104ZM69.0924 39.7874V47.3621H64.3084V39.7874L59.5243 27.3488H64.6273L66.7801 34.0465H66.9396L69.0924 27.3488H73.9562L69.0924 39.7874ZM84.6406 40.4253C84.5609 42.4186 85.119 43.0565 85.9961 43.0565C86.8732 43.0565 87.3516 42.4983 87.3516 41.2226V27.3488H92.2154V41.2226C92.2154 46.6445 89.026 47.9203 86.1556 47.9203C83.2054 47.9203 80.016 46.0066 80.335 40.3455H84.6406V40.4253ZM87.2718 25.3555H92.1356V26.0731H87.2718V25.3555ZM94.7669 25.3555H99.6306V26.0731H94.7669V25.3555ZM94.7669 27.3488H99.6306V47.3621H94.7669V27.3488ZM107.365 37.0764H107.205V47.3621H102.74V27.3488H107.843L111.431 36.6777H111.591V27.3488H116.056V47.3621H111.192L107.365 37.0764ZM124.667 36.9169H131.285V40.8239C131.285 46.7243 127.617 48 125.066 48C122.514 48 118.687 46.9635 118.687 40.7442V33.8073C118.687 28.2259 122.275 26.7907 125.066 26.7907C127.298 26.7907 131.445 27.7475 131.285 34.206L126.661 34.1262C126.661 32.0532 125.943 31.6545 125.066 31.6545C124.269 31.6545 123.471 32.1329 123.471 33.5681V41.3023C123.471 42.7375 124.189 43.2957 125.146 43.2957C126.023 43.2957 126.74 42.8173 126.74 41.5415V41.1429H124.747V36.9169H124.667Z" fill="white"/>
</svg>