<svg xmlns:xlink="http://www.w3.org/1999/xlink" xmlns="http://www.w3.org/2000/svg" width="135" height="48" viewBox="0 0 135 48" fill="none">
<g clip-path="url(#clip0_3_130)">
<path d="M106.881 37.741C104.107 37.7285 101.361 37.19 98.7879 36.1541C97.5492 35.625 96.4258 34.8592 95.4809 33.8998C94.0602 32.5215 92.8388 30.9521 91.8519 29.2368C91.2145 28.1347 90.6901 26.9673 90.1397 25.8173C90.0469 25.582 89.8836 25.3811 89.6721 25.2422C89.4606 25.1032 89.2113 25.0331 88.9583 25.0412C85.3177 25.0412 81.6844 25.0412 78.0583 25.0412C77.8058 25.0393 77.5582 25.1105 77.3454 25.2463C77.1326 25.3822 76.9638 25.5767 76.8595 25.8064C76.1785 27.0716 75.4845 28.3281 74.7904 29.5868C74.662 29.8537 74.4384 30.063 74.1635 30.1736C73.8885 30.2843 73.5821 30.2882 73.3045 30.1846C72.6887 29.9672 72.4342 29.302 72.7584 28.6629C73.163 27.8412 73.5916 27.0303 74.0137 26.2151C74.8535 24.5862 75.6941 22.9587 76.5353 21.3326C78.1605 18.1935 79.7792 15.0523 81.4197 11.9219C81.6283 11.546 81.9346 11.2333 82.3061 11.0166C82.6777 10.7999 83.1008 10.6873 83.531 10.6907C83.9612 10.694 84.3826 10.8131 84.7507 11.0355C85.1189 11.258 85.4202 11.5754 85.623 11.9545C86.465 13.561 87.2787 15.1827 88.112 16.7957C89.8786 20.2239 91.6561 23.6434 93.4162 27.076C93.9333 28.151 94.5456 29.1775 95.246 30.1433C96.2511 31.4477 97.3759 32.6542 98.8053 33.5194C99.8366 34.1411 100.981 34.4802 102.143 34.7715C103.848 35.2046 105.606 35.3978 107.364 35.3454C110.876 35.2345 114.152 34.3498 117.042 32.2911C117.75 31.7404 118.422 31.1449 119.054 30.5085C119.204 30.3423 119.4 30.225 119.618 30.1723C119.835 30.1195 120.063 30.1337 120.273 30.2129C120.471 30.2823 120.645 30.4094 120.771 30.5778C120.897 30.7463 120.969 30.9485 120.98 31.1585C121.004 31.3105 120.992 31.4661 120.944 31.6122C120.895 31.7584 120.812 31.8906 120.701 31.9976C119.135 33.452 117.573 34.9259 115.614 35.8584C113.762 36.7331 111.777 37.2937 109.74 37.5171C108.785 37.6149 107.832 37.6649 106.881 37.741ZM83.4974 22.9347H87.3266C88.0989 22.9347 88.4253 22.4152 88.0837 21.7304C87.3585 20.2594 86.626 18.7892 85.8863 17.3196C85.3467 16.237 84.8064 15.1559 84.2654 14.0762C84.2066 13.9252 84.1025 13.796 83.9673 13.7065C83.8322 13.617 83.6726 13.5715 83.5105 13.5762C83.3483 13.5726 83.1889 13.6185 83.0536 13.7079C82.9183 13.7972 82.8136 13.9257 82.7533 14.0762C82.5532 14.4914 82.3465 14.9066 82.1398 15.3197C81.0723 17.4645 80.0019 19.6094 78.9285 21.7543C78.6022 22.4065 78.9285 22.9326 79.6726 22.9347H83.4974Z" fill="white"/>
<path d="M13.4582 19.9567L14.7005 19.0871L22.1957 13.7568C23.5605 12.7872 24.9261 11.8191 26.2924 10.8525C26.4601 10.7353 26.6538 10.6607 26.8568 10.6353C27.0598 10.6098 27.266 10.6342 27.4574 10.7064C27.6488 10.7786 27.8197 10.8963 27.9553 11.0495C28.0908 11.2026 28.1869 11.3864 28.2353 11.5851C28.2699 11.7535 28.256 11.9283 28.1951 12.0892C28.1343 12.25 28.029 12.3903 27.8915 12.4938C27.5108 12.8003 27.1127 13.085 26.7123 13.3503C23.6664 15.5024 20.6132 17.6516 17.5528 19.798C17.407 19.9023 17.2634 20.0154 17.1177 20.1197C16.911 20.2741 16.924 20.3371 17.1503 20.448C17.7638 20.7827 18.3948 21.1001 18.98 21.4719C21.0459 22.8181 22.7935 24.5977 24.1015 26.687C25.0696 28.2147 26.1805 29.6472 27.4194 30.9652C29.2406 32.8732 31.5729 34.2173 34.1379 34.8369C35.654 35.2073 37.2008 35.4387 38.759 35.5282C41.2193 35.7044 43.6904 35.4002 46.0344 34.6325C48.0977 33.9779 49.9989 32.8939 51.6128 31.4521C52.1284 30.9847 52.8203 30.9869 53.2314 31.4652C53.6427 31.9434 53.5709 32.6499 53.0465 33.1238C50.4858 35.439 47.4094 36.639 44.0741 37.2803C42.7529 37.5245 41.4142 37.6626 40.0709 37.6933C37.9233 37.7761 35.7753 37.5417 33.6962 36.9977C30.9945 36.2829 28.5039 34.9305 26.4338 33.0543C25.0372 31.7633 23.8078 30.3027 22.7744 28.7065C21.8128 27.2461 20.6872 25.9004 19.4195 24.6957C18.5079 23.8436 17.5767 23.0023 16.4236 22.4784C15.8988 22.2657 15.3611 22.0863 14.8136 21.9414C14.7152 21.9089 14.6081 21.9143 14.5134 21.9566C14.1506 22.1774 13.8005 22.4183 13.4647 22.6784C13.3821 22.7436 13.3799 22.9392 13.3799 23.074C13.3799 25.0305 13.3799 26.987 13.3799 28.9435C13.3906 29.1005 13.3703 29.2581 13.32 29.4072C13.2698 29.5564 13.1906 29.6942 13.0871 29.8128C12.9836 29.9314 12.8577 30.0284 12.7166 30.0984C12.5755 30.1684 12.422 30.2099 12.2649 30.2206C12.1077 30.2313 11.95 30.211 11.8007 30.1608C11.6514 30.1106 11.5135 30.0315 11.3948 29.9281C11.2761 29.8246 11.179 29.6988 11.109 29.5579C11.0389 29.4169 10.9974 29.2635 10.9867 29.1065C10.9867 29.0304 10.9867 28.9543 10.9867 28.8891C10.9867 23.2197 10.9867 17.5502 10.9867 11.8807C10.9867 11.2677 11.2913 10.8068 11.7982 10.6503C11.9759 10.5919 12.1648 10.5759 12.3499 10.6035C12.5349 10.6311 12.7109 10.7016 12.8638 10.8093C13.0166 10.9171 13.1421 11.0591 13.2303 11.224C13.3184 11.3889 13.3666 11.5721 13.3712 11.759C13.3842 11.9394 13.3712 12.1198 13.3712 12.2981V19.9067L13.4582 19.9567Z" fill="white"/>
<path d="M99.0161 20.4459V11.9417C99.0161 11.1287 99.4643 10.6787 100.282 10.6787C103.763 10.6787 107.245 10.6396 110.726 10.6983C112.775 10.733 114.666 11.3504 116.193 12.7939C117.192 13.757 117.805 15.0507 117.918 16.4329C118.077 17.759 117.996 19.1029 117.679 20.4003C117.085 22.7589 115.623 24.2589 113.223 24.8067C112.984 24.8632 112.745 24.9154 112.505 24.9763C112.194 25.0567 112.111 25.2241 112.288 25.4958C112.701 26.1154 113.132 26.7262 113.567 27.3306C113.811 27.6697 114.078 27.9827 114.331 28.3175C114.433 28.4398 114.509 28.5814 114.554 28.7338C114.6 28.8863 114.614 29.0464 114.596 29.2044C114.577 29.3625 114.527 29.5152 114.448 29.6533C114.369 29.7915 114.263 29.9122 114.136 30.0082C114.009 30.1042 113.864 30.1734 113.71 30.2117C113.555 30.25 113.394 30.2566 113.237 30.231C113.08 30.2055 112.93 30.1483 112.795 30.063C112.661 29.9778 112.545 29.8661 112.455 29.7349C111.835 28.9132 111.23 28.0784 110.617 27.2523C110.195 26.6828 109.775 26.111 109.348 25.5458C109.245 25.398 109.106 25.2783 108.945 25.1975C108.783 25.1167 108.604 25.0772 108.424 25.0828C106.455 25.0828 104.486 25.0828 102.517 25.0828C102.37 25.0784 102.223 25.1038 102.086 25.1575C101.949 25.2113 101.825 25.2922 101.72 25.3954C101.615 25.4987 101.533 25.622 101.477 25.7581C101.421 25.8942 101.394 26.0401 101.396 26.1871C101.385 27.1415 101.396 28.0958 101.396 29.0501C101.408 29.2756 101.352 29.4995 101.236 29.6931C101.12 29.8868 100.948 30.0413 100.744 30.1371C100.541 30.2443 100.311 30.2895 100.083 30.2671C99.8545 30.2446 99.6379 30.1556 99.46 30.011C99.3143 29.8977 99.1984 29.7505 99.1226 29.5823C99.0468 29.4141 99.0132 29.2299 99.0248 29.0458C99.0219 26.1748 99.019 23.3082 99.0161 20.4459ZM106.725 22.9394C107.784 22.9394 108.844 22.9394 109.903 22.9394C110.793 22.9647 111.683 22.8859 112.555 22.7046C113.93 22.3828 114.896 21.5894 115.338 20.2264C115.676 19.1 115.789 17.9181 115.671 16.7482C115.646 16.1211 115.462 15.5108 115.134 14.9753C114.806 14.4399 114.347 13.9972 113.8 13.6895C112.719 13.0833 111.497 12.7757 110.258 12.7982C107.741 12.7678 105.223 12.7852 102.706 12.7852C101.823 12.7852 101.401 13.2047 101.401 14.0895C101.401 16.6228 101.401 19.1546 101.401 21.685C101.401 22.5068 101.836 22.9415 102.663 22.9437C104.017 22.9437 105.371 22.9423 106.725 22.9394Z" fill="white"/>
<path d="M39.5949 10.2589C41.7858 10.2741 43.8896 10.6633 45.839 11.698C48.613 13.1719 50.2556 15.4762 50.7995 18.5566C51.1366 20.3389 51.0191 22.1772 50.458 23.9022C49.9056 25.5948 48.8517 27.0798 47.436 28.1608C45.6954 29.513 43.6938 30.239 41.5269 30.5238C39.0314 30.8931 36.4824 30.5705 34.1579 29.5912C30.8379 28.1652 28.7601 25.7195 28.2836 22.0913C27.9703 19.7479 28.2836 17.474 29.4628 15.3719C30.2462 13.9828 31.3805 12.8232 32.7524 12.0089C34.3946 11.0345 36.2443 10.4624 38.1503 10.3394C38.6311 10.3002 39.1141 10.285 39.5949 10.2589ZM39.9713 28.5456C41.2386 28.5251 42.4917 28.2754 43.6699 27.8086C45.5301 27.0608 46.9334 25.8239 47.7732 23.9826C48.4296 22.4964 48.6702 20.86 48.4694 19.2479C48.3761 18.2367 48.0702 17.2566 47.5715 16.3717C47.0729 15.4869 46.3928 14.7172 45.5758 14.1132C44.1137 12.9915 42.4233 12.4698 40.6 12.3219C38.4483 12.1502 36.3836 12.435 34.4843 13.5067C32.9047 14.3648 31.6936 15.7704 31.0794 17.4588C30.5289 18.9544 30.4941 20.4761 30.7639 22.0087C31.199 24.5326 32.5414 26.4152 34.8585 27.5521C36.3358 28.2782 37.924 28.5478 39.9713 28.5456Z" fill="white"/>
<path d="M54.8359 20.4479C54.8359 17.6436 54.8468 14.8371 54.8359 12.0307C54.8226 11.8478 54.8489 11.6642 54.913 11.4924C54.977 11.3205 55.0774 11.1645 55.2073 11.035C55.3372 10.9054 55.4935 10.8054 55.6655 10.7416C55.8376 10.6778 56.0214 10.6519 56.2044 10.6655C59.6659 10.6959 63.1295 10.6502 66.5932 10.6959C68.3411 10.6949 70.0431 11.2542 71.4493 12.2915C72.0906 12.7572 72.6257 13.3535 73.0191 14.0412C73.4125 14.7289 73.6554 15.4922 73.7315 16.2806C73.9364 17.8016 73.8373 19.3481 73.44 20.8305C72.7982 23.1022 71.3013 24.437 68.9799 24.8609C67.7506 25.0783 66.5105 25.0283 65.2813 25.0391C62.7749 25.0587 60.2772 25.0696 57.7622 25.0848C57.327 25.0848 57.2357 25.1826 57.2357 25.6283C57.2357 26.7695 57.2357 27.913 57.2357 29.0565C57.2372 29.2511 57.1908 29.4432 57.1007 29.6158C57.0106 29.7884 56.8794 29.9363 56.7187 30.0464C56.558 30.1565 56.3727 30.2255 56.1791 30.2474C55.9855 30.2692 55.7895 30.2432 55.6083 30.1717C55.3804 30.0749 55.1867 29.9123 55.0522 29.7046C54.9176 29.4969 54.8484 29.2538 54.8533 29.0065C54.8533 28.2695 54.8533 27.5348 54.8533 26.7978L54.8359 20.4479ZM62.5834 22.9392C63.5973 22.9392 64.609 22.9544 65.6294 22.9392C66.3669 22.924 67.1066 22.8979 67.8377 22.8153C69.7196 22.5979 70.8618 21.5675 71.3187 19.7458C71.5437 18.7678 71.6112 17.7602 71.5189 16.761C71.4101 15.1937 70.579 14.1067 69.1648 13.4524C68.2314 13.0254 67.2173 12.803 66.1907 12.8002C63.5973 12.7698 61.0039 12.7828 58.4105 12.7872C58.2536 12.7826 58.0974 12.8103 57.9516 12.8686C57.8059 12.9269 57.6737 13.0145 57.5633 13.1261C57.4529 13.2376 57.3666 13.3706 57.3099 13.5169C57.2532 13.6632 57.2272 13.8195 57.2335 13.9763C57.2444 16.5567 57.2857 19.1349 57.2639 21.7131C57.2592 21.8791 57.289 22.0444 57.3513 22.1983C57.4137 22.3523 57.5073 22.4917 57.6263 22.6077C57.7452 22.7238 57.887 22.8139 58.0426 22.8724C58.1981 22.931 58.3642 22.9566 58.5302 22.9479C59.8769 22.9153 61.2302 22.9392 62.5834 22.9392Z" fill="white"/>
<path d="M121.676 21.9566C121.676 19.8885 121.676 17.8204 121.676 15.7523C121.667 15.5051 121.738 15.2614 121.878 15.0571C122.017 14.8529 122.219 14.6988 122.453 14.6176C122.686 14.5314 122.939 14.5194 123.179 14.5833C123.418 14.6471 123.632 14.7837 123.791 14.9741C123.993 15.2526 124.087 15.5946 124.056 15.9371C124.056 17.1545 124.056 18.374 124.056 19.5914V27.8674C124.059 28.0273 124.049 28.1873 124.026 28.3456C123.915 29.0282 123.402 29.4521 122.766 29.3934C122.461 29.3674 122.178 29.225 121.976 28.9959C121.773 28.7668 121.667 28.4685 121.678 28.163C121.678 26.1804 121.678 24.1971 121.678 22.2131C121.678 22.1262 121.678 22.0414 121.676 21.9566Z" fill="white"/>
<path d="M73.3543 32.552C73.3584 32.7222 73.3283 32.8915 73.2657 33.0498C73.2032 33.2082 73.1096 33.3524 72.9903 33.474C72.8711 33.5956 72.7286 33.6921 72.5714 33.7578C72.4142 33.8234 72.2454 33.8569 72.075 33.8563C71.82 33.8584 71.5702 33.785 71.3569 33.6453C71.1437 33.5057 70.9766 33.306 70.8769 33.0715C70.7771 32.8371 70.7492 32.5783 70.7965 32.328C70.8438 32.0776 70.9643 31.8469 71.1428 31.6649C71.3212 31.483 71.5497 31.3579 71.7992 31.3056C72.0488 31.2533 72.3082 31.276 72.5448 31.3709C72.7815 31.4658 72.9847 31.6287 73.1287 31.8389C73.2728 32.0491 73.3513 32.2972 73.3543 32.552Z" fill="white"/>
<path d="M13.3847 32.6499C13.3924 32.8206 13.3645 32.9911 13.3028 33.1506C13.2411 33.31 13.1469 33.4549 13.0262 33.5761C12.9056 33.6973 12.761 33.7921 12.6018 33.8546C12.4425 33.917 12.272 33.9458 12.1011 33.939C11.7618 33.939 11.4364 33.8043 11.1965 33.5646C10.9566 33.3249 10.8218 32.9997 10.8218 32.6607C10.8218 32.3217 10.9566 31.9966 11.1965 31.7569C11.4364 31.5172 11.7618 31.3825 12.1011 31.3825C12.2701 31.3759 12.4388 31.404 12.5965 31.4652C12.7542 31.5263 12.8977 31.6192 13.018 31.738C13.1384 31.8568 13.233 31.9991 13.2961 32.1559C13.3592 32.3128 13.3893 32.4809 13.3847 32.6499Z" fill="white"/>
<path d="M121.615 11.8525C121.61 11.6849 121.64 11.5181 121.702 11.3622C121.763 11.2062 121.856 11.0644 121.974 10.945C122.091 10.8256 122.232 10.7313 122.387 10.6676C122.542 10.6039 122.709 10.5721 122.877 10.5742C123.216 10.5793 123.54 10.7162 123.78 10.9561C124.02 11.1959 124.157 11.5198 124.162 11.859C124.16 12.1974 124.023 12.521 123.782 12.7589C123.541 12.9968 123.215 13.1297 122.877 13.1285C122.708 13.1334 122.541 13.1037 122.384 13.0411C122.228 12.9785 122.086 12.8844 121.968 12.7647C121.85 12.645 121.757 12.5022 121.696 12.3453C121.636 12.1884 121.608 12.0206 121.615 11.8525Z" fill="white"/>
</g>
<defs>
<clipPath id="clip0_3_130">
<rect width="113.339" height="27.4822" fill="white" transform="translate(10.8306 10.2589)"/>
</clipPath>
</defs>
</svg>