<svg xmlns:xlink="http://www.w3.org/1999/xlink" xmlns="http://www.w3.org/2000/svg" width="135" height="48" viewBox="0 0 135 48" fill="none">
<path d="M27.7911 26.2434V13.9673C27.7911 13.7434 27.781 13.5177 27.7911 13.2938C27.84 12.6724 28.0591 12.4248 28.6793 12.4046C29.5776 12.376 30.4776 12.3777 31.376 12.4046C31.9153 12.4198 32.1209 12.6488 32.1732 13.1843C32.1917 13.3796 32.1732 13.5767 32.1732 13.7737V34.5639C32.1732 34.7054 32.1732 34.8451 32.1732 34.9849C32.1732 35.3722 32.1175 35.7528 31.7029 35.8808C31.2883 36.0087 30.8097 36.0492 30.4439 35.6753C30.1069 35.3385 29.7698 34.9933 29.4546 34.6397C27.9816 33.0231 26.5169 31.3997 25.0439 29.7814C22.9428 27.4598 20.8332 25.1404 18.7152 22.8233C18.1742 22.2322 17.6096 21.6614 16.9085 20.9272C16.8832 21.4121 16.8562 21.7035 16.8562 21.9965C16.8562 26.0099 16.8562 30.0223 16.8562 34.0335C16.8562 34.2574 16.8646 34.4831 16.8562 34.707C16.8158 35.352 16.6152 35.5844 15.9933 35.5995C15.095 35.6248 14.195 35.6214 13.2967 35.5995C12.7792 35.5878 12.55 35.3503 12.4809 34.8249C12.4614 34.6009 12.4564 34.376 12.4657 34.1513V13.5295C12.4657 13.3611 12.4657 13.1927 12.4657 13.0243C12.4657 12.6421 12.5399 12.2497 12.941 12.1234C13.3422 11.9971 13.8276 11.9415 14.195 12.3187C15.1759 13.3224 16.1618 14.3243 17.1309 15.3347C17.6551 15.8803 18.154 16.4495 18.6765 16.9968C20.0905 18.4787 21.518 19.9404 22.9254 21.434C24.1961 22.7812 25.4535 24.1419 26.7091 25.4924C26.9872 25.7905 27.2787 26.075 27.5636 26.3647L27.7911 26.2434Z" fill="white"/>
<path d="M112.171 21.6748H119.393C119.645 21.6655 119.898 21.6756 120.148 21.7051C120.654 21.786 120.886 22.0554 120.885 22.5623C120.885 23.2914 120.866 24.0206 120.851 24.7514C120.834 25.5783 120.706 25.7164 119.853 25.7197C117.746 25.7298 115.64 25.7197 113.535 25.7197H113.115C112.104 25.7197 112.088 25.7332 112.085 26.7587C112.085 28.0217 112.085 29.2841 112.085 30.546C112.085 31.5563 112.085 31.5563 113.135 31.5563H121.056C121.281 31.5563 121.508 31.5429 121.731 31.5563C122.262 31.6102 122.496 31.8207 122.516 32.3545C122.545 33.1393 122.548 33.9274 122.516 34.7121C122.489 35.3217 122.23 35.5406 121.609 35.5911C121.441 35.6046 121.272 35.5911 121.104 35.5911C117.059 35.5911 113.014 35.5911 108.969 35.5911C107.86 35.5911 107.69 35.4227 107.688 34.3366C107.688 27.4357 107.688 20.5348 107.688 13.6339C107.674 13.4383 107.682 13.2417 107.711 13.0479C107.799 12.6623 108.015 12.3861 108.458 12.3743C108.738 12.3743 109.019 12.3743 109.301 12.3743C113.287 12.3743 117.276 12.3743 121.267 12.3743C122.353 12.3743 122.519 12.5427 122.53 13.6558C122.53 14.2166 122.53 14.7773 122.53 15.3398C122.514 16.2188 122.321 16.4192 121.421 16.4209C118.724 16.4293 116.027 16.4209 113.331 16.4209C112.087 16.4209 112.087 16.4209 112.087 17.662C112.087 18.8115 112.087 19.9617 112.087 21.1124C112.104 21.3013 112.132 21.4891 112.171 21.6748Z" fill="white"/>
<path d="M54.9936 35.6096C54.6854 35.5928 54.3765 35.5928 54.0683 35.6096C53.2391 35.7022 52.7537 35.3116 52.4453 34.5757C52.088 33.7236 51.6515 32.9035 51.3194 32.0497C51.1189 31.5327 50.8003 31.3913 50.2947 31.393C47.4885 31.4048 44.6823 31.4115 41.8677 31.393C41.298 31.393 41.0081 31.6153 40.8008 32.1221C40.4486 32.9776 40.0357 33.8061 39.6514 34.6481C39.3396 35.3301 38.8491 35.6803 38.0621 35.6265C37.3879 35.581 36.7137 35.6265 36.0396 35.6147C35.0789 35.5961 34.816 35.1937 35.212 34.3382C36.6143 31.3071 38.03 28.2962 39.4255 25.2701C40.9559 21.965 42.4795 18.6572 43.9964 15.3465C44.3722 14.5331 44.743 13.7164 45.1239 12.9047C45.316 12.4939 45.5132 12.0847 46.0643 12.0628C46.661 12.0426 46.8952 12.4619 47.0975 12.9047C47.9773 14.8127 48.8436 16.7257 49.7217 18.6302C51.2419 21.9353 52.7655 25.2409 54.2925 28.5471C55.1706 30.4567 56.0554 32.3629 56.92 34.2726C57.338 35.1971 57.0784 35.586 56.0773 35.6063C55.7234 35.6147 55.3576 35.6012 54.9936 35.6096ZM46.1739 20.6779L45.9245 20.688L42.8907 27.4778C43.72 27.6024 44.4076 27.5434 45.1003 27.5535C45.793 27.5636 46.4486 27.5788 47.1228 27.5535C47.7969 27.5283 48.4997 27.6967 49.2582 27.3851C48.2031 25.1168 47.1885 22.8974 46.1739 20.6779Z" fill="white"/>
<path d="M93.8212 26.8125C93.9999 26.4404 94.1886 26.0733 94.3588 25.6961C96.2178 21.5535 98.0718 17.4143 99.9156 13.26C100.19 12.6403 100.558 12.3405 101.264 12.381C102.107 12.4281 102.949 12.381 103.792 12.3961C104.707 12.4096 104.982 12.8104 104.611 13.6153C103.286 16.4932 101.945 19.361 100.618 22.2355C99.0207 25.6966 97.4274 29.1577 95.8386 32.6188C95.4257 33.5113 94.9824 34.387 94.5662 35.2761C94.3875 35.6618 94.1482 35.9211 93.6914 35.9497C93.1976 35.9783 92.9802 35.6432 92.81 35.2913C92.2167 34.0536 91.647 32.8024 91.0706 31.5562C89.947 29.1414 88.8296 26.7278 87.7184 24.3152C86.0903 20.771 84.47 17.2263 82.8577 13.681C82.4363 12.7514 82.6756 12.4113 83.7223 12.3944C84.5363 12.3826 85.3537 12.4281 86.1644 12.381C86.8302 12.3439 87.2026 12.6218 87.4538 13.2044C88.401 15.3582 89.3734 17.5002 90.3341 19.6489C91.2948 21.7977 92.2386 23.9026 93.1841 26.0244C93.3072 26.2972 93.4555 26.5582 93.592 26.8226L93.8212 26.8125Z" fill="white"/>
<path d="M61.9797 25.9017C61.9797 23.067 61.9797 20.2329 61.9797 17.3994C61.9797 16.4715 61.951 16.4462 61.0426 16.4429C59.8072 16.4429 58.5718 16.4513 57.3347 16.4429C56.492 16.4344 56.2897 16.229 56.2746 15.3954C56.2611 14.7791 56.2645 14.1611 56.2746 13.5431C56.2897 12.6051 56.4869 12.4013 57.4139 12.3997C61.178 12.3997 64.9421 12.3997 68.7061 12.3997C69.4932 12.3997 70.2803 12.3862 71.0657 12.3997C71.8511 12.4131 72.0769 12.6523 72.0938 13.41C72.114 14.0836 72.1157 14.7572 72.0938 15.4308C72.0702 16.2105 71.8477 16.4277 71.0707 16.4412C69.8353 16.453 68.5999 16.4412 67.3629 16.4412C66.4308 16.4412 66.3786 16.4951 66.3786 17.4516C66.3786 23.0064 66.3786 28.5635 66.3786 34.1228C66.3907 34.3749 66.3851 34.6276 66.3617 34.8789C66.2943 35.3521 66.0634 35.5811 65.5797 35.5929C64.6527 35.6165 63.7257 35.6215 62.7988 35.5929C62.1802 35.5727 61.9915 35.3201 61.9864 34.569C61.9763 32.9979 61.9864 31.4268 61.9864 29.8539L61.9797 25.9017Z" fill="white"/>
<path d="M75.4416 24.0323C75.4416 20.6375 75.4416 17.242 75.4416 13.846C75.4332 13.6215 75.4365 13.3967 75.4517 13.1725C75.504 12.6774 75.7062 12.4265 76.1832 12.4113C77.1371 12.3787 78.0922 12.3787 79.0484 12.4113C79.5237 12.4281 79.7916 12.7481 79.8506 13.2314C79.8681 13.4555 79.872 13.6804 79.8624 13.905C79.8624 20.6408 79.8624 27.3767 79.8624 34.1125C79.8624 34.3096 79.8725 34.5066 79.854 34.7019C79.7984 35.2762 79.5169 35.5793 78.9439 35.5978C78.045 35.6247 77.1461 35.6247 76.2472 35.5978C75.7113 35.5793 75.504 35.3469 75.4501 34.8114C75.4281 34.5891 75.4399 34.3635 75.4399 34.1378L75.4416 24.0323Z" fill="white"/>
</svg>