<svg xmlns:xlink="http://www.w3.org/1999/xlink" xmlns="http://www.w3.org/2000/svg" width="135" height="48" viewBox="0 0 135 48" fill="none">
<path d="M26.7211 43.0102C25.1949 44.9358 23.1243 46.3715 20.7712 47.1357C18.4182 47.8998 15.8884 47.958 13.5018 47.303C11.1152 46.648 8.97906 45.3091 7.3635 43.4558C5.74795 41.6024 4.72558 39.3178 4.42569 36.891C4.12581 34.4641 4.56188 32.004 5.67876 29.8217C6.79564 27.6395 8.54315 25.8332 10.7003 24.6312C12.8574 23.4293 15.3272 22.8857 17.7974 23.0693C20.2675 23.2529 22.627 24.1553 24.5775 25.6625C27.1919 27.6828 28.8865 30.6452 29.2884 33.8983C29.6904 37.1514 28.767 40.4289 26.7211 43.0102ZM11.1172 30.971C8.75234 33.9503 9.3281 38.3951 12.5208 40.8624C15.7427 43.3489 20.2284 42.8095 22.5932 39.8302C24.9581 36.8509 24.3904 32.4462 21.1701 29.9645C17.9498 27.4828 13.4804 27.9853 11.1172 30.9646V30.971Z" fill="white"/>
<path d="M48.2757 26.3737L36.7118 32.2954C36.5117 32.3979 36.2784 32.4178 36.0634 32.3507C35.8484 32.2836 35.6692 32.1349 35.5652 31.9375L25.3187 12.4243C25.2171 12.2275 25.1983 11.9989 25.2665 11.7885C25.3348 11.578 25.4845 11.4027 25.683 11.3007L29.0514 9.57504C29.2507 9.47503 29.4819 9.45652 29.695 9.52351C29.9081 9.59051 30.0859 9.73762 30.1899 9.93301L38.148 25.0976C38.218 25.2303 38.3385 25.3301 38.483 25.3753C38.6275 25.4204 38.7843 25.4071 38.9189 25.3384L45.8637 21.7812C46.0632 21.6809 46.2947 21.6624 46.508 21.7297C46.7212 21.797 46.8988 21.9448 47.0022 22.1408L48.6287 25.2437C48.7328 25.4399 48.7541 25.6688 48.688 25.8804C48.6219 26.0921 48.4737 26.2694 48.2757 26.3737Z" fill="white"/>
<path d="M58.364 24.4413L54.6232 25.069C54.4018 25.1052 54.1748 25.0535 53.992 24.925C53.8091 24.7966 53.6852 24.6019 53.6474 24.3835L49.8936 2.72101C49.8573 2.50229 49.9101 2.27829 50.0405 2.09786C50.1709 1.91743 50.3683 1.79522 50.5897 1.75787L54.3305 1.13023C54.5518 1.09439 54.7786 1.14631 54.9613 1.27469C55.1441 1.40306 55.2681 1.59749 55.3063 1.81566L59.0471 23.4862C59.0814 23.7018 59.0292 23.9221 58.9017 24.1004C58.7742 24.2787 58.5813 24.401 58.364 24.4413Z" fill="white"/>
<path d="M73.4953 15.4792L71.6754 15.2224C71.5798 15.2086 71.4827 15.2328 71.4052 15.2897C71.3277 15.3466 71.2763 15.4315 71.2622 15.5258L70.0977 23.4877C70.0655 23.7075 69.9462 23.9058 69.7659 24.0388C69.5857 24.1719 69.3593 24.2289 69.1365 24.1972L65.3811 23.6659C65.1579 23.6341 64.9566 23.5161 64.8215 23.3379C64.6864 23.1597 64.6285 22.9359 64.6606 22.7156L67.8467 0.964766C67.8625 0.855758 67.8999 0.750881 67.9567 0.656134C68.0136 0.561388 68.0888 0.478625 68.178 0.412583C68.2673 0.34654 68.3689 0.29851 68.477 0.271239C68.5851 0.243968 68.6975 0.23799 68.808 0.253647L75.7788 1.24247C76.7975 1.39033 77.773 1.74908 78.6413 2.29519C79.5097 2.84129 80.2512 3.56242 80.8173 4.41125C81.3834 5.26008 81.7612 6.21745 81.9261 7.22055C82.091 8.22365 82.0391 9.24982 81.7739 10.2317C80.8322 13.8002 77.1906 16.0041 73.4953 15.4792ZM75.0258 6.36154L73.3668 6.12557C73.1781 6.10032 72.9869 6.14952 72.8346 6.26251C72.6824 6.37549 72.5814 6.54316 72.5536 6.72913L72.1665 9.37776C72.1401 9.56418 72.1896 9.75336 72.3042 9.90382C72.4189 10.0543 72.5893 10.1537 72.7781 10.1804L74.4354 10.4163C75.4113 10.5544 76.3156 9.91711 76.5042 8.63774C76.6929 7.35838 76.0065 6.50601 75.0258 6.36154Z" fill="white"/>
<path d="M88.7688 30.9951C86.8318 29.613 85.336 27.7127 84.458 25.5186C83.58 23.3246 83.3565 20.9283 83.8139 18.6129C84.2713 16.2975 85.3905 14.1597 87.0393 12.4518C88.6881 10.744 90.7976 9.53746 93.1188 8.97478C95.4399 8.4121 97.8758 8.51675 100.139 9.27637C102.401 10.036 104.397 11.4189 105.889 13.2617C107.381 15.1045 108.308 17.3302 108.56 19.6761C108.812 22.022 108.378 24.39 107.31 26.5004C106.492 28.0975 105.333 29.501 103.913 30.6148C102.494 31.7285 100.847 32.5262 99.0859 32.9531C97.3249 33.38 95.4911 33.4261 93.7103 33.0881C91.9295 32.7501 90.2438 32.0361 88.7688 30.9951ZM99.861 14.8112C96.5773 12.8576 92.1761 13.9572 90.0829 17.3892C87.9686 20.8468 89.0632 25.1777 92.3469 27.1313C95.6307 29.0848 99.9911 27.9949 102.105 24.5356C104.187 21.1133 103.143 16.7647 99.861 14.8112Z" fill="white"/>
<path d="M113.224 40.4264L112.188 38.9207C112.134 38.8419 112.05 38.7877 111.955 38.7699C111.859 38.7522 111.761 38.7724 111.681 38.826L104.939 43.3399C104.753 43.4647 104.524 43.5113 104.302 43.4695C104.081 43.4277 103.885 43.3008 103.759 43.1168L101.626 40.0171C101.563 39.9261 101.519 39.8238 101.496 39.7158C101.473 39.6079 101.472 39.4966 101.493 39.3883C101.514 39.28 101.556 39.1768 101.618 39.0847C101.679 38.9927 101.758 38.9135 101.851 38.8517L120.273 26.5171C120.46 26.3923 120.689 26.3457 120.911 26.3875C121.132 26.4294 121.327 26.5562 121.454 26.7403L125.413 32.4902C125.989 33.3332 126.378 34.2869 126.554 35.2886C126.73 36.2904 126.69 37.3176 126.435 38.3029C126.181 39.2882 125.719 40.2092 125.078 41.0057C124.438 41.8021 123.634 42.4559 122.72 42.9242C119.416 44.6353 115.321 43.4715 113.224 40.4264ZM121.077 35.4005L120.135 34.0312C120.082 33.9539 120.014 33.8877 119.935 33.8364C119.855 33.7851 119.767 33.7497 119.674 33.7323C119.581 33.7148 119.485 33.7157 119.392 33.7347C119.3 33.7538 119.212 33.7907 119.133 33.8434L116.89 35.3443C116.812 35.3967 116.745 35.4639 116.693 35.542C116.64 35.6201 116.604 35.7075 116.587 35.7994C116.569 35.8912 116.57 35.9857 116.589 36.0772C116.608 36.1688 116.645 36.2558 116.699 36.3331L117.64 37.7008C118.196 38.5034 119.28 38.7377 120.364 38.0106C121.449 37.2834 121.633 36.2031 121.077 35.4005Z" fill="white"/>
<path d="M127.497 26.3289H126.718V28.5762H126.295V26.3289H125.517V25.9645H127.497V26.3289Z" fill="white"/>
<path d="M130.666 28.5713H130.245V26.7397L129.595 27.7478H129.25L128.599 26.7397V28.5713H128.162V25.9644H128.585L129.412 27.2357L130.247 25.9644H130.662L130.666 28.5713Z" fill="white"/>
</svg>