<svg width="124" height="28" viewBox="0 0 124 28" fill="none" xmlns="http://www.w3.org/2000/svg">
<path d="M5.25175 17.3551C5.25175 19.3358 5.75362 19.6905 7.2002 20.4606V20.6971H0.731934V20.4606C2.11947 19.692 2.59181 19.3373 2.59181 17.3551V3.33573C2.59181 1.35501 2.11947 1.00026 0.731934 0.231621V-0.00488281H10.0653C14.348 -0.00488281 17.8036 1.4437 17.8036 5.46692C17.8036 9.1345 14.7333 10.6133 11.6896 10.6428V10.7611C14.317 11.0862 15.5886 12.3575 16.2974 14.5173L17.1535 17.0006C17.8325 19.0995 18.7772 19.7514 20.519 20.4613V20.6977H15.7961C15.2352 19.4856 15.0581 18.9535 14.4971 17.5034L13.5525 14.695C12.7554 12.3891 11.9582 11.264 9.12208 11.264H5.25293L5.25175 17.3551ZM9.62306 10.079C12.4277 10.079 14.8508 9.01477 14.8508 5.49471C14.8508 2.3906 12.7252 1.14689 9.62306 1.14689H5.25175V10.079H9.62306Z" fill="black"/>
<path d="M23.9489 15.1906C23.9489 17.2357 24.7794 19.164 27.1227 19.164C29.4659 19.164 31.3067 17.1782 31.3067 13.6783V9.02299C31.3067 7.36325 30.4465 6.80013 29.2601 6.05918V5.88135H33.9792V17.3848C33.9792 19.4002 34.3944 19.6669 35.6995 20.4983V20.7057H31.3082V16.9696C30.4777 19.5792 28.6387 21.0024 26.0557 21.0024C23.0007 21.0024 21.3076 18.987 21.3076 15.7538V9.02299C21.3076 7.36325 20.4178 6.80013 19.261 6.05918V5.88135H23.9498L23.9489 15.1906Z" fill="black"/>
<path d="M39.0233 13.4605C39.0233 9.46971 40.8895 7.07524 43.7035 7.07524C45.7771 7.07524 48.2062 8.55331 48.2062 11.8346V13.8448C48.2062 16.7418 46.3992 19.3137 43.6443 19.3137C40.7414 19.3137 39.0233 17.0079 39.0233 13.4605ZM36.1204 13.4605C36.1204 18.2495 38.964 20.9691 42.726 20.9691C45.5401 20.9691 47.4952 19.1659 48.2062 17.0079L48.2357 20.6144C48.2357 24.4574 46.9324 26.6744 43.8813 26.6744C41.6893 26.6744 39.4676 25.0781 39.0233 22.122L36.1499 22.8906C37.0386 26.8223 40.2674 28.0047 43.2 28.0047C47.9692 28.0047 50.8425 25.4033 50.8721 20.6144V12.3667C50.8721 9.67665 50.8721 7.37086 51.2868 5.59717H50.9018C49.8353 6.1884 48.9171 7.28217 48.5616 8.61243C47.8507 7.04569 45.8364 5.59717 43.1112 5.59717C39.3195 5.59717 36.1204 8.67156 36.1204 13.4605Z" fill="black"/>
<path d="M55.8268 13.4605C55.8268 9.46971 57.693 7.07524 60.5071 7.07524C62.5806 7.07524 65.0096 8.55331 65.0096 11.8346V13.8448C65.0096 16.7418 63.2026 19.3137 60.4479 19.3137C57.5448 19.3137 55.8268 17.0079 55.8268 13.4605ZM52.9238 13.4605C52.9238 18.2495 55.7675 20.9691 59.5296 20.9691C62.3436 20.9691 64.2987 19.1659 65.0096 17.0079L65.0392 20.6144C65.0392 24.4574 63.7359 26.6744 60.6848 26.6744C58.4928 26.6744 56.2711 25.0781 55.8268 22.122L52.9534 22.8906C53.8421 26.8223 57.071 28.0047 60.0035 28.0047C64.7726 28.0047 67.646 25.4033 67.6756 20.6144V12.3667C67.6756 9.67665 67.6756 7.37086 68.0903 5.59717H67.7052C66.6388 6.1884 65.7205 7.28217 65.3651 8.61243C64.6541 7.04569 62.6398 5.59717 59.9146 5.59717C56.123 5.59717 52.9238 8.67156 52.9238 13.4605Z" fill="black"/>
<path d="M84.6202 5.57568H85.0068C84.5905 7.3547 84.5904 9.66947 84.5904 12.3688V17.382C84.5904 19.3983 85.0068 19.6652 86.3152 20.4968V20.7044H81.9428L81.913 17.026C81.1994 19.1904 79.2369 21.0012 76.4092 21.0012C72.631 21.0012 69.7751 18.2719 69.7751 13.4665C69.7751 8.66108 72.9866 5.57568 76.7961 5.57568C79.5318 5.57568 81.556 7.02855 82.2702 8.60149C82.627 7.26664 83.5494 6.16898 84.6202 5.57568ZM81.9143 11.8349C81.9143 8.54366 79.4759 7.05908 77.3923 7.05908C74.5674 7.05908 72.6917 9.46074 72.6917 13.4665C72.6917 17.0245 74.4163 19.3398 77.3329 19.3398C80.0983 19.3398 81.9143 16.7603 81.9143 13.8519V11.8349Z" fill="black"/>
<path d="M87.9171 21.0022H87.5636C87.9465 19.2277 87.9465 16.9187 87.9465 14.2854V3.18926C87.9465 1.53304 87.0921 0.971107 85.8842 0.261295V-0.00488281H90.6003V9.5808C91.3074 7.39221 93.252 5.61562 96.0539 5.61562C99.7675 5.61562 102.627 8.33803 102.627 13.0722C102.627 17.9249 99.4454 21.0022 95.6408 21.0022C92.9302 21.0022 90.9836 19.553 90.2173 17.9545C89.892 19.3155 88.9783 20.4104 87.9171 21.0022ZM90.5982 14.7885C90.5982 17.9826 93.0142 19.4929 95.0493 19.4929C97.8483 19.4929 99.7365 17.127 99.7365 13.0722C99.7365 9.5808 97.9976 7.27273 95.1375 7.27273C92.4273 7.27273 90.5982 9.87534 90.5982 12.7764V14.7885Z" fill="black"/>
<path d="M107.639 17.4738C107.639 19.4251 108.055 19.6911 109.33 20.4908V20.6978H103.365V20.4908C104.641 19.6926 105.056 19.4266 105.056 17.4738V3.06971C105.056 1.44372 104.165 0.911578 103.039 0.202061V-0.00488281H107.639V17.4738Z" fill="black"/>
<path d="M123.643 13.0207H112.907C112.907 16.9359 114.793 19.3682 118.009 19.3682C120.309 19.3682 121.961 18.2416 122.876 15.8995L123.494 16.107C122.816 19.2199 120.605 21.0012 117.213 21.0012C113.26 21.0012 110.045 18.2722 110.045 13.4672C110.045 8.66227 113.202 5.57568 117.095 5.57568C121.253 5.57568 123.643 8.33437 123.643 13.0207ZM120.782 11.8644C120.723 9.28516 119.956 6.79241 117.065 6.79241C114.678 6.79241 113.231 8.83808 112.966 11.8644H120.782Z" fill="black"/>
</svg>
