<svg xmlns:xlink="http://www.w3.org/1999/xlink" xmlns="http://www.w3.org/2000/svg" width="392" height="148" viewBox="0 0 392 148" fill="none">
<g clip-path="url(#clip0_3713_44030)">
<path d="M0 24C0 10.7452 10.7452 0 24 0H368C381.255 0 392 10.7452 392 24V148H0V24Z" fill="black"/>
<rect width="392" height="148" fill="black"/>
<mask id="mask0_3713_44030" style="mask-type:alpha" maskUnits="userSpaceOnUse" x="27" y="15" width="98" height="53">
<rect x="27" y="15" width="98" height="53" fill="url(#paint0_linear_3713_44030)"/>
</mask>
<g mask="url(#mask0_3713_44030)">
<path d="M38 20H121" stroke="#46434F" stroke-opacity="0.8" stroke-width="4" stroke-linecap="square"/>
<path d="M38 29H121" stroke="#46434F" stroke-opacity="0.8" stroke-width="4" stroke-linecap="square"/>
<path d="M38 38H121" stroke="#46434F" stroke-opacity="0.8" stroke-width="4" stroke-linecap="square"/>
<path d="M38 46H121" stroke="#46434F" stroke-opacity="0.8" stroke-width="4" stroke-linecap="square"/>
<path d="M38 55H121" stroke="#46434F" stroke-opacity="0.8" stroke-width="4" stroke-linecap="square"/>
<path d="M38 64H121" stroke="#46434F" stroke-opacity="0.8" stroke-width="4" stroke-linecap="square"/>
<path d="M29.668 20H29.0013" stroke="#46434F" stroke-opacity="0.8" stroke-width="4" stroke-linecap="square"/>
<path d="M29.668 29H29.0013" stroke="#46434F" stroke-opacity="0.8" stroke-width="4" stroke-linecap="square"/>
<path d="M29.668 38H29.0013" stroke="#46434F" stroke-opacity="0.8" stroke-width="4" stroke-linecap="square"/>
<path d="M29.668 46H29.0013" stroke="#46434F" stroke-opacity="0.8" stroke-width="4" stroke-linecap="square"/>
<path d="M29.668 55H29.0013" stroke="#46434F" stroke-opacity="0.8" stroke-width="4" stroke-linecap="square"/>
<path d="M29.668 64H29.0013" stroke="#46434F" stroke-opacity="0.8" stroke-width="4" stroke-linecap="square"/>
</g>
<mask id="mask1_3713_44030" style="mask-type:alpha" maskUnits="userSpaceOnUse" x="149" y="15" width="98" height="53">
<rect x="149" y="15" width="98" height="53" fill="url(#paint1_linear_3713_44030)"/>
</mask>
<g mask="url(#mask1_3713_44030)">
<path d="M161 20H241" stroke="#46434F" stroke-opacity="0.8" stroke-width="4" stroke-linecap="square"/>
<path d="M161 29H241" stroke="#46434F" stroke-opacity="0.8" stroke-width="4" stroke-linecap="square"/>
<path d="M161 38H241" stroke="#46434F" stroke-opacity="0.8" stroke-width="4" stroke-linecap="square"/>
<path d="M161 46H241" stroke="#46434F" stroke-opacity="0.8" stroke-width="4" stroke-linecap="square"/>
<path d="M161 55H241" stroke="#46434F" stroke-opacity="0.8" stroke-width="4" stroke-linecap="square"/>
<path d="M161 64H241" stroke="#46434F" stroke-opacity="0.8" stroke-width="4" stroke-linecap="square"/>
<path d="M151.668 20H151.001" stroke="#46434F" stroke-opacity="0.8" stroke-width="4" stroke-linecap="square"/>
<path d="M151.668 29H151.001" stroke="#46434F" stroke-opacity="0.8" stroke-width="4" stroke-linecap="square"/>
<path d="M151.668 38H151.001" stroke="#46434F" stroke-opacity="0.8" stroke-width="4" stroke-linecap="square"/>
<path d="M151.668 46H151.001" stroke="#46434F" stroke-opacity="0.8" stroke-width="4" stroke-linecap="square"/>
<path d="M151.668 55H151.001" stroke="#46434F" stroke-opacity="0.8" stroke-width="4" stroke-linecap="square"/>
<path d="M151.668 64H151.001" stroke="#46434F" stroke-opacity="0.8" stroke-width="4" stroke-linecap="square"/>
</g>
<mask id="mask2_3713_44030" style="mask-type:alpha" maskUnits="userSpaceOnUse" x="269" y="15" width="98" height="53">
<rect x="269" y="15" width="98" height="53" fill="url(#paint2_linear_3713_44030)"/>
</mask>
<g mask="url(#mask2_3713_44030)">
<path d="M281 20H361" stroke="#46434F" stroke-opacity="0.8" stroke-width="4" stroke-linecap="square"/>
<path d="M281 29H361" stroke="#46434F" stroke-opacity="0.8" stroke-width="4" stroke-linecap="square"/>
<path d="M281 38H361" stroke="#46434F" stroke-opacity="0.8" stroke-width="4" stroke-linecap="square"/>
<path d="M281 46H361" stroke="#46434F" stroke-opacity="0.8" stroke-width="4" stroke-linecap="square"/>
<path d="M281 55H361" stroke="#46434F" stroke-opacity="0.8" stroke-width="4" stroke-linecap="square"/>
<path d="M281 64H361" stroke="#46434F" stroke-opacity="0.8" stroke-width="4" stroke-linecap="square"/>
<path d="M271.668 20H271.001" stroke="#46434F" stroke-opacity="0.8" stroke-width="4" stroke-linecap="square"/>
<path d="M271.668 29H271.001" stroke="#46434F" stroke-opacity="0.8" stroke-width="4" stroke-linecap="square"/>
<path d="M271.668 38H271.001" stroke="#46434F" stroke-opacity="0.8" stroke-width="4" stroke-linecap="square"/>
<path d="M271.668 46H271.001" stroke="#46434F" stroke-opacity="0.8" stroke-width="4" stroke-linecap="square"/>
<path d="M271.668 55H271.001" stroke="#46434F" stroke-opacity="0.8" stroke-width="4" stroke-linecap="square"/>
<path d="M271.668 64H271.001" stroke="#46434F" stroke-opacity="0.8" stroke-width="4" stroke-linecap="square"/>
</g>
<path d="M403 16C403 16 349 98 268.433 75C187.865 52 173 -47 -6 166H231.444H403V16Z" fill="url(#paint3_linear_3713_44030)"/>
<path d="M403 16C403 16 349 98 268.433 75C187.865 52 173 -47 -6 166H231.444H403V16Z" fill="url(#paint4_linear_3713_44030)"/>
<path d="M403 16C403 16 349 98 268.433 75C187.865 52 173 -47 -6 166H231.444H403V16Z" stroke="url(#paint5_linear_3713_44030)" stroke-width="4" stroke-linecap="square"/>
<path d="M413 32C340.348 101.126 272.825 125.763 210.552 106.16C148.279 86.5572 50.0913 -13.2341 -74 166H181.207H413V32Z" fill="url(#paint6_radial_3713_44030)"/>
<path d="M413 32C340.348 101.126 272.825 125.763 210.552 106.16C148.279 86.5572 50.0913 -13.2341 -74 166H181.207H413V32Z" fill="url(#paint7_linear_3713_44030)" fill-opacity="0.6"/>
<path d="M413 32C340.348 101.126 272.825 125.763 210.552 106.16C148.279 86.5572 50.0913 -13.2341 -74 166H181.207H413V32Z" stroke="url(#paint8_linear_3713_44030)" stroke-width="4" stroke-linecap="square"/>
<path d="M-6 123C-6 123 36 65.2222 126 65.2222C216 65.2222 254 138.889 393 58" stroke="url(#paint9_linear_3713_44030)" stroke-opacity="0.5" stroke-width="2" stroke-linecap="square" stroke-dasharray="8 8"/>
</g>
<defs>
<linearGradient id="paint0_linear_3713_44030" x1="36.1696" y1="15" x2="45.4275" y2="63.3068" gradientUnits="userSpaceOnUse">
<stop stop-color="white"/>
<stop offset="0.892435" stop-opacity="0"/>
</linearGradient>
<linearGradient id="paint1_linear_3713_44030" x1="158.17" y1="15" x2="167.428" y2="63.3068" gradientUnits="userSpaceOnUse">
<stop stop-color="white"/>
<stop offset="0.892435" stop-opacity="0"/>
</linearGradient>
<linearGradient id="paint2_linear_3713_44030" x1="278.17" y1="15" x2="287.428" y2="63.3068" gradientUnits="userSpaceOnUse">
<stop stop-color="white"/>
<stop offset="0.892435" stop-opacity="0"/>
</linearGradient>
<linearGradient id="paint3_linear_3713_44030" x1="212.796" y1="2.25766" x2="212.796" y2="159.003" gradientUnits="userSpaceOnUse">
<stop stop-color="#5724E9"/>
<stop offset="1" stop-color="#311483" stop-opacity="0"/>
</linearGradient>
<linearGradient id="paint4_linear_3713_44030" x1="94.9356" y1="80.0584" x2="395.61" y2="35.3002" gradientUnits="userSpaceOnUse">
<stop stop-opacity="0"/>
<stop offset="1"/>
</linearGradient>
<linearGradient id="paint5_linear_3713_44030" x1="381.599" y1="-8.00026" x2="36.6826" y2="18.7783" gradientUnits="userSpaceOnUse">
<stop/>
<stop offset="0.218224" stop-color="#4E20D0"/>
<stop offset="0.625571" stop-color="#5724E9"/>
<stop offset="1" stop-opacity="0.67"/>
</linearGradient>
<radialGradient id="paint6_radial_3713_44030" cx="0" cy="0" r="1" gradientUnits="userSpaceOnUse" gradientTransform="translate(285.908 57) rotate(37.8319) scale(112.498 109.994)">
<stop stop-color="#5724E9"/>
<stop offset="1" stop-color="#311483" stop-opacity="0"/>
</radialGradient>
<linearGradient id="paint7_linear_3713_44030" x1="102.58" y1="67.551" x2="114.068" y2="124.247" gradientUnits="userSpaceOnUse">
<stop stop-color="#5724E9"/>
<stop offset="1" stop-color="#311483" stop-opacity="0"/>
</linearGradient>
<linearGradient id="paint8_linear_3713_44030" x1="356.764" y1="48.4082" x2="-71.5056" y2="124.4" gradientUnits="userSpaceOnUse">
<stop/>
<stop offset="0.218224" stop-color="#4E20D0"/>
<stop offset="0.625571" stop-color="#5724E9"/>
<stop offset="1" stop-opacity="0.67"/>
</linearGradient>
<linearGradient id="paint9_linear_3713_44030" x1="-6.64538" y1="117.472" x2="330.339" y2="-55.5928" gradientUnits="userSpaceOnUse">
<stop/>
<stop offset="0.385477" stop-color="#C7B6F8"/>
<stop offset="0.714606" stop-color="#AB92F4"/>
<stop offset="1"/>
</linearGradient>
<clipPath id="clip0_3713_44030">
<path d="M0 24C0 10.7452 10.7452 0 24 0H368C381.255 0 392 10.7452 392 24V148H0V24Z" fill="white"/>
</clipPath>
</defs>
</svg>