<svg xmlns:xlink="http://www.w3.org/1999/xlink" width="48" height="49" viewBox="0 0 48 49" fill="none" xmlns="http://www.w3.org/2000/svg"><path fill-rule="evenodd" clip-rule="evenodd" d="M37.6017 6.22711C40.0292 6.22711 42 8.19797 42 10.6254V37.8288C42 40.2563 40.0291 42.2271 37.6017 42.2271H10.3983C7.97086 42.2271 6 40.2563 6 37.8288V10.6254C6 8.19797 7.97079 6.22711 10.3983 6.22711L37.6017 6.22711ZM19.7474 36.0779C29.3056 36.0779 34.5319 28.1577 34.5319 21.2934C34.5319 21.0671 34.5319 20.8408 34.5211 20.6253C35.5341 19.8926 36.4177 18.9766 37.1181 17.9313C36.1914 18.3408 35.1893 18.621 34.1332 18.7503C35.2108 18.1037 36.0298 17.0908 36.4177 15.8731C35.4156 16.4658 34.3056 16.8969 33.1203 17.1339C32.172 16.121 30.825 15.496 29.3272 15.496C26.4608 15.496 24.1332 17.8236 24.1332 20.69C24.1332 21.0995 24.1763 21.4981 24.2733 21.8753C19.9522 21.6598 16.1268 19.5908 13.5621 16.4443C13.1203 17.2094 12.8617 18.1037 12.8617 19.052C12.8617 20.8516 13.7776 22.4464 15.1785 23.3732C14.3272 23.3516 13.5298 23.1146 12.8293 22.7266V22.7913C12.8293 25.3128 14.6181 27.4033 16.9996 27.8882C16.5686 28.0068 16.1052 28.0714 15.6311 28.0714C15.297 28.0714 14.9738 28.0391 14.6505 27.9744C15.3078 30.0434 17.2259 31.5412 19.4996 31.5843C17.7216 32.9745 15.4802 33.8042 13.0449 33.8042C12.6246 33.8042 12.2151 33.7827 11.8056 33.7287C14.0793 35.2158 16.8164 36.0779 19.7474 36.0779Z" fill="#FFFFFF"></path></svg>