<svg xmlns:xlink="http://www.w3.org/1999/xlink" width="48" height="49" viewBox="0 0 48 49" fill="none" xmlns="http://www.w3.org/2000/svg"><path fill-rule="evenodd" clip-rule="evenodd" d="M37.6017 6.22711C40.0292 6.22711 42 8.19797 42 10.6254V37.8288C42 40.2563 40.0291 42.2271 37.6017 42.2271H10.3983C7.97086 42.2271 6 40.2563 6 37.8288V10.6254C6 8.19797 7.97079 6.22711 10.3983 6.22711H37.6017V6.22711ZM17.2824 35.9888V20.1181H12.0062V35.9888H17.2824ZM36.3047 35.9888V26.8877C36.3047 22.0127 33.7019 19.7449 30.231 19.7449C27.4323 19.7449 26.1786 21.2841 25.4767 22.3652V20.1181H20.2018C20.2717 21.6074 20.2018 35.9888 20.2018 35.9888H25.4766V27.1255C25.4766 26.6511 25.5108 26.1769 25.6506 25.8378C26.0313 24.8903 26.8998 23.9088 28.3572 23.9088C30.2651 23.9088 31.0296 25.3648 31.0296 27.4973V35.9888H36.3047V35.9888ZM14.6799 12.4654C12.8747 12.4654 11.6953 13.6522 11.6953 15.2077C11.6953 16.7305 12.8389 17.95 14.6101 17.95H14.6441C16.4839 17.95 17.6291 16.7305 17.6291 15.2077C17.595 13.6544 16.4871 12.4688 14.6799 12.4654V12.4654Z" fill="#FFFFFF"></path></svg>