<svg xmlns:xlink="http://www.w3.org/1999/xlink" width="48" height="48" viewBox="0 0 48 48" fill="none" xmlns="http://www.w3.org/2000/svg"><path fill-rule="evenodd" clip-rule="evenodd" d="M37.6017 6C40.0292 6 42 7.97086 42 10.3983V37.6017C42 40.0291 40.0291 42 37.6017 42H37H30.1156H23.8353H12H10.3983C7.97086 42 6 40.0291 6 37.6017V10.3983C6 7.97086 7.97079 6 10.3983 6H37.6017ZM30.1392 13.047C30.4272 14.619 31.3514 15.9678 32.6319 16.8107C33.5232 17.3978 34.5857 17.7409 35.7273 17.7409V21.8667C33.6085 21.8667 31.6449 21.1818 30.0424 20.0205V28.4056C30.0424 32.5929 26.6687 36 22.5212 36C20.9187 36 19.4325 35.4897 18.2111 34.6235C16.2713 33.2488 15 30.9747 15 28.4056C15 24.2183 18.3743 20.8111 22.5218 20.8105C22.8664 20.8105 23.2037 20.8394 23.5355 20.8849V25.0974C23.2147 24.996 22.8755 24.9369 22.5218 24.9369C20.6277 24.9369 19.0866 26.493 19.0866 28.4056C19.0866 29.7372 19.8349 30.8942 20.9284 31.4752C21.4052 31.7285 21.9464 31.8736 22.5218 31.8736C24.3721 31.8736 25.8815 30.3876 25.9503 28.5359L25.957 12H30.043C30.043 12.3578 30.0771 12.707 30.1392 13.047Z" fill="#FFFFFF"></path></svg>