<svg xmlns:xlink="http://www.w3.org/1999/xlink" width="48" height="49" viewBox="0 0 48 49" fill="none" xmlns="http://www.w3.org/2000/svg"><path fill-rule="evenodd" clip-rule="evenodd" d="M37.6017 6.22711C40.0292 6.22711 42 8.19797 42 10.6254V37.8288C42 40.2563 40.0291 42.2271 37.6017 42.2271H30.1156V28.6628H34.7985L35.6895 22.8535H30.1156V19.0835C30.1156 17.4943 30.8942 15.9451 33.3908 15.9451H35.925V10.9993C35.925 10.9993 33.6251 10.6068 31.4263 10.6068C26.8357 10.6068 23.8353 13.389 23.8353 18.4258V22.8535H18.7325V28.6628H23.8353V42.2271H10.3983C7.97086 42.2271 6 40.2563 6 37.8288V10.6254C6 8.19797 7.97079 6.22711 10.3983 6.22711H37.6017V6.22711Z" fill="#FFFFFF"></path></svg>