<svg xmlns:xlink="http://www.w3.org/1999/xlink" width="48" height="49" viewBox="0 0 48 49" fill="none" xmlns="http://www.w3.org/2000/svg"><path fill-rule="evenodd" clip-rule="evenodd" d="M37.6017 6.22711C40.0292 6.22711 42 8.19797 42 10.6254V37.8288C42 40.2563 40.0291 42.2271 37.6017 42.2271H10.3983C7.97086 42.2271 6 40.2563 6 37.8288V10.6254C6 8.19797 7.97079 6.22711 10.3983 6.22711H37.6017V6.22711ZM24 11.9224C20.6583 11.9224 20.2392 11.9366 18.9268 11.9965C17.6171 12.0562 16.7227 12.2642 15.9399 12.5685C15.1308 12.8829 14.4446 13.3036 13.7605 13.9876C13.0765 14.6717 12.6557 15.358 12.3413 16.167C12.0371 16.9498 11.8291 17.8442 11.7693 19.1539C11.7094 20.4663 11.6953 20.8854 11.6953 24.2271C11.6953 27.5689 11.7094 27.9879 11.7693 29.3003C11.8291 30.61 12.0371 31.5045 12.3413 32.2872C12.6557 33.0963 13.0765 33.7825 13.7605 34.4666C14.4446 35.1507 15.1308 35.5714 15.9399 35.8858C16.7227 36.19 17.6171 36.398 18.9268 36.4578C20.2392 36.5177 20.6583 36.5318 24 36.5318C27.3417 36.5318 27.7608 36.5177 29.0732 36.4578C30.3829 36.398 31.2773 36.19 32.0601 35.8858C32.8691 35.5714 33.5554 35.1507 34.2395 34.4666C34.9235 33.7825 35.3443 33.0963 35.6587 32.2872C35.9629 31.5045 36.1709 30.61 36.2306 29.3003C36.2906 27.9879 36.3047 27.5689 36.3047 24.2271C36.3047 20.8854 36.2906 20.4663 36.2306 19.1539C36.1709 17.8442 35.9629 16.9498 35.6587 16.167C35.3443 15.358 34.9235 14.6717 34.2395 13.9876C33.5554 13.3036 32.8691 12.8829 32.0601 12.5685C31.2773 12.2642 30.3829 12.0562 29.0732 11.9965C27.7608 11.9366 27.3417 11.9224 24 11.9224V11.9224ZM24 14.1395C27.2855 14.1395 27.6747 14.152 28.9721 14.2112C30.1718 14.266 30.8233 14.4665 31.257 14.6349C31.8313 14.8581 32.2412 15.1248 32.6718 15.5553C33.1024 15.9859 33.369 16.3958 33.5922 16.9702C33.7607 17.4038 33.9612 18.0553 34.0159 19.255C34.0751 20.5524 34.0877 20.9416 34.0877 24.2271C34.0877 27.5126 34.0751 27.9018 34.0159 29.1993C33.9612 30.3989 33.7607 31.0504 33.5922 31.4841C33.369 32.0584 33.1024 32.4683 32.6718 32.8989C32.2412 33.3295 31.8313 33.5961 31.257 33.8194C30.8233 33.9878 30.1718 34.1883 28.9721 34.243C27.6749 34.3022 27.2857 34.3148 24 34.3148C20.7143 34.3148 20.3252 34.3022 19.0279 34.243C17.8282 34.1883 17.1767 33.9878 16.743 33.8194C16.1687 33.5961 15.7588 33.3295 15.3282 32.8989C14.8976 32.4683 14.6309 32.0584 14.4078 31.4841C14.2393 31.0504 14.0388 30.3989 13.9841 29.1993C13.9249 27.9018 13.9123 27.5126 13.9123 24.2271C13.9123 20.9416 13.9249 20.5524 13.9841 19.255C14.0388 18.0553 14.2393 17.4038 14.4078 16.9702C14.6309 16.3958 14.8976 15.9859 15.3282 15.5553C15.7588 15.1248 16.1687 14.8581 16.743 14.6349C17.1767 14.4665 17.8282 14.266 19.0279 14.2112C20.3253 14.152 20.7145 14.1395 24 14.1395V14.1395ZM24 17.9085C20.5103 17.9085 17.6814 20.7374 17.6814 24.2271C17.6814 27.7168 20.5103 30.5457 24 30.5457C27.4897 30.5457 30.3186 27.7168 30.3186 24.2271C30.3186 20.7374 27.4897 17.9085 24 17.9085ZM24 28.3287C21.7347 28.3287 19.8985 26.4924 19.8985 24.2271C19.8985 21.9619 21.7347 20.1256 24 20.1256C26.2653 20.1256 28.1015 21.9619 28.1015 24.2271C28.1015 26.4924 26.2653 28.3287 24 28.3287V28.3287ZM32.0449 17.6589C32.0449 18.4744 31.3837 19.1354 30.5682 19.1354C29.7528 19.1354 29.0917 18.4744 29.0917 17.6589C29.0917 16.8434 29.7528 16.1823 30.5682 16.1823C31.3837 16.1823 32.0449 16.8434 32.0449 17.6589Z" fill="#FFFFFF"></path></svg>