<svg xmlns:xlink="http://www.w3.org/1999/xlink" xmlns="http://www.w3.org/2000/svg" width="269" height="58" viewBox="0 0 269 58" fill="none">
<path d="M268.74 49.3832C268.572 53.0453 266.356 56.1311 262.879 57.2604C258.827 58.5709 254.891 58.1527 251.256 55.9034C248.403 54.1374 247.004 51.4419 246.832 48.1052C246.823 47.9379 246.823 47.7752 246.823 47.6079C246.823 35.1671 246.823 22.7309 246.823 10.2901C246.823 7.73405 247.608 5.47081 249.351 3.58865C251.085 1.72044 253.269 0.665499 255.774 0.289068C256.847 0.131059 257.939 -0.0130065 259.017 0.000935389C260.881 0.0334665 262.698 0.35413 264.357 1.29289C266.792 2.67313 268.126 4.80625 268.623 7.51563C268.679 7.82235 268.698 8.13372 268.735 8.44044C268.735 12.6788 268.735 16.9171 268.74 21.1601C268.74 21.3042 268.8 21.4482 268.833 21.5877C268.833 21.6527 268.833 21.7224 268.833 21.7875C268.619 21.7782 268.405 21.7596 268.191 21.7596C265.868 21.7782 263.549 21.7875 261.225 21.834C260.742 21.8433 260.612 21.7038 260.616 21.2252C260.635 17.8419 260.635 14.4587 260.621 11.0755C260.616 10.5178 260.57 9.94152 260.449 9.39778C260.133 8.00359 259.366 7.42733 257.949 7.44127C256.601 7.45056 255.829 7.985 255.504 9.30019C255.328 10.0112 255.276 10.7687 255.272 11.5077C255.258 23.1352 255.262 34.7628 255.262 46.3903C255.262 46.79 255.235 47.1943 255.304 47.58C255.397 48.1238 255.495 48.6907 255.723 49.188C256.187 50.1965 257.042 50.6147 258.144 50.5636C259.18 50.5125 259.942 50.0152 260.258 49.0393C260.481 48.3468 260.607 47.5893 260.612 46.8597C260.644 43.2255 260.625 39.596 260.625 35.9618C260.625 35.7341 260.625 35.5063 260.625 35.274C260.751 35.2461 260.811 35.2229 260.876 35.2229C263.497 35.2554 266.114 35.2879 268.735 35.3251C268.735 39.0848 268.735 42.8444 268.735 46.6041C268.73 47.5289 268.735 48.4537 268.74 49.3832ZM0 7.74799C2.25859 7.80841 4.51718 7.86882 6.84083 7.92924C6.84083 24.4504 6.84083 40.8786 6.84083 57.358C9.22025 57.2743 11.53 57.1953 13.8397 57.1163C13.9094 57.0931 13.9791 57.0745 14.0488 57.0512C14.4113 57.028 14.7691 57.0094 15.1316 56.9862C15.1642 56.9351 15.192 56.8839 15.2246 56.8328C15.2292 56.619 15.2385 56.4006 15.2385 56.1868C15.2385 40.4464 15.2385 24.7014 15.2385 8.96094C15.2385 8.71928 15.2385 8.47297 15.2385 8.20343C17.5343 8.25919 19.7696 8.31496 22.0282 8.37538C22.0282 5.86583 22.0282 3.45388 22.0282 1.02334C21.1127 0.972221 20.2251 0.921101 19.3421 0.879276C17.6783 0.809566 16.01 0.744504 14.3462 0.679441C12.8451 0.619026 11.3441 0.553964 9.84764 0.488902C8.06307 0.414545 6.28316 0.335541 4.49859 0.270479C4.05245 0.25189 3.60166 0.293716 3.15552 0.270479C2.10523 0.219359 1.05029 0.145002 0 0.0799396C0 2.63596 0 5.19197 0 7.74799ZM45.432 26.7508C47.1004 25.3706 47.6442 23.4698 47.6535 21.3832C47.6674 18.0975 47.6581 14.8119 47.6535 11.5262C47.6535 10.9779 47.6395 10.4295 47.5837 9.88575C47.3142 7.19496 46.2407 4.94102 43.9542 3.37488C42.6994 2.51513 41.3052 1.92957 39.8088 1.79015C37.4108 1.56243 34.9942 1.49272 32.5869 1.36724C31.7132 1.32077 30.8395 1.29753 29.9658 1.265C28.5112 1.20923 27.0566 1.15347 25.5974 1.0977C25.4393 1.09305 25.2813 1.0977 25.1373 1.0977C25.1373 19.6451 25.1373 38.1135 25.1373 56.6423C27.9489 56.5493 30.714 56.4564 33.5442 56.3588C33.5442 48.0541 33.5442 39.8562 33.5442 31.5608C34.5899 31.6212 35.5612 31.6537 36.5278 31.7374C37.8662 31.8489 38.7074 32.5553 39.0141 33.8519C39.1442 34.4096 39.2 34.9998 39.2093 35.5761C39.2604 41.2597 39.2651 46.948 39.3627 52.6317C39.3813 53.6866 39.753 54.7322 39.9622 55.7825C40.0179 56.0521 40.1852 56.1497 40.4641 56.1357C41.3703 56.0892 42.2765 56.0567 43.1874 56.0288C44.5258 55.9917 45.8689 55.9731 47.2073 55.9266C47.6256 55.9127 48.0392 55.8429 48.3366 55.8151C48.1182 54.4116 47.8347 53.0546 47.7092 51.6883C47.5977 50.4846 47.6581 49.267 47.6535 48.0587C47.6488 43.8436 47.6488 39.6285 47.6535 35.418C47.6535 32.1556 46.3755 29.674 43.3315 28.2519C43.2757 28.224 43.2246 28.1822 43.2106 28.1729C43.9681 27.6989 44.7675 27.3038 45.432 26.7508ZM36.2304 8.54268C38.0103 8.54268 38.9212 9.32807 39.1675 11.0894C39.2 11.3171 39.2186 11.5495 39.2186 11.7819C39.2232 15.0303 39.2279 18.2788 39.214 21.5272C39.214 21.9873 39.1442 22.4567 39.0281 22.8982C38.7446 23.9485 38.0428 24.6131 36.9507 24.6828C35.8493 24.7571 34.734 24.6967 33.5861 24.6967C33.5861 19.2733 33.5861 13.8685 33.5861 8.53803C34.483 8.54268 35.3567 8.54268 36.2304 8.54268ZM180.041 54.9367C180.041 40.4882 180.046 26.0351 180.041 11.5867C180.041 10.1042 179.734 8.6821 178.977 7.39944C177.086 4.1928 174.042 2.9938 170.533 2.67778C169.729 2.60343 168.906 2.67778 168.093 2.66384C166.373 2.63596 164.724 2.99845 163.158 3.67231C159.607 5.21056 157.511 7.83629 157.502 11.8004C157.469 26.0863 157.493 40.3674 157.483 54.6532C157.483 55.0297 157.572 55.1737 157.976 55.1737C160.43 55.1784 162.888 55.2109 165.342 55.2295C165.518 55.2295 165.695 55.2156 165.918 55.2063C165.918 54.7601 165.918 54.3605 165.918 53.9654C165.918 50.4149 165.927 46.8644 165.909 43.3138C165.904 42.8258 166.057 42.6911 166.527 42.7097C167.373 42.7468 168.218 42.7283 169.064 42.7283C169.892 42.7283 170.719 42.7283 171.606 42.7283C171.606 46.9527 171.606 51.0887 171.606 55.3131C174.432 55.3131 177.192 55.3131 180.013 55.3131C180.023 55.197 180.041 55.0668 180.041 54.9367ZM168.102 36.3986C167.586 36.3986 167.075 36.394 166.559 36.3893C165.918 36.3847 165.918 36.3847 165.918 35.7248C165.918 34.6977 165.918 33.666 165.918 32.639C165.918 26.0863 165.909 19.5336 165.932 12.9762C165.937 12.2791 166.053 11.5448 166.304 10.8942C166.75 9.73704 167.972 9.17007 169.301 9.36525C170.496 9.54185 171.272 10.318 171.453 11.5681C171.541 12.1862 171.611 12.8136 171.611 13.4363C171.62 20.8673 171.616 28.303 171.616 35.7341C171.616 35.9292 171.616 36.1244 171.616 36.394C170.389 36.3986 169.246 36.3986 168.102 36.3986ZM65.3736 3.01239C65.3736 10.4434 65.3736 17.8791 65.3736 25.3102C65.3736 32.0487 65.3829 38.7827 65.355 45.5213C65.3504 46.2323 65.211 46.9805 64.9647 47.6497C64.5464 48.7697 63.4032 49.3274 62.232 49.2391C61.2282 49.1648 60.3313 48.7419 59.9409 47.422C59.755 46.8039 59.6853 46.1254 59.6853 45.4748C59.6714 31.2866 59.676 17.103 59.6714 2.9148C59.6714 2.67314 59.6481 2.43612 59.6342 2.19911C56.8226 2.12011 54.0667 2.0411 51.283 1.9621C51.2737 2.17587 51.2551 2.33853 51.2551 2.50118C51.2551 17.3354 51.2505 32.1696 51.2691 47.0038C51.2691 47.7985 51.3852 48.6117 51.5758 49.3832C52.1009 51.507 53.3464 53.1382 55.1821 54.3233C56.9016 55.434 58.8256 55.9731 60.8379 56.1171C63.1847 56.2844 65.4991 56.0102 67.7066 55.1273C71.6335 53.5611 73.7899 50.5218 73.7945 46.5437C73.8038 32.0441 73.7992 17.5399 73.7992 3.04027C73.7992 2.86832 73.776 2.69172 73.7667 2.52442C70.9504 2.45936 68.1899 2.38965 65.3736 2.32459C65.3736 2.58948 65.3736 2.79861 65.3736 3.01239ZM208.566 35.6736C208.566 39.4054 208.552 43.1372 208.576 46.8736C208.58 47.6126 208.659 48.3608 208.803 49.0858C209.147 50.8424 209.97 52.3621 211.276 53.5936C212.944 55.1737 214.98 55.987 217.22 56.3495C219.167 56.6655 221.109 56.6469 223.038 56.2333C224.651 55.8848 226.138 55.2481 227.411 54.1839C229.586 52.3575 230.469 49.9502 230.478 47.1757C230.492 43.8575 230.488 40.5394 230.474 37.2212C230.469 36.5938 230.423 35.9664 230.348 35.3437C230.069 32.9921 228.94 31.0914 227.193 29.5346C225.134 27.7035 223.066 25.8864 221.016 24.0461C220.031 23.1584 219.055 22.2615 218.121 21.3228C217.522 20.7233 217.113 19.9239 217.09 19.106C217.011 16.4199 216.978 13.7337 217.066 11.0476C217.127 9.22119 218.065 8.5055 219.873 8.4265C220.979 8.38002 221.881 9.12824 222.113 10.2715C222.225 10.8152 222.271 11.3822 222.276 11.9399C222.29 15.0071 222.285 18.0789 222.285 21.1462C222.285 21.3414 222.285 21.5365 222.285 21.7968C222.587 21.7968 222.829 21.7968 223.075 21.7968C225.366 21.7782 227.653 21.7503 229.944 21.755C230.385 21.755 230.502 21.6295 230.497 21.1926C230.478 17.7258 230.511 14.2589 230.469 10.792C230.46 9.84392 230.339 8.87264 230.111 7.95247C229.516 5.5684 228.062 3.82567 225.896 2.67314C224.209 1.77621 222.383 1.42301 220.501 1.39513C219.334 1.38118 218.163 1.52525 217.006 1.67861C215.128 1.92492 213.432 2.66384 211.94 3.83496C209.988 5.36392 208.78 7.40874 208.645 9.83928C208.459 13.1807 208.562 16.5407 208.59 19.8914C208.594 20.7419 208.706 21.6016 208.892 22.4288C209.375 24.548 210.718 26.0955 212.317 27.4851C214.896 29.7251 217.433 32.0162 220.003 34.2702C221.407 35.497 222.062 37.0167 222.048 38.8756C222.025 41.348 222.062 43.8204 222.03 46.2927C222.02 46.8969 221.899 47.515 221.723 48.0912C221.523 48.7605 221.035 49.2252 220.352 49.4204C218.433 49.9641 216.843 48.9231 216.792 46.7482C216.708 43.0675 216.76 39.3822 216.769 35.7015C216.769 35.2879 216.648 35.1671 216.239 35.1671C213.832 35.1671 211.429 35.1439 209.022 35.1299C208.892 35.1299 208.766 35.1485 208.599 35.1624C208.58 35.353 208.566 35.511 208.566 35.6736ZM205.49 21.7875C205.49 18.0046 205.597 14.217 205.462 10.4388C205.336 6.99048 203.571 4.48094 200.392 3.07745C199.499 2.68243 198.51 2.4826 197.548 2.26882C195.098 1.72973 192.673 1.95745 190.298 2.66849C186.445 3.81637 183.517 6.88824 183.596 11.7307C183.643 14.5005 183.601 17.275 183.615 20.0448C183.62 20.6582 183.638 21.2763 183.75 21.8758C184.191 24.2599 185.567 26.0444 187.393 27.5734C189.973 29.7344 192.491 31.9744 195.043 34.1772C196.39 35.339 197.111 36.7658 197.083 38.5736C197.05 40.6974 197.092 42.8212 197.078 44.945C197.074 45.6189 197.022 46.2974 196.948 46.9666C196.809 48.2307 196.023 49.0068 194.703 49.1555C193.807 49.2577 192.477 48.7744 192.129 47.6172C191.934 46.9666 191.817 46.2649 191.808 45.5863C191.776 42.3007 191.794 39.0151 191.794 35.7294C191.794 35.5203 191.776 35.3158 191.762 35.0741C189.029 35.0741 186.348 35.0741 183.648 35.0741C183.634 35.1717 183.61 35.2507 183.61 35.3297C183.61 39.2474 183.569 43.1605 183.638 47.0781C183.675 49.3321 184.498 51.3258 186.129 52.9291C188.378 55.1458 191.246 55.8383 194.248 55.9963C195.549 56.0614 196.892 55.8615 198.17 55.578C202.753 54.5603 205.518 51.4094 205.518 46.6552C205.518 43.4207 205.495 40.1815 205.522 36.947C205.55 33.8612 204.416 31.3424 202.051 29.3487C199.922 27.5502 197.826 25.7098 195.726 23.8788C194.889 23.1492 194.062 22.4056 193.272 21.6295C192.561 20.9324 192.124 20.0262 192.096 19.0595C192.022 16.5918 192.045 14.1148 192.082 11.6424C192.092 11.1312 192.25 10.5875 192.473 10.1181C192.97 9.05853 193.932 8.78434 195.015 8.85405C196.023 8.91911 196.767 9.41637 197.055 10.397C197.232 11.0104 197.32 11.6657 197.329 12.3023C197.357 15.3231 197.343 18.3438 197.343 21.3599C197.343 21.5505 197.343 21.741 197.343 21.9641C198.449 21.9641 199.476 21.9734 200.503 21.9641C202.144 21.9502 203.784 21.9176 205.425 21.8944C205.439 21.8619 205.462 21.8247 205.49 21.7875ZM124.557 35.3297C124.557 38.6479 124.58 41.9661 124.538 45.2843C124.529 45.9814 124.394 46.7156 124.129 47.357C123.674 48.463 122.652 48.7651 121.555 48.7558C120.611 48.7465 119.733 48.0355 119.445 47.0595C119.287 46.5251 119.199 45.9535 119.199 45.3958C119.185 34.4607 119.185 23.5256 119.194 12.5905C119.194 12.1165 119.254 11.6285 119.375 11.1638C119.663 10.0345 120.444 9.39314 121.453 9.33737C123.205 9.23977 123.958 9.93222 124.301 11.0197C124.478 11.5774 124.543 12.1908 124.548 12.781C124.571 15.8157 124.557 18.855 124.557 21.8897C124.557 22.0849 124.557 22.2801 124.557 22.4985C127.308 22.4985 130.004 22.4985 132.722 22.4985C132.732 22.3126 132.746 22.1686 132.746 22.0199C132.746 18.5669 132.755 15.1186 132.741 11.6657C132.736 11.0569 132.69 10.4434 132.574 9.84392C132.09 7.29255 130.687 5.39646 128.433 4.10915C127.015 3.30052 125.463 2.9148 123.865 2.71496C121.601 2.42683 119.361 2.58484 117.177 3.27728C113.148 4.55065 110.759 7.59463 110.755 11.5913C110.731 23.191 110.727 34.7907 110.759 46.3857C110.768 49.913 112.442 52.5155 115.606 54.063C118.808 55.6292 122.196 55.7686 125.612 54.96C130.301 53.8446 132.746 50.6798 132.746 45.8884C132.746 42.389 132.746 38.8849 132.746 35.3855C132.746 35.1717 132.746 34.958 132.746 34.7117C129.999 34.7117 127.304 34.7117 124.557 34.7117C124.557 34.9394 124.557 35.1346 124.557 35.3297ZM77.847 55.2248C83.8374 55.1273 89.7859 55.0297 95.7531 54.9321C95.7531 52.6224 95.7531 50.3638 95.7531 48.0587C95.516 48.0587 95.3209 48.0587 95.1257 48.0587C92.3233 48.0866 89.5164 48.1052 86.714 48.1517C86.2818 48.1609 86.1471 48.0494 86.1517 47.6033C86.1657 42.3751 86.1657 37.1515 86.1517 31.9233C86.1517 31.4771 86.2818 31.3656 86.714 31.3702C89.0702 31.3888 91.4264 31.3749 93.7826 31.3702C93.9778 31.3702 94.1683 31.3702 94.3775 31.3702C94.3775 29.0419 94.3775 26.7833 94.3775 24.4783C94.1544 24.4783 93.9731 24.4783 93.7965 24.4783C91.4404 24.469 89.0842 24.4504 86.728 24.469C86.2586 24.4736 86.1471 24.3249 86.1517 23.8788C86.1657 19.3337 86.161 14.784 86.161 10.2389C86.161 10.0623 86.1796 9.88575 86.1889 9.70915C89.4095 9.70915 92.5836 9.70915 95.7623 9.70915C95.7623 7.42733 95.7623 5.17803 95.7623 2.86367C89.7859 2.78002 83.8374 2.69637 77.8516 2.61737C77.847 20.2074 77.847 37.6859 77.847 55.2248ZM136.728 55.1087C136.84 55.1226 136.905 55.1366 136.97 55.1366C142.793 55.1598 148.616 55.1784 154.439 55.2109C154.82 55.2109 154.913 55.0761 154.909 54.7183C154.895 52.7107 154.904 50.703 154.899 48.6954C154.899 48.5653 154.876 48.4398 154.853 48.24C151.586 48.24 148.342 48.24 145.038 48.24C145.038 33.0758 145.038 17.9906 145.038 2.86367C142.231 2.86367 139.489 2.86367 136.728 2.86367C136.728 20.3282 136.728 37.7185 136.728 55.1087ZM234.224 2.33388C234.224 20.1052 234.224 37.8765 234.224 55.6431C234.224 55.7593 234.233 55.8755 234.224 55.9917C234.201 56.303 234.322 56.4378 234.652 56.4378C235.214 56.4424 235.772 56.5029 236.329 56.5261C238.244 56.5958 240.159 56.6655 242.078 56.7259C242.738 56.7445 242.738 56.7306 242.738 56.0753C242.738 37.9741 242.738 19.8728 242.738 1.76691C242.738 1.57637 242.738 1.38118 242.738 1.15811C239.871 1.265 237.082 1.37189 234.224 1.48343C234.224 1.80874 234.224 2.06899 234.224 2.33388Z" fill="white"/>
</svg>