<svg width="270" height="59" viewBox="0 0 270 59" fill="none" xmlns="http://www.w3.org/2000/svg">
<path d="M269.324 49.6332C269.156 53.2953 266.94 56.3811 263.463 57.5104C259.411 58.8209 255.475 58.4027 251.84 56.1534C248.987 54.3874 247.588 51.6919 247.416 48.3552C247.407 48.1879 247.407 48.0252 247.407 47.8579C247.407 35.4171 247.407 22.9809 247.407 10.5401C247.407 7.98405 248.192 5.72081 249.935 3.83865C251.669 1.97044 253.853 0.915499 256.358 0.539068C257.431 0.381059 258.523 0.236993 259.601 0.250935C261.465 0.283467 263.282 0.60413 264.941 1.54289C267.376 2.92313 268.71 5.05625 269.207 7.76563C269.263 8.07235 269.282 8.38372 269.319 8.69044C269.319 12.9288 269.319 17.1671 269.324 21.4101C269.324 21.5542 269.384 21.6982 269.417 21.8377C269.417 21.9027 269.417 21.9724 269.417 22.0375C269.203 22.0282 268.989 22.0096 268.775 22.0096C266.452 22.0282 264.133 22.0375 261.809 22.084C261.326 22.0933 261.195 21.9538 261.2 21.4752C261.219 18.0919 261.219 14.7087 261.205 11.3255C261.2 10.7678 261.154 10.1915 261.033 9.64778C260.717 8.25359 259.95 7.67733 258.533 7.69127C257.185 7.70056 256.413 8.235 256.088 9.55019C255.912 10.2612 255.86 11.0187 255.856 11.7577C255.842 23.3852 255.846 35.0128 255.846 46.6403C255.846 47.04 255.819 47.4443 255.888 47.83C255.981 48.3738 256.079 48.9407 256.307 49.438C256.771 50.4465 257.626 50.8647 258.728 50.8136C259.764 50.7625 260.526 50.2652 260.842 49.2893C261.065 48.5968 261.191 47.8393 261.195 47.1097C261.228 43.4755 261.209 39.846 261.209 36.2118C261.209 35.9841 261.209 35.7563 261.209 35.524C261.335 35.4961 261.395 35.4729 261.46 35.4729C264.081 35.5054 266.698 35.5379 269.319 35.5751C269.319 39.3348 269.319 43.0944 269.319 46.8541C269.314 47.7789 269.319 48.7037 269.324 49.6332ZM0.583984 7.99799C2.84257 8.05841 5.10116 8.11882 7.42482 8.17924C7.42482 24.7004 7.42482 41.1286 7.42482 57.608C9.80424 57.5243 12.1139 57.4453 14.4237 57.3663C14.4934 57.3431 14.5631 57.3245 14.6328 57.3012C14.9953 57.278 15.3531 57.2594 15.7156 57.2362C15.7481 57.1851 15.776 57.1339 15.8086 57.0828C15.8132 56.869 15.8225 56.6506 15.8225 56.4368C15.8225 40.6964 15.8225 24.9514 15.8225 9.21094C15.8225 8.96928 15.8225 8.72297 15.8225 8.45343C18.1183 8.50919 20.3536 8.56496 22.6122 8.62538C22.6122 6.11583 22.6122 3.70388 22.6122 1.27334C21.6967 1.22222 20.8091 1.1711 19.9261 1.12928C18.2623 1.05957 16.5939 0.994504 14.9302 0.929441C13.4291 0.869026 11.9281 0.803964 10.4316 0.738902C8.64706 0.664545 6.86714 0.585541 5.08257 0.520479C4.63643 0.50189 4.18564 0.543716 3.7395 0.520479C2.68921 0.469359 1.63428 0.395002 0.583984 0.32994C0.583984 2.88596 0.583984 5.44197 0.583984 7.99799ZM46.016 27.0008C47.6844 25.6206 48.2281 23.7198 48.2374 21.6332C48.2514 18.3475 48.2421 15.0619 48.2374 11.7762C48.2374 11.2279 48.2235 10.6795 48.1677 10.1358C47.8982 7.44496 46.8247 5.19102 44.5382 3.62488C43.2834 2.76513 41.8892 2.17957 40.3928 2.04015C37.9948 1.81243 35.5782 1.74272 33.1709 1.61724C32.2972 1.57077 31.4235 1.54753 30.5498 1.515C29.0952 1.45923 27.6406 1.40347 26.1813 1.3477C26.0233 1.34305 25.8653 1.3477 25.7213 1.3477C25.7213 19.8951 25.7213 38.3635 25.7213 56.8923C28.5329 56.7993 31.298 56.7064 34.1282 56.6088C34.1282 48.3041 34.1282 40.1062 34.1282 31.8108C35.1739 31.8712 36.1452 31.9037 37.1118 31.9874C38.4502 32.0989 39.2914 32.8053 39.5981 34.1019C39.7282 34.6596 39.784 35.2498 39.7933 35.826C39.8444 41.5097 39.8491 47.198 39.9466 52.8817C39.9652 53.9366 40.337 54.9822 40.5462 56.0325C40.6019 56.3021 40.7692 56.3997 41.0481 56.3857C41.9543 56.3392 42.8605 56.3067 43.7714 56.2788C45.1098 56.2417 46.4529 56.2231 47.7913 56.1766C48.2096 56.1627 48.6232 56.0929 48.9206 56.0651C48.7022 54.6616 48.4187 53.3046 48.2932 51.9383C48.1817 50.7346 48.2421 49.517 48.2374 48.3087C48.2328 44.0936 48.2328 39.8785 48.2374 35.668C48.2374 32.4056 46.9594 29.924 43.9155 28.5019C43.8597 28.474 43.8086 28.4322 43.7946 28.4229C44.5521 27.9489 45.3515 27.5538 46.016 27.0008ZM36.8144 8.79268C38.5943 8.79268 39.5052 9.57807 39.7515 11.3394C39.784 11.5671 39.8026 11.7995 39.8026 12.0319C39.8072 15.2803 39.8119 18.5288 39.7979 21.7772C39.7979 22.2373 39.7282 22.7067 39.612 23.1482C39.3286 24.1985 38.6268 24.8631 37.5347 24.9328C36.4333 25.0071 35.3179 24.9467 34.1701 24.9467C34.1701 19.5233 34.1701 14.1185 34.1701 8.78803C35.067 8.79268 35.9407 8.79268 36.8144 8.79268ZM180.625 55.1867C180.625 40.7383 180.63 26.2851 180.625 11.8367C180.625 10.3542 180.318 8.9321 179.561 7.64944C177.67 4.4428 174.626 3.2438 171.117 2.92778C170.313 2.85343 169.49 2.92778 168.677 2.91384C166.957 2.88596 165.308 3.24845 163.742 3.92231C160.191 5.46056 158.095 8.08629 158.086 12.0504C158.053 26.3363 158.076 40.6174 158.067 54.9032C158.067 55.2797 158.155 55.4237 158.56 55.4237C161.014 55.4284 163.472 55.4609 165.926 55.4795C166.102 55.4795 166.279 55.4656 166.502 55.4563C166.502 55.0101 166.502 54.6105 166.502 54.2154C166.502 50.6649 166.511 47.1144 166.493 43.5638C166.488 43.0758 166.641 42.9411 167.111 42.9597C167.957 42.9968 168.802 42.9783 169.648 42.9783C170.475 42.9783 171.303 42.9783 172.19 42.9783C172.19 47.2027 172.19 51.3387 172.19 55.5631C175.016 55.5631 177.776 55.5631 180.597 55.5631C180.607 55.447 180.625 55.3168 180.625 55.1867ZM168.686 36.6486C168.17 36.6486 167.659 36.644 167.143 36.6393C166.502 36.6347 166.502 36.6347 166.502 35.9748C166.502 34.9477 166.502 33.916 166.502 32.889C166.502 26.3363 166.493 19.7836 166.516 13.2262C166.521 12.5291 166.637 11.7948 166.888 11.1442C167.334 9.98704 168.556 9.42007 169.885 9.61525C171.08 9.79185 171.856 10.568 172.037 11.8181C172.125 12.4362 172.195 13.0636 172.195 13.6863C172.204 21.1173 172.2 28.553 172.2 35.9841C172.2 36.1792 172.2 36.3744 172.2 36.644C170.973 36.6486 169.83 36.6486 168.686 36.6486ZM65.9576 3.26239C65.9576 10.6934 65.9576 18.1291 65.9576 25.5602C65.9576 32.2987 65.9669 39.0327 65.939 45.7713C65.9344 46.4823 65.795 47.2305 65.5486 47.8997C65.1304 49.0197 63.9871 49.5774 62.816 49.4891C61.8122 49.4148 60.9153 48.9919 60.5249 47.672C60.339 47.0539 60.2693 46.3754 60.2693 45.7248C60.2554 31.5366 60.26 17.353 60.2554 3.1648C60.2554 2.92314 60.2321 2.68612 60.2182 2.44911C57.4066 2.37011 54.6507 2.2911 51.867 2.2121C51.8577 2.42587 51.8391 2.58853 51.8391 2.75118C51.8391 17.5854 51.8344 32.4196 51.853 47.2538C51.853 48.0485 51.9692 48.8617 52.1598 49.6332C52.6849 51.757 53.9304 53.3882 55.7661 54.5733C57.4856 55.684 59.4096 56.2231 61.4218 56.3671C63.7687 56.5344 66.0831 56.2602 68.2906 55.3773C72.2175 53.8111 74.3739 50.7718 74.3785 46.7937C74.3878 32.2941 74.3832 17.7899 74.3832 3.29027C74.3832 3.11832 74.3599 2.94172 74.3506 2.77442C71.5344 2.70936 68.7739 2.63965 65.9576 2.57459C65.9576 2.83948 65.9576 3.04861 65.9576 3.26239ZM209.15 35.9236C209.15 39.6554 209.136 43.3872 209.16 47.1236C209.164 47.8626 209.243 48.6108 209.387 49.3358C209.731 51.0924 210.554 52.6121 211.86 53.8436C213.528 55.4237 215.564 56.237 217.804 56.5995C219.751 56.9155 221.693 56.8969 223.622 56.4833C225.235 56.1348 226.722 55.4981 227.995 54.4339C230.17 52.6075 231.053 50.2002 231.062 47.4257C231.076 44.1075 231.072 40.7894 231.058 37.4712C231.053 36.8438 231.007 36.2164 230.932 35.5937C230.653 33.2421 229.524 31.3414 227.777 29.7846C225.718 27.9535 223.65 26.1364 221.6 24.2961C220.615 23.4084 219.639 22.5115 218.705 21.5728C218.106 20.9733 217.697 20.1739 217.674 19.356C217.594 16.6699 217.562 13.9837 217.65 11.2976C217.711 9.47119 218.649 8.7555 220.457 8.6765C221.563 8.63002 222.465 9.37824 222.697 10.5215C222.809 11.0652 222.855 11.6322 222.86 12.1899C222.874 15.2571 222.869 18.3289 222.869 21.3962C222.869 21.5914 222.869 21.7865 222.869 22.0468C223.171 22.0468 223.413 22.0468 223.659 22.0468C225.95 22.0282 228.237 22.0003 230.528 22.005C230.969 22.005 231.086 21.8795 231.081 21.4426C231.062 17.9758 231.095 14.5089 231.053 11.042C231.044 10.0939 230.923 9.12264 230.695 8.20247C230.1 5.8184 228.646 4.07567 226.48 2.92314C224.793 2.02621 222.967 1.67301 221.085 1.64513C219.918 1.63118 218.747 1.77525 217.59 1.92861C215.712 2.17492 214.016 2.91384 212.524 4.08496C210.572 5.61392 209.364 7.65874 209.229 10.0893C209.043 13.4307 209.146 16.7907 209.174 20.1414C209.178 20.9919 209.29 21.8516 209.476 22.6788C209.959 24.798 211.302 26.3455 212.901 27.7351C215.48 29.9751 218.017 32.2662 220.587 34.5202C221.991 35.747 222.646 37.2667 222.632 39.1256C222.609 41.598 222.646 44.0704 222.614 46.5427C222.604 47.1469 222.483 47.765 222.307 48.3412C222.107 49.0105 221.619 49.4752 220.936 49.6704C219.017 50.2141 217.427 49.1731 217.376 46.9982C217.292 43.3175 217.344 39.6322 217.353 35.9515C217.353 35.5379 217.232 35.4171 216.823 35.4171C214.416 35.4171 212.013 35.3939 209.606 35.3799C209.476 35.3799 209.35 35.3985 209.183 35.4124C209.164 35.603 209.15 35.761 209.15 35.9236ZM206.074 22.0375C206.074 18.2546 206.181 14.467 206.046 10.6888C205.92 7.24048 204.154 4.73094 200.976 3.32745C200.083 2.93243 199.094 2.7326 198.132 2.51882C195.682 1.97973 193.257 2.20745 190.882 2.91849C187.029 4.06637 184.101 7.13824 184.18 11.9807C184.227 14.7505 184.185 17.525 184.199 20.2948C184.204 20.9082 184.222 21.5263 184.334 22.1258C184.775 24.5099 186.151 26.2944 187.977 27.8234C190.556 29.9844 193.075 32.2244 195.627 34.4272C196.974 35.589 197.695 37.0158 197.667 38.8236C197.634 40.9474 197.676 43.0712 197.662 45.195C197.658 45.8689 197.606 46.5474 197.532 47.2166C197.393 48.4807 196.607 49.2568 195.287 49.4055C194.391 49.5077 193.061 49.0244 192.713 47.8672C192.518 47.2166 192.401 46.5149 192.392 45.8363C192.36 42.5507 192.378 39.2651 192.378 35.9794C192.378 35.7703 192.36 35.5658 192.346 35.3241C189.613 35.3241 186.932 35.3241 184.232 35.3241C184.218 35.4217 184.194 35.5007 184.194 35.5797C184.194 39.4974 184.153 43.4104 184.222 47.3281C184.259 49.5821 185.082 51.5758 186.713 53.1791C188.962 55.3959 191.83 56.0883 194.832 56.2463C196.133 56.3114 197.476 56.1115 198.754 55.828C203.337 54.8103 206.102 51.6594 206.102 46.9052C206.102 43.6707 206.078 40.4315 206.106 37.197C206.134 34.1112 205 31.5924 202.635 29.5987C200.506 27.8002 198.41 25.9598 196.31 24.1288C195.473 23.3992 194.646 22.6556 193.856 21.8795C193.145 21.1824 192.708 20.2762 192.68 19.3095C192.606 16.8418 192.629 14.3648 192.666 11.8924C192.676 11.3812 192.834 10.8375 193.057 10.3681C193.554 9.30853 194.516 9.03434 195.599 9.10405C196.607 9.16911 197.351 9.66637 197.639 10.647C197.816 11.2604 197.904 11.9157 197.913 12.5523C197.941 15.5731 197.927 18.5938 197.927 21.6099C197.927 21.8005 197.927 21.991 197.927 22.2141C199.033 22.2141 200.06 22.2234 201.087 22.2141C202.728 22.2002 204.368 22.1676 206.009 22.1444C206.023 22.1119 206.046 22.0747 206.074 22.0375ZM125.141 35.5797C125.141 38.8979 125.164 42.2161 125.122 45.5343C125.113 46.2314 124.978 46.9656 124.713 47.607C124.258 48.713 123.236 49.0151 122.139 49.0058C121.195 48.9965 120.317 48.2855 120.029 47.3095C119.871 46.7751 119.783 46.2035 119.783 45.6458C119.769 34.7107 119.769 23.7756 119.778 12.8405C119.778 12.3665 119.838 11.8785 119.959 11.4138C120.247 10.2845 121.028 9.64314 122.037 9.58737C123.789 9.48977 124.542 10.1822 124.885 11.2697C125.062 11.8274 125.127 12.4408 125.132 13.031C125.155 16.0657 125.141 19.105 125.141 22.1397C125.141 22.3349 125.141 22.5301 125.141 22.7485C127.892 22.7485 130.588 22.7485 133.306 22.7485C133.316 22.5626 133.33 22.4186 133.33 22.2699C133.33 18.8169 133.339 15.3686 133.325 11.9157C133.32 11.3069 133.274 10.6934 133.158 10.0939C132.674 7.54255 131.271 5.64646 129.017 4.35915C127.599 3.55052 126.047 3.1648 124.449 2.96496C122.185 2.67683 119.945 2.83484 117.761 3.52728C113.732 4.80065 111.343 7.84463 111.339 11.8413C111.315 23.441 111.311 35.0407 111.343 46.6357C111.352 50.163 113.026 52.7655 116.19 54.313C119.392 55.8792 122.78 56.0186 126.196 55.21C130.885 54.0946 133.33 50.9298 133.33 46.1384C133.33 42.639 133.33 39.1349 133.33 35.6355C133.33 35.4217 133.33 35.208 133.33 34.9617C130.583 34.9617 127.888 34.9617 125.141 34.9617C125.141 35.1894 125.141 35.3846 125.141 35.5797ZM78.431 55.4748C84.4213 55.3773 90.3699 55.2797 96.337 55.1821C96.337 52.8724 96.337 50.6138 96.337 48.3087C96.1 48.3087 95.9048 48.3087 95.7097 48.3087C92.9073 48.3366 90.1004 48.3552 87.298 48.4017C86.8658 48.4109 86.7311 48.2994 86.7357 47.8533C86.7496 42.6251 86.7496 37.4015 86.7357 32.1733C86.7357 31.7271 86.8658 31.6156 87.298 31.6202C89.6542 31.6388 92.0104 31.6249 94.3666 31.6202C94.5618 31.6202 94.7523 31.6202 94.9614 31.6202C94.9614 29.2919 94.9614 27.0333 94.9614 24.7283C94.7384 24.7283 94.5571 24.7283 94.3805 24.7283C92.0243 24.719 89.6682 24.7004 87.312 24.719C86.8426 24.7236 86.7311 24.5749 86.7357 24.1288C86.7496 19.5837 86.745 15.034 86.745 10.4889C86.745 10.3123 86.7636 10.1358 86.7729 9.95915C89.9935 9.95915 93.1676 9.95915 96.3463 9.95915C96.3463 7.67733 96.3463 5.42803 96.3463 3.11367C90.3699 3.03002 84.4213 2.94637 78.4356 2.86737C78.431 20.4574 78.431 37.9359 78.431 55.4748ZM137.312 55.3587C137.424 55.3726 137.489 55.3866 137.554 55.3866C143.377 55.4098 149.2 55.4284 155.023 55.4609C155.404 55.4609 155.497 55.3261 155.493 54.9683C155.479 52.9607 155.488 50.953 155.483 48.9454C155.483 48.8153 155.46 48.6898 155.437 48.49C152.17 48.49 148.926 48.49 145.622 48.49C145.622 33.3258 145.622 18.2406 145.622 3.11367C142.815 3.11367 140.073 3.11367 137.312 3.11367C137.312 20.5782 137.312 37.9685 137.312 55.3587ZM234.808 2.58388C234.808 20.3552 234.808 38.1265 234.808 55.8931C234.808 56.0093 234.817 56.1255 234.808 56.2417C234.785 56.553 234.906 56.6878 235.236 56.6878C235.798 56.6924 236.356 56.7529 236.913 56.7761C238.828 56.8458 240.743 56.9155 242.662 56.9759C243.322 56.9945 243.322 56.9806 243.322 56.3253C243.322 38.2241 243.322 20.1228 243.322 2.01691C243.322 1.82637 243.322 1.63118 243.322 1.40811C240.455 1.515 237.666 1.62189 234.808 1.73343C234.808 2.05874 234.808 2.31899 234.808 2.58388Z" fill="black"/>
</svg>
